<svg width="296" height="296" viewBox="0 0 296 296" fill="none" xmlns="http://www.w3.org/2000/svg">
<path d="M100.19 50.0074V64.8332L108.862 73.5051H123.315V50.0074H100.19Z" fill="#FFE477"/>
<path d="M291.665 146.358L282.993 137.686H268.54V161.184H291.665V146.358Z" fill="#FFE477"/>
<path d="M46.2908 240.929L56.7762 251.415H69.0388L94.3431 226.11L77.7288 209.494L46.2908 240.929Z" fill="#FFE477"/>
<path d="M119.286 243.732L129.769 254.215H142.034L167.339 228.908L150.724 212.294L119.286 243.732Z" fill="#FFE477"/>
<path d="M244.634 137.686L206.825 99.8777L211.154 95.5485L199.808 84.2028V79.7042L193.23 86.2827L156.955 50.0074H123.315V73.5051H147.221L170.609 96.8922L122.215 145.288V172.322L156.456 206.563L150.724 212.294L167.338 228.908L189.687 206.563L159.335 176.211L204.63 130.916L234.9 161.184H268.54V137.686H244.634Z" fill="#756C9E"/>
<path d="M122.215 172.322V165.007L77.7288 209.494L94.3431 226.11L135.173 185.28L122.215 172.322Z" fill="#756C9E"/>
<path d="M91.2696 195.953H21.6798V201.96C25.0672 205.348 26.9642 207.244 30.3517 210.632H76.5906L91.2696 195.953Z" fill="#BDDBFF"/>
<path d="M122.215 147.304H56.3674V153.312L65.0393 161.983H122.215V147.304Z" fill="#BDDBFF"/>
<path d="M168.845 98.6559H4.33594V104.663C7.7234 108.051 9.62038 109.95 13.0078 113.335H154.166L168.845 98.6559Z" fill="#BDDBFF"/>
<path d="M199.808 64.9281V84.2028C205.454 89.8463 208.618 93.0124 214.262 98.6559H245.84V64.9281C245.84 52.2161 235.535 41.9137 222.825 41.9137C210.113 41.9137 199.808 52.2161 199.808 64.9281V64.9281Z" fill="#FFDAAA"/>
<path d="M123.315 50.0074H140.659V73.5051H123.315V50.0074Z" fill="#6C5D9E"/>
<path d="M168.068 212.294L173.8 206.563L139.559 172.322V145.288L187.952 96.8922L164.565 73.5051H147.221L170.609 96.8922L122.215 145.288V172.322L156.456 206.563L150.724 212.294L167.338 228.908L176.01 220.237L168.068 212.294Z" fill="#6C5D9E"/>
<path d="M213.302 139.586L234.9 161.184H252.244L221.974 130.914L213.302 139.586Z" fill="#6C5D9E"/>
<path d="M177.076 158.472L167.619 167.927L133.597 133.906L143.055 124.45L177.076 158.472Z" fill="#FFE477"/>
<path d="M117.534 64.8332V50.0074H100.19V64.8332L108.862 73.5051H123.315V70.6145L117.534 64.8332Z" fill="#FFB655"/>
<path d="M268.54 137.686H280.103V161.184H268.54V137.686Z" fill="#FFB655"/>
<path d="M63.6347 240.929L86.4007 218.166L77.7288 209.494L46.2908 240.929L56.7762 251.415H69.0388L71.5794 248.874L63.6347 240.929Z" fill="#FFB655"/>
<path d="M136.63 243.732L159.396 220.966L150.724 212.294L119.286 243.732L129.769 254.215H142.034L144.572 251.674L136.63 243.732Z" fill="#FFB655"/>
<path d="M95.0726 209.494L127.229 177.335L122.215 172.322V165.007L77.7288 209.494L94.3431 226.11L103.015 217.439L95.0726 209.494Z" fill="#6C5D9E"/>
<path d="M39.0236 195.953H21.6798V201.96L30.3517 210.632H47.6955L39.0236 201.96V195.953Z" fill="#57A4FF"/>
<path d="M73.7112 147.304H56.3674V153.312L65.0393 161.983H82.3832L73.7112 153.312V147.304Z" fill="#57A4FF"/>
<path d="M21.6798 98.6559H4.33594V104.663L13.0078 113.335H30.3517L21.6798 104.663V98.6559Z" fill="#57A4FF"/>
<path d="M217.152 64.9281C217.152 55.2851 223.083 47.0265 231.497 43.6029C228.819 42.5121 225.892 41.9137 222.825 41.9137C210.113 41.9137 199.808 52.2161 199.808 64.9281V84.2028L214.262 98.6559H231.605L217.152 84.2028V64.9281Z" fill="#FBB984"/>
<path d="M145.157 133.906L148.834 130.232L143.053 124.45L133.595 133.906L167.616 167.927L173.398 162.146L145.157 133.906Z" fill="#FFB655"/>
<path d="M284.789 133.35C280.828 133.35 250.645 133.35 246.429 133.35L216.071 102.992H250.173V64.9281C250.173 49.8471 237.904 37.5777 222.823 37.5777C207.742 37.5777 195.473 49.8471 195.473 64.9281V77.9088L193.228 80.1513L158.75 45.6715C149.692 45.6715 104.935 45.6715 95.8517 45.6715V66.6308L107.064 77.8411H145.424L164.475 96.8945L117.877 143.492V174.12L150.322 206.562C145.783 211.102 117.717 239.166 113.153 243.732L127.972 258.551H143.827C149.728 252.65 188.982 213.398 195.818 206.562L165.466 176.211L204.63 137.047L233.103 165.52H295.999V144.563L284.789 133.35ZM118.979 69.1692H110.657L104.526 63.0379V54.3434H118.979V69.1692ZM204.144 64.9281C204.144 54.6279 212.525 46.2496 222.825 46.2496C233.123 46.2496 241.504 54.6279 241.504 64.9281V94.32H216.059L204.147 82.4074V64.9281H204.144ZM140.237 249.879H131.565L125.418 243.732L150.724 218.425L161.207 228.908L140.237 249.879ZM264.204 156.848H236.696L204.63 124.782L159.335 170.079L146.695 157.44L140.564 163.571L183.555 206.562L167.338 222.777C163.447 218.886 160.746 216.183 156.855 212.294L162.587 206.562L126.551 170.527V147.083L170.609 103.024L180.355 112.773L186.489 106.641C182.426 102.581 153.407 73.5593 149.017 69.1692H127.651V54.3434H155.159L193.23 92.414L197.559 88.0848L205.023 95.5485L200.694 99.8777L242.838 142.022H264.204V156.848ZM287.329 156.848H272.876V142.022H281.198L287.329 148.154V156.848Z" fill="#231942"/>
<path d="M110.653 142.968H52.0315V155.109L63.244 166.319H110.653V157.648H66.8347L60.8276 151.64H110.653V142.968Z" fill="#231942"/>
<path d="M137.816 108.999H14.8032L8.79612 102.992H152.495V94.32H0V106.458L11.2125 117.671H137.816V108.999Z" fill="#231942"/>
<path d="M130.063 196.522L123.932 190.391L94.3431 219.979L83.8601 209.494L113.719 179.637L107.588 173.503C104.63 176.461 41.79 239.301 40.1618 240.929L54.9808 255.751H70.8364C71.7081 254.877 129.261 197.326 130.063 196.522V196.522ZM67.2434 247.079H58.5715L52.4244 240.929L77.7265 215.625L88.2118 226.11L67.2434 247.079Z" fill="black"/>
<path d="M60.2381 206.296H32.147L26.1399 200.289H74.9172V191.617H17.3438V203.755L28.5563 214.968H60.2381V206.296Z" fill="#231942"/>
<path d="M148.159 135.692L154.292 129.561L171.961 147.23L165.83 153.361L148.159 135.692Z" fill="black"/>
<path d="M138.703 145.148L144.834 139.014L162.506 156.685L156.372 162.817L138.703 145.148Z" fill="black"/>
<path d="M235.722 84.2028H227.05V64.9281C227.05 62.5975 225.153 60.7028 222.823 60.7028V52.0309C229.937 52.0309 235.722 57.8167 235.722 64.9281V84.2028Z" fill="white"/>
<path d="M177.93 143.307L171.799 137.176L180.924 128.048L187.058 134.179L177.93 143.307ZM191.146 130.092L185.014 123.96L191.146 117.829L197.277 123.96L191.146 130.092ZM201.367 119.873L195.233 113.739L201.364 107.608L207.498 113.739L201.367 119.873Z" fill="white"/>
</svg>
