<svg xmlns:v="http://schemas.microsoft.com/visio/2003/SVGExtensions/" xmlns="http://www.w3.org/2000/svg" width="570.736" height="166.62" viewBox="0 0 428.052 124.965" font-size="12" overflow="visible" color-interpolation-filters="sRGB" fill="none" fill-rule="evenodd" stroke-linecap="square" stroke-miterlimit="3"><v:documentProperties v:langID="3081" v:metric="true" v:viewMarkup="false"/><g v:mID="0" v:index="1" v:groupContext="foregroundPage" transform="translate(-.147 .791)"><v:pageProperties v:drawingScale=".039" v:pageScale=".039" v:drawingUnits="24" v:shadowOffsetX="8.504" v:shadowOffsetY="-8.504"/><path d="M29.966 33.342h-9.92" class="st1" stroke="#231942" stroke-width="10" stroke-linecap="round" stroke-linejoin="round" v:mID="50" v:groupContext="shape"/><path d="M235.478 33.342h-9.92" class="st1" stroke="#231942" stroke-width="10" stroke-linecap="round" stroke-linejoin="round" v:mID="51" v:groupContext="shape"/><path d="M112.167 61.69a28.346 28.346 0 0 1-28.348 28.347" class="st1" stroke="#231942" stroke-width="10" stroke-linecap="round" stroke-linejoin="round" v:mID="52" v:groupContext="shape"/><path d="M55.48 61.696a28.346 28.346 0 0 1 28.348-28.348" class="st1" stroke="#231942" stroke-width="10" stroke-linecap="round" stroke-linejoin="round" v:mID="53" v:groupContext="shape"/><path d="M112.166 61.692v28.35" class="st1" stroke="#231942" stroke-width="10" stroke-linecap="round" stroke-linejoin="round" v:mID="54" v:groupContext="shape"/><path d="M133.426 61.692v56.69" class="st1" stroke="#231942" stroke-width="10" stroke-linecap="round" stroke-linejoin="round" v:mID="55" v:groupContext="shape"/><path d="M161.773 33.35a28.346 28.346 0 0 1 28.348 28.347" class="st1" stroke="#231942" stroke-width="10" stroke-linecap="round" stroke-linejoin="round" v:mID="56" v:groupContext="shape"/><path d="M133.433 61.696a28.346 28.346 0 0 1 28.348-28.348" class="st1" stroke="#231942" stroke-width="10" stroke-linecap="round" stroke-linejoin="round" v:mID="57" v:groupContext="shape"/><path d="M5.868 5v56.69" class="st1" stroke="#231942" stroke-width="10" stroke-linecap="round" stroke-linejoin="round" v:mID="58" v:groupContext="shape"/><path d="M102.767 82.776a24.513 26.665 89.761 0 1-37.71.157" class="st1" stroke="#231942" stroke-width="10" stroke-linecap="round" stroke-linejoin="round" v:mID="59" v:groupContext="shape"/><path d="M183.154 43.083a24.513 26.413.178 0 1-.116 37.35" class="st1" stroke="#231942" stroke-width="10" stroke-linecap="round" stroke-linejoin="round" v:mID="60" v:groupContext="shape"/><path d="M34.22 90.036A28.346 28.346 0 0 1 5.872 61.688" class="st1" stroke="#231942" stroke-width="10" stroke-linecap="round" stroke-linejoin="round" v:mID="61" v:groupContext="shape"/><path d="M211.378 5v56.69" class="st1" stroke="#231942" stroke-width="10" stroke-linecap="round" stroke-linejoin="round" v:mID="62" v:groupContext="shape"/><path d="M239.732 90.036a28.346 28.346 0 0 1-28.348-28.348" class="st1" stroke="#231942" stroke-width="10" stroke-linecap="round" stroke-linejoin="round" v:mID="63" v:groupContext="shape"/><path d="M317.68 61.69A28.346 28.346 0 0 1 289.33 90.04" class="st1" stroke="#231942" stroke-width="10" stroke-linecap="round" stroke-linejoin="round" v:mID="64" v:groupContext="shape"/><path d="M317.677 33.347v28.35" class="st1" stroke="#231942" stroke-width="10" stroke-linecap="round" stroke-linejoin="round" v:mID="65" v:groupContext="shape"/><path d="M260.984 33.346v28.35" class="st1" stroke="#231942" stroke-width="10" stroke-linecap="round" stroke-linejoin="round" v:mID="66" v:groupContext="shape"/><path d="M308.356 82.949a24.513 26.665 89.761 0 1-37.71.157" class="st1" stroke="#231942" stroke-width="10" stroke-linecap="round" stroke-linejoin="round" v:mID="67" v:groupContext="shape"/><path d="M102.963 40.438a24.513 26.665-89.761 0 0-37.71-.157" class="st1" stroke="#231942" stroke-width="10.0001" stroke-linecap="round" stroke-linejoin="round" v:mID="68" v:groupContext="shape"/><g stroke="#231942" v:mID="1018" v:groupContext="shape"><path class="st2" d="M388.548 90.035A28.346 28.346 0 0 1 360.2 61.688M423.975 54.602a34.217 35.433 45 0 1-35.433 35.434M381.455 12.089a42.52 41.06 44.999 0 1 42.519 42.518M360.201 61.696a21.899 21.26 45 0 1 21.263-21.263" overflow="visible" stroke-width="7" stroke-linecap="round" stroke-linejoin="round"/><path class="st2" d="M381.454 40.435a15.965 21.899 51.115 0 1 14.175 17.577" stroke-width="7" stroke-linecap="round" stroke-linejoin="round"/></g><g stroke="#231942"><path class="st2" d="M381.458 26.263a28.347 28.347 0 0 1 28.348 28.348M346.03 61.696a35.433 34.217-45 0 1 35.434-35.433M388.55 104.21a39.692 42.52-45 0 1-42.517-42.518M409.805 54.603a21.26 21.899-45 0 1-21.263 21.263" overflow="visible" stroke-width="7" stroke-linecap="round" stroke-linejoin="round"/><path class="st2" d="M388.552 75.863a21.899 15.965-38.884 0 1-14.174-17.577" stroke-width="7" stroke-linecap="round" stroke-linejoin="round" v:groupContext="shape" v:mID="1023"/></g></g></svg>