<svg width="512" height="512" viewBox="0 0 512 512" fill="none" xmlns="http://www.w3.org/2000/svg">
<path d="M503.83 32.681V98.043L449.362 119.83L471.149 32.681H503.83Z" fill="#564A7E"/>
<path d="M471.149 32.681V119.83H305.021L326.809 32.681H471.149Z" fill="#6C5D9E"/>
<path d="M8.16998 32.681V98.043L40.851 119.83H326.809V32.681H8.16998Z" fill="#40375A"/>
<path d="M503.83 98.043V479.319H471.149L427.574 288.681L471.149 98.043H503.83Z" fill="#ABA5C4"/>
<path d="M471.149 98.043H8.16998V479.32H471.149V98.043Z" fill="#DFDBEE"/>
<path d="M503.83 24.511H8.17C3.657 24.511 0 28.169 0 32.681V479.319C0 483.831 3.657 487.489 8.17 487.489H503.83C508.343 487.489 512 483.831 512 479.319V392.17C512 387.658 508.343 384 503.83 384C499.317 384 495.66 387.658 495.66 392.17V471.149H16.34V106.213H495.66V359.49C495.66 364.002 499.317 367.66 503.83 367.66C508.343 367.66 512 364.002 512 359.49V32.681C512 28.169 508.343 24.511 503.83 24.511ZM16.34 40.851H318.638V89.872H16.34V40.851ZM334.979 89.872V40.851H495.66V89.872H334.979Z" fill="#231942"/>
<path d="M415.591 56.647C410.786 56.647 406.876 60.557 406.876 65.362C406.876 70.167 410.786 74.077 415.591 74.077C420.396 74.077 424.306 70.167 424.306 65.362C424.306 60.557 420.397 56.647 415.591 56.647Z" fill="#231942"/>
<path d="M370.928 56.647C366.123 56.647 362.213 60.557 362.213 65.362C362.213 70.167 366.123 74.077 370.928 74.077C375.733 74.077 379.643 70.167 379.643 65.362C379.643 60.557 375.733 56.647 370.928 56.647Z" fill="#231942"/>
<path d="M460.255 56.647C455.45 56.647 451.54 60.557 451.54 65.362C451.54 70.167 455.45 74.077 460.255 74.077C465.06 74.077 468.97 70.167 468.97 65.362C468.97 60.557 465.06 56.647 460.255 56.647Z" fill="#231942"/>
<path d="M141.745 185.548H98.171V229.122H141.745V185.548Z" fill="white"/>
<path d="M141.745 261.803H98.171V305.377H141.745V261.803Z" fill="white"/>
<path d="M140.574 269H97V312.574H140.574V269Z" fill="white"/>
<path d="M140.574 345.255H97V388.829H140.574V345.255Z" fill="white"/>
<path d="M148.916 183.545C148.916 179.032 145.258 175.375 140.746 175.375H97.171C92.659 175.375 89.001 179.032 89.001 183.545V227.119C89.001 231.632 92.659 235.289 97.171 235.289H140.745C145.257 235.289 148.915 231.632 148.915 227.119V183.545H148.916ZM132.575 218.949H105.341V191.715H132.575V218.949Z" fill="#231942"/>
<path d="M140.746 251.63H97.171C92.659 251.63 89.001 255.287 89.001 259.8V303.374C89.001 307.887 92.659 311.544 97.171 311.544H140.745C145.257 311.544 148.915 307.887 148.915 303.374V259.8C148.916 255.287 145.258 251.63 140.746 251.63ZM132.575 295.204H105.341V267.97H132.575V295.204Z" fill="#231942"/>
<path d="M399.482 197.162H366.801C362.289 197.162 358.631 200.819 358.631 205.332C358.631 209.845 362.289 213.502 366.801 213.502H399.482C403.994 213.502 407.652 209.845 407.652 205.332C407.652 200.819 403.994 197.162 399.482 197.162Z" fill="#231942"/>
<path d="M334.12 197.162H173.426C168.914 197.162 165.256 200.819 165.256 205.332C165.256 209.845 168.914 213.502 173.426 213.502H334.121C338.633 213.502 342.291 209.845 342.291 205.332C342.292 200.819 338.632 197.162 334.12 197.162Z" fill="#231942"/>
<path d="M399.482 273.417H366.801C362.289 273.417 358.631 277.074 358.631 281.587C358.631 286.1 362.289 289.757 366.801 289.757H399.482C403.994 289.757 407.652 286.1 407.652 281.587C407.652 277.074 403.994 273.417 399.482 273.417Z" fill="#231942"/>
<path d="M334.12 273.417H173.426C168.914 273.417 165.256 277.074 165.256 281.587C165.256 286.1 168.914 289.757 173.426 289.757H334.121C338.633 289.757 342.291 286.1 342.291 281.587C342.292 277.074 338.632 273.417 334.12 273.417Z" fill="#231942"/>
<path d="M140.745 329H97.17C92.658 329 89 332.657 89 337.17V380.744C89 385.257 92.658 388.914 97.17 388.914H140.744C145.256 388.914 148.914 385.257 148.914 380.744V337.17C148.915 332.657 145.257 329 140.745 329ZM132.574 372.574H105.34V345.34H132.574V372.574Z" fill="#231942"/>
<path d="M399.481 350.787H366.8C362.288 350.787 358.63 354.444 358.63 358.957C358.63 363.47 362.288 367.127 366.8 367.127H399.481C403.993 367.127 407.651 363.47 407.651 358.957C407.651 354.444 403.993 350.787 399.481 350.787Z" fill="#231942"/>
<path d="M334.119 350.787H173.425C168.913 350.787 165.255 354.444 165.255 358.957C165.255 363.47 168.913 367.127 173.425 367.127H334.12C338.632 367.127 342.29 363.47 342.29 358.957C342.291 354.444 338.631 350.787 334.119 350.787Z" fill="#231942"/>
</svg>
