<svg width="512" height="512" viewBox="0 0 512 512" fill="none" xmlns="http://www.w3.org/2000/svg">
<path d="M503.83 32.681V98.043L449.362 119.83L471.149 32.681H503.83Z" fill="#564A7E"/>
<path d="M471.149 32.681V119.83H305.021L326.809 32.681H471.149Z" fill="#6C5D9E"/>
<path d="M8.17 32.681V98.043L40.851 119.83H326.809V32.681H8.17Z" fill="#40375A"/>
<path d="M503.83 98.043V479.319H471.149L427.574 288.681L471.149 98.043H503.83Z" fill="#ABA5C4"/>
<path d="M471.149 98.043H8.17V479.32H471.149V98.043Z" fill="#DFDBEE"/>
<path d="M297.864 273H137.17C132.658 273 129 276.657 129 281.17C129 285.683 132.658 289.34 137.17 289.34H297.865C302.377 289.34 306.035 285.683 306.035 281.17C306.036 276.657 302.376 273 297.864 273Z" fill="#231942"/>
<path d="M333.851 273H301.17C296.658 273 293 276.657 293 281.17C293 285.683 296.658 289.34 301.17 289.34H333.851C338.363 289.34 342.021 285.683 342.021 281.17C342.021 276.657 338.363 273 333.851 273Z" fill="#231942"/>
<path d="M136.851 273H104.17C99.658 273 96 276.657 96 281.17C96 285.683 99.658 289.34 104.17 289.34H136.851C141.363 289.34 145.021 285.683 145.021 281.17C145.021 276.657 141.363 273 136.851 273Z" fill="#231942"/>
<path d="M297.864 351H137.17C132.658 351 129 354.657 129 359.17C129 363.683 132.658 367.34 137.17 367.34H297.865C302.377 367.34 306.035 363.683 306.035 359.17C306.036 354.657 302.376 351 297.864 351Z" fill="#231942"/>
<path d="M333.851 351H301.17C296.658 351 293 354.657 293 359.17C293 363.683 296.658 367.34 301.17 367.34H333.851C338.363 367.34 342.021 363.683 342.021 359.17C342.021 354.657 338.363 351 333.851 351Z" fill="#231942"/>
<path d="M136.851 351H104.17C99.658 351 96 354.657 96 359.17C96 363.683 99.658 367.34 104.17 367.34H136.851C141.363 367.34 145.021 363.683 145.021 359.17C145.021 354.657 141.363 351 136.851 351Z" fill="#231942"/>
<path d="M503.83 24.511H8.17C3.657 24.511 0 28.169 0 32.681V479.319C0 483.831 3.657 487.489 8.17 487.489H503.83C508.343 487.489 512 483.831 512 479.319V392.17C512 387.658 508.343 384 503.83 384C499.317 384 495.66 387.658 495.66 392.17V471.149H16.34V106.213H495.66V359.49C495.66 364.002 499.317 367.66 503.83 367.66C508.343 367.66 512 364.002 512 359.49V32.681C512 28.169 508.343 24.511 503.83 24.511ZM16.34 40.851H318.638V89.872H16.34V40.851ZM334.979 89.872V40.851H495.66V89.872H334.979Z" fill="#231942"/>
<path d="M415.591 56.647C410.786 56.647 406.876 60.557 406.876 65.362C406.876 70.167 410.786 74.077 415.591 74.077C420.396 74.077 424.306 70.167 424.306 65.362C424.306 60.557 420.397 56.647 415.591 56.647Z" fill="#231942"/>
<path d="M370.928 56.647C366.123 56.647 362.213 60.557 362.213 65.362C362.213 70.167 366.123 74.077 370.928 74.077C375.733 74.077 379.643 70.167 379.643 65.362C379.643 60.557 375.733 56.647 370.928 56.647Z" fill="#231942"/>
<path d="M460.255 56.647C455.45 56.647 451.54 60.557 451.54 65.362C451.54 70.167 455.45 74.077 460.255 74.077C465.06 74.077 468.97 70.167 468.97 65.362C468.97 60.557 465.06 56.647 460.255 56.647Z" fill="#231942"/>
<path d="M399.482 197.162H366.801C362.289 197.162 358.631 200.819 358.631 205.332C358.631 209.845 362.289 213.502 366.801 213.502H399.482C403.994 213.502 407.652 209.845 407.652 205.332C407.652 200.819 403.994 197.162 399.482 197.162Z" fill="#231942"/>
<path d="M330.646 197H107.353C101.083 197 96 200.805 96 205.5C96 210.195 101.083 214 107.353 214H330.647C336.917 214 342 210.195 342 205.5C342.001 200.805 336.916 197 330.646 197Z" fill="#231942"/>
<path d="M297.864 198H137.17C132.658 198 129 201.657 129 206.17C129 210.683 132.658 214.34 137.17 214.34H297.865C302.377 214.34 306.035 210.683 306.035 206.17C306.036 201.657 302.376 198 297.864 198Z" fill="#231942"/>
<path d="M333.851 198H301.17C296.658 198 293 201.657 293 206.17C293 210.683 296.658 214.34 301.17 214.34H333.851C338.363 214.34 342.021 210.683 342.021 206.17C342.021 201.657 338.363 198 333.851 198Z" fill="#231942"/>
<path d="M136.851 198H104.17C99.658 198 96 201.657 96 206.17C96 210.683 99.658 214.34 104.17 214.34H136.851C141.363 214.34 145.021 210.683 145.021 206.17C145.021 201.657 141.363 198 136.851 198Z" fill="#231942"/>
<path d="M399.482 273.417H366.801C362.289 273.417 358.631 277.074 358.631 281.587C358.631 286.1 362.289 289.757 366.801 289.757H399.482C403.994 289.757 407.652 286.1 407.652 281.587C407.652 277.074 403.994 273.417 399.482 273.417Z" fill="#231942"/>
<path d="M399.481 350.787H366.8C362.288 350.787 358.63 354.444 358.63 358.957C358.63 363.47 362.288 367.127 366.8 367.127H399.481C403.993 367.127 407.651 363.47 407.651 358.957C407.651 354.444 403.993 350.787 399.481 350.787Z" fill="#231942"/>
<path d="M330.646 351H107.353C101.083 351 96 354.581 96 359C96 363.419 101.083 367 107.353 367H330.647C336.917 367 342 363.419 342 359C342.001 354.581 336.916 351 330.646 351Z" fill="#231942"/>
</svg>
