<svg width="512" height="512" viewBox="0 0 512 512" fill="none" xmlns="http://www.w3.org/2000/svg">
<path d="M503.83 32.681V98.043L449.362 119.83L471.149 32.681H503.83Z" fill="#564A7E"/>
<path d="M471.149 32.681V119.83H305.021L326.809 32.681H471.149Z" fill="#6C5D9E"/>
<path d="M8.16998 32.681V98.043L40.851 119.83H326.809V32.681H8.16998Z" fill="#40375A"/>
<path d="M503.83 98.043V479.319H471.149L427.574 288.681L471.149 98.043H503.83Z" fill="#ABA5C4"/>
<path d="M471.149 98.043H8.16998V479.32H471.149V98.043Z" fill="#DFDBEE"/>
<mask id="path-6-inside-1" fill="white">
<rect x="99" y="161" width="317" height="245" rx="11"/>
</mask>
<rect x="99" y="161" width="317" height="245" rx="11" fill="white" stroke="#231942" stroke-width="34" mask="url(#path-6-inside-1)"/>
<path d="M503.83 24.511H8.17C3.657 24.511 0 28.169 0 32.681V479.319C0 483.831 3.657 487.489 8.17 487.489H503.83C508.343 487.489 512 483.831 512 479.319V392.17C512 387.658 508.343 384 503.83 384C499.317 384 495.66 387.658 495.66 392.17V471.149H16.34V106.213H495.66V359.49C495.66 364.002 499.317 367.66 503.83 367.66C508.343 367.66 512 364.002 512 359.49V32.681C512 28.169 508.343 24.511 503.83 24.511ZM16.34 40.851H318.638V89.872H16.34V40.851ZM334.979 89.872V40.851H495.66V89.872H334.979Z" fill="#231942"/>
<path d="M415.591 56.647C410.786 56.647 406.876 60.557 406.876 65.362C406.876 70.167 410.786 74.077 415.591 74.077C420.396 74.077 424.306 70.167 424.306 65.362C424.306 60.557 420.397 56.647 415.591 56.647Z" fill="#231942"/>
<path d="M370.928 56.647C366.123 56.647 362.213 60.557 362.213 65.362C362.213 70.167 366.123 74.077 370.928 74.077C375.733 74.077 379.643 70.167 379.643 65.362C379.643 60.557 375.733 56.647 370.928 56.647Z" fill="#231942"/>
<path d="M460.255 56.647C455.45 56.647 451.54 60.557 451.54 65.362C451.54 70.167 455.45 74.077 460.255 74.077C465.06 74.077 468.97 70.167 468.97 65.362C468.97 60.557 465.06 56.647 460.255 56.647Z" fill="#231942"/>
<path d="M221.101 237.605C210.958 235.344 200.867 241.756 198.605 251.899C196.344 262.042 202.756 272.133 212.899 274.394C223.042 276.655 233.133 270.244 235.394 260.101C237.656 249.958 231.244 239.867 221.101 237.605ZM214.539 267.036C208.453 265.679 204.606 259.625 205.963 253.539C207.32 247.453 213.375 243.606 219.46 244.963C225.546 246.32 229.393 252.374 228.036 258.46C226.68 264.546 220.625 268.393 214.539 267.036Z" fill="#ABA5C4"/>
<path d="M250.06 248.391L260.698 241.631C262.252 240.645 262.865 238.68 262.149 236.984C260.013 231.923 257.067 227.287 253.393 223.204C252.162 221.835 250.123 221.556 248.57 222.543L237.932 229.302C236.989 228.561 236.01 227.871 234.998 227.237L237.74 214.936C238.141 213.139 237.185 211.316 235.48 210.623C232.92 209.584 230.29 208.76 227.663 208.174C225.035 207.588 222.304 207.217 219.546 207.071C217.707 206.973 216.068 208.218 215.667 210.014L212.924 222.316C211.739 222.46 210.56 222.668 209.391 222.939L202.632 212.301C201.645 210.748 199.681 210.135 197.985 210.85C192.924 212.986 188.288 215.932 184.204 219.606C182.836 220.837 182.557 222.876 183.544 224.429L190.303 235.067C189.561 236.01 188.872 236.989 188.238 238.001L175.936 235.259C174.139 234.858 172.316 235.814 171.624 237.519C170.584 240.079 169.76 242.71 169.174 245.337C168.589 247.964 168.217 250.695 168.071 253.454C167.973 255.292 169.218 256.932 171.015 257.332L183.316 260.075C183.461 261.261 183.668 262.44 183.94 263.609L173.302 270.368C171.748 271.355 171.135 273.319 171.851 275.015C173.987 280.076 176.933 284.712 180.607 288.796C181.838 290.164 183.877 290.443 185.43 289.456L196.068 282.697C197.011 283.439 197.99 284.128 199.002 284.763L196.26 297.064C195.859 298.861 196.815 300.684 198.52 301.377C201.08 302.416 203.71 303.24 206.337 303.826C208.965 304.412 211.696 304.783 214.454 304.929C216.293 305.027 217.932 303.782 218.333 301.986L221.076 289.684C222.261 289.539 223.44 289.332 224.609 289.06L231.368 299.698C232.355 301.252 234.32 301.865 236.015 301.149C241.076 299.013 245.713 296.067 249.796 292.393C251.164 291.162 251.443 289.123 250.457 287.57L243.698 276.932C244.439 275.989 245.129 275.01 245.763 273.998L258.065 276.74C259.862 277.141 261.685 276.185 262.377 274.48C263.416 271.92 264.241 269.29 264.826 266.663C265.412 264.035 265.784 261.304 265.93 258.546C266.027 256.708 264.783 255.068 262.986 254.667L250.684 251.924C250.539 250.739 250.331 249.559 250.06 248.391V248.391ZM257.468 265.022C257.197 266.236 256.865 267.453 256.476 268.663L244.683 266.033C243.005 265.659 241.285 266.468 240.505 268.001C239.393 270.182 237.968 272.207 236.269 274.02C235.093 275.275 234.915 277.167 235.838 278.619L242.319 288.819C240.323 290.357 238.196 291.709 235.956 292.862L229.475 282.662C228.553 281.21 226.765 280.567 225.129 281.099C222.765 281.867 220.326 282.297 217.88 282.377C216.161 282.433 214.698 283.645 214.324 285.324L211.695 297.116C209.175 296.795 206.755 296.255 204.337 295.476L206.966 283.683C207.34 282.005 206.531 280.285 204.998 279.505C202.817 278.394 200.792 276.968 198.979 275.269C197.724 274.093 195.832 273.915 194.38 274.838L184.181 281.318C182.642 279.323 181.291 277.197 180.138 274.956L190.337 268.475C191.789 267.553 192.432 265.765 191.9 264.129C191.132 261.765 190.702 259.326 190.622 256.88C190.566 255.162 189.354 253.698 187.675 253.324L175.883 250.695C176.044 249.435 176.261 248.192 176.532 246.978C176.803 245.763 177.134 244.546 177.524 243.337L189.316 245.966C190.994 246.34 192.713 245.531 193.494 243.999C194.605 241.818 196.031 239.793 197.73 237.98C198.907 236.725 199.084 234.833 198.162 233.381L191.681 223.181C193.677 221.643 195.803 220.292 198.044 219.139L204.524 229.338C205.447 230.79 207.235 231.433 208.871 230.901C211.235 230.133 213.674 229.703 216.119 229.623C217.838 229.567 219.301 228.355 219.675 226.676L222.304 214.883C224.824 215.205 227.244 215.745 229.662 216.524L227.033 228.316C226.659 229.995 227.468 231.714 229.001 232.495C231.181 233.605 233.207 235.031 235.02 236.731C236.275 237.907 238.167 238.084 239.619 237.162L249.818 230.681C251.357 232.676 252.708 234.804 253.861 237.044L243.662 243.525C242.21 244.447 241.567 246.236 242.098 247.872C242.866 250.235 243.296 252.674 243.376 255.12C243.432 256.838 244.644 258.302 246.323 258.676L258.115 261.305C257.955 262.565 257.738 263.807 257.468 265.022Z" fill="#ABA5C4"/>
<path d="M306.077 289.533C296.446 285.63 285.436 290.291 281.533 299.922C277.631 309.554 282.291 320.564 291.923 324.466C301.554 328.369 312.564 323.708 316.467 314.077C320.369 304.445 315.708 293.435 306.077 289.533ZM294.754 317.48C288.975 315.138 286.178 308.532 288.52 302.753C290.861 296.974 297.467 294.178 303.246 296.52C309.025 298.861 311.821 305.467 309.48 311.246C307.138 317.025 300.533 319.821 294.754 317.48Z" fill="#ABA5C4"/>
<path d="M332.862 304.944L344.469 300.031C346.164 299.314 347.092 297.477 346.666 295.687C345.394 290.343 343.252 285.284 340.301 280.651C339.313 279.099 337.347 278.488 335.653 279.205L324.047 284.118C323.238 283.231 322.386 282.39 321.493 281.597L326.226 269.916C326.917 268.21 326.275 266.254 324.707 265.29C322.354 263.843 319.895 262.597 317.4 261.586C314.906 260.575 312.273 259.759 309.576 259.16C307.779 258.76 305.957 259.717 305.266 261.424L300.533 273.104C299.34 273.052 298.142 273.063 296.945 273.137L292.032 261.531C291.314 259.836 289.478 258.907 287.688 259.333C282.344 260.606 277.285 262.747 272.652 265.698C271.099 266.686 270.488 268.652 271.206 270.346L276.119 281.953C275.232 282.761 274.391 283.613 273.598 284.506L261.917 279.773C260.211 279.082 258.255 279.724 257.291 281.292C255.843 283.646 254.597 286.104 253.586 288.599C252.576 291.093 251.759 293.726 251.16 296.423C250.761 298.22 251.718 300.043 253.424 300.734L265.105 305.467C265.052 306.66 265.063 307.857 265.138 309.055L253.531 313.968C251.836 314.685 250.908 316.522 251.334 318.313C252.607 323.656 254.748 328.715 257.699 333.348C258.687 334.901 260.652 335.511 262.347 334.794L273.954 329.881C274.761 330.768 275.614 331.61 276.507 332.402L271.774 344.084C271.083 345.79 271.725 347.746 273.293 348.71C275.647 350.156 278.105 351.403 280.6 352.414C283.094 353.425 285.727 354.241 288.424 354.84C290.221 355.239 292.043 354.282 292.734 352.576L297.467 340.895C298.661 340.948 299.858 340.937 301.056 340.862L305.969 352.469C306.686 354.164 308.522 355.092 310.313 354.666C315.657 353.393 320.715 351.252 325.349 348.301C326.901 347.312 327.512 345.347 326.795 343.653L321.882 332.046C322.769 331.239 323.61 330.386 324.403 329.493L336.084 334.226C337.79 334.917 339.746 334.275 340.71 332.707C342.157 330.353 343.404 327.895 344.414 325.4C345.425 322.906 346.242 320.273 346.841 317.576C347.24 315.78 346.283 313.957 344.577 313.266L332.895 308.533C332.947 307.339 332.937 306.142 332.862 304.944V304.944ZM337.427 322.569C336.96 323.723 336.432 324.868 335.848 325.997L324.65 321.459C323.057 320.814 321.227 321.328 320.205 322.712C318.749 324.68 317.01 326.442 315.035 327.95C313.668 328.994 313.181 330.831 313.852 332.415L318.562 343.543C316.341 344.732 314.02 345.714 311.62 346.482L306.909 335.354C306.239 333.77 304.581 332.841 302.88 333.095C300.422 333.464 297.945 333.486 295.52 333.161C293.815 332.933 292.172 333.888 291.527 335.482L286.989 346.679C284.557 345.947 282.259 345.015 280.003 343.848L284.54 332.651C285.186 331.057 284.671 329.227 283.288 328.205C281.32 326.749 279.557 325.01 278.05 323.035C277.005 321.668 275.168 321.181 273.584 321.852L262.456 326.562C261.267 324.34 260.285 322.02 259.518 319.62L270.646 314.909C272.229 314.239 273.159 312.581 272.904 310.88C272.536 308.422 272.514 305.945 272.838 303.52C273.066 301.816 272.112 300.172 270.518 299.527L259.32 294.99C259.687 293.773 260.106 292.584 260.573 291.43C261.04 290.277 261.568 289.131 262.151 288.003L273.349 292.54C274.943 293.186 276.771 292.671 277.794 291.288C279.25 289.321 280.989 287.558 282.965 286.05C284.332 285.006 284.818 283.169 284.148 281.585L279.437 270.457C281.659 269.268 283.979 268.286 286.379 267.518L291.09 278.646C291.761 280.23 293.419 281.16 295.119 280.905C297.577 280.536 300.054 280.514 302.479 280.839C304.184 281.067 305.827 280.112 306.472 278.518L311.01 267.32C313.442 268.053 315.74 268.984 317.996 270.151L313.459 281.349C312.813 282.943 313.328 284.772 314.711 285.794C316.679 287.249 318.442 288.989 319.95 290.965C320.994 292.331 322.831 292.819 324.415 292.148L335.543 287.437C336.732 289.659 337.714 291.98 338.481 294.379L327.353 299.09C325.769 299.761 324.84 301.419 325.095 303.12C325.463 305.578 325.485 308.054 325.16 310.48C324.932 312.184 325.887 313.827 327.481 314.473L338.679 319.01C338.313 320.226 337.894 321.416 337.427 322.569Z" fill="#ABA5C4"/>
</svg>
