<svg width="512" height="512" viewBox="0 0 512 512" fill="none" xmlns="http://www.w3.org/2000/svg">
<path d="M503.83 32.681V98.043L449.362 119.83L471.149 32.681H503.83Z" fill="#564A7E"/>
<path d="M471.149 32.681V119.83H305.021L326.809 32.681H471.149Z" fill="#6C5D9E"/>
<path d="M8.17 32.681V98.043L40.851 119.83H326.809V32.681H8.17Z" fill="#40375A"/>
<path d="M503.83 98.043V479.319H471.149L427.574 288.681L471.149 98.043H503.83Z" fill="#ABA5C4"/>
<path d="M471.149 98.043H8.17V479.32H471.149V98.043Z" fill="#DFDBEE"/>
<path d="M297.864 351H137.17C132.658 351 129 354.657 129 359.17C129 363.683 132.658 367.34 137.17 367.34H297.865C302.377 367.34 306.035 363.683 306.035 359.17C306.036 354.657 302.376 351 297.864 351Z" fill="#231942"/>
<path d="M399.482 197.162H366.801C362.289 197.162 358.631 200.819 358.631 205.332C358.631 209.845 362.289 213.502 366.801 213.502H399.482C403.994 213.502 407.652 209.845 407.652 205.332C407.652 200.819 403.994 197.162 399.482 197.162Z" fill="#231942"/>
<path d="M333.851 197H301.17C296.658 197 293 200.657 293 205.17C293 209.683 296.658 213.34 301.17 213.34H333.851C338.363 213.34 342.021 209.683 342.021 205.17C342.021 200.657 338.363 197 333.851 197Z" fill="#231942"/>
<path d="M292.851 197H260.17C255.658 197 252 200.657 252 205.17C252 209.683 255.658 213.34 260.17 213.34H292.851C297.363 213.34 301.021 209.683 301.021 205.17C301.021 200.657 297.363 197 292.851 197Z" fill="#231942"/>
<path d="M333.851 274H301.17C296.658 274 293 277.657 293 282.17C293 286.683 296.658 290.34 301.17 290.34H333.851C338.363 290.34 342.021 286.683 342.021 282.17C342.021 277.657 338.363 274 333.851 274Z" fill="#231942"/>
<path d="M333.851 351H301.17C296.658 351 293 354.657 293 359.17C293 363.683 296.658 367.34 301.17 367.34H333.851C338.363 367.34 342.021 363.683 342.021 359.17C342.021 354.657 338.363 351 333.851 351Z" fill="#231942"/>
<path d="M136.851 351H104.17C99.658 351 96 354.657 96 359.17C96 363.683 99.658 367.34 104.17 367.34H136.851C141.363 367.34 145.021 363.683 145.021 359.17C145.021 354.657 141.363 351 136.851 351Z" fill="#231942"/>
<path d="M292.851 274H260.17C255.658 274 252 277.657 252 282.17C252 286.683 255.658 290.34 260.17 290.34H292.851C297.363 290.34 301.021 286.683 301.021 282.17C301.021 277.657 297.363 274 292.851 274Z" fill="#231942"/>
<path d="M301.851 197H269.17C264.658 197 261 200.657 261 205.17C261 209.683 264.658 213.34 269.17 213.34H301.851C306.363 213.34 310.021 209.683 310.021 205.17C310.021 200.657 306.363 197 301.851 197Z" fill="#231942"/>
<path d="M301.851 274H269.17C264.658 274 261 277.657 261 282.17C261 286.683 264.658 290.34 269.17 290.34H301.851C306.363 290.34 310.021 286.683 310.021 282.17C310.021 277.657 306.363 274 301.851 274Z" fill="#231942"/>
<path d="M399.482 273.417H366.801C362.289 273.417 358.631 277.074 358.631 281.587C358.631 286.1 362.289 289.757 366.801 289.757H399.482C403.994 289.757 407.652 286.1 407.652 281.587C407.652 277.074 403.994 273.417 399.482 273.417Z" fill="#231942"/>
<path d="M399.481 350.787H366.8C362.288 350.787 358.63 354.444 358.63 358.957C358.63 363.47 362.288 367.127 366.8 367.127H399.481C403.993 367.127 407.651 363.47 407.651 358.957C407.651 354.444 403.993 350.787 399.481 350.787Z" fill="#231942"/>
<path d="M503.83 24.511H8.17C3.657 24.511 0 28.169 0 32.681V479.319C0 483.831 3.657 487.489 8.17 487.489H503.83C508.343 487.489 512 483.831 512 479.319V392.17C512 387.658 508.343 384 503.83 384C499.317 384 495.66 387.658 495.66 392.17V471.149H16.34V106.213H495.66V359.49C495.66 364.002 499.317 367.66 503.83 367.66C508.343 367.66 512 364.002 512 359.49V32.681C512 28.169 508.343 24.511 503.83 24.511ZM16.34 40.851H318.638V89.872H16.34V40.851ZM334.979 89.872V40.851H495.66V89.872H334.979Z" fill="#231942"/>
<path d="M415.591 56.647C410.786 56.647 406.876 60.557 406.876 65.362C406.876 70.167 410.786 74.077 415.591 74.077C420.396 74.077 424.306 70.167 424.306 65.362C424.306 60.557 420.397 56.647 415.591 56.647Z" fill="#231942"/>
<path d="M370.928 56.647C366.123 56.647 362.213 60.557 362.213 65.362C362.213 70.167 366.123 74.077 370.928 74.077C375.733 74.077 379.643 70.167 379.643 65.362C379.643 60.557 375.733 56.647 370.928 56.647Z" fill="#231942"/>
<path d="M460.255 56.647C455.45 56.647 451.54 60.557 451.54 65.362C451.54 70.167 455.45 74.077 460.255 74.077C465.06 74.077 468.97 70.167 468.97 65.362C468.97 60.557 465.06 56.647 460.255 56.647Z" fill="#231942"/>
<mask id="path-22-inside-1" fill="white">
<rect x="96" y="183" width="135" height="124" rx="11"/>
</mask>
<rect x="96" y="183" width="135" height="124" rx="11" fill="white" stroke="#231942" stroke-width="34" mask="url(#path-22-inside-1)"/>
<path d="M165.95 232.055C159.153 230.57 152.39 234.782 150.874 241.445C149.359 248.108 153.656 254.737 160.453 256.222C167.251 257.708 174.014 253.496 175.529 246.833C177.045 240.17 172.748 233.541 165.95 232.055ZM161.553 251.389C157.474 250.498 154.896 246.52 155.805 242.523C156.715 238.525 160.772 235.998 164.851 236.889C168.929 237.78 171.508 241.757 170.598 245.755C169.689 249.753 165.631 252.28 161.553 251.389Z" fill="#ABA5C4" stroke="#ABA5C4" stroke-width="0.5"/>
<path d="M185.358 239.14L192.487 234.7C193.528 234.052 193.939 232.762 193.459 231.648C192.028 228.323 190.053 225.277 187.591 222.595C186.766 221.696 185.4 221.513 184.359 222.161L177.23 226.601C176.598 226.114 175.942 225.661 175.263 225.244L177.101 217.164C177.37 215.983 176.729 214.786 175.586 214.331C173.871 213.648 172.108 213.107 170.348 212.722C168.587 212.337 166.757 212.093 164.908 211.997C163.676 211.933 162.577 212.751 162.309 213.931L160.471 222.012C159.676 222.107 158.886 222.243 158.102 222.421L153.573 215.433C152.911 214.413 151.595 214.01 150.459 214.48C147.067 215.883 143.96 217.818 141.223 220.232C140.306 221.04 140.119 222.38 140.781 223.4L145.31 230.388C144.813 231.008 144.351 231.651 143.926 232.316L135.682 230.514C134.478 230.251 133.256 230.879 132.792 231.999C132.095 233.681 131.543 235.409 131.151 237.134C130.758 238.86 130.509 240.654 130.411 242.467C130.346 243.674 131.18 244.751 132.384 245.014L140.628 246.816C140.725 247.595 140.864 248.37 141.046 249.137L133.917 253.578C132.876 254.226 132.465 255.516 132.944 256.63C134.376 259.955 136.35 263 138.812 265.683C139.637 266.582 141.004 266.765 142.045 266.117L149.174 261.677C149.806 262.164 150.462 262.617 151.14 263.033L149.302 271.115C149.034 272.295 149.675 273.493 150.817 273.947C152.533 274.63 154.295 275.171 156.056 275.556C157.817 275.941 159.647 276.185 161.496 276.281C162.728 276.345 163.827 275.528 164.095 274.347L165.933 266.266C166.728 266.171 167.518 266.035 168.301 265.857L172.831 272.845C173.492 273.865 174.809 274.268 175.945 273.798C179.337 272.395 182.444 270.459 185.181 268.046C186.098 267.237 186.285 265.898 185.623 264.877L181.094 257.889C181.591 257.27 182.053 256.627 182.478 255.962L190.722 257.764C191.926 258.027 193.148 257.399 193.612 256.279C194.309 254.597 194.861 252.869 195.254 251.143C195.646 249.418 195.895 247.624 195.993 245.811C196.059 244.604 195.224 243.527 194.02 243.264L185.776 241.462C185.679 240.683 185.539 239.908 185.358 239.14V239.14ZM190.322 250.066C190.141 250.864 189.918 251.663 189.657 252.457L181.754 250.73C180.629 250.484 179.477 251.016 178.954 252.023C178.209 253.456 177.254 254.786 176.115 255.977C175.327 256.801 175.208 258.044 175.826 258.998L180.17 265.698C178.832 266.709 177.407 267.597 175.905 268.354L171.562 261.654C170.944 260.7 169.746 260.277 168.649 260.627C167.065 261.132 165.431 261.414 163.792 261.466C162.64 261.503 161.659 262.3 161.408 263.402L159.646 271.149C157.958 270.937 156.336 270.583 154.715 270.071L156.477 262.325C156.728 261.222 156.186 260.092 155.159 259.58C153.697 258.85 152.34 257.913 151.125 256.797C150.284 256.025 149.016 255.908 148.043 256.514L141.207 260.771C140.176 259.46 139.271 258.063 138.498 256.592L145.333 252.334C146.306 251.728 146.737 250.554 146.381 249.479C145.866 247.926 145.578 246.324 145.524 244.718C145.487 243.588 144.674 242.627 143.549 242.381L135.647 240.654C135.755 239.826 135.9 239.01 136.081 238.212C136.263 237.415 136.485 236.615 136.746 235.821L144.649 237.548C145.774 237.794 146.926 237.262 147.449 236.256C148.194 234.823 149.149 233.493 150.288 232.302C151.076 231.477 151.195 230.234 150.577 229.281L146.234 222.58C147.571 221.57 148.996 220.682 150.498 219.925L154.841 226.625C155.459 227.578 156.658 228.001 157.754 227.652C159.338 227.147 160.973 226.865 162.612 226.812C163.764 226.775 164.744 225.979 164.995 224.876L166.757 217.129C168.445 217.341 170.067 217.695 171.688 218.207L169.926 225.953C169.675 227.056 170.217 228.186 171.245 228.698C172.706 229.428 174.063 230.364 175.278 231.481C176.119 232.253 177.387 232.37 178.36 231.764L185.196 227.507C186.227 228.818 187.132 230.215 187.905 231.687L181.07 235.944C180.097 236.55 179.666 237.725 180.022 238.8C180.537 240.352 180.825 241.954 180.878 243.561C180.916 244.69 181.728 245.651 182.853 245.897L190.756 247.624C190.649 248.452 190.503 249.268 190.322 250.066Z" fill="#ABA5C4" stroke="#ABA5C4" stroke-width="0.5"/>
</svg>
