 <svg width="180" height="180" viewBox="0 0 180 180" fill="none" xmlns="http://www.w3.org/2000/svg">
          <path d="M115.463 30.5312H124.01V39.0781H115.463V30.5312Z" fill="black" stroke="white" stroke-width="3" />
          <path d="M132.367 30.5312H140.914V39.0781H132.367V30.5312Z" fill="black" stroke="white" stroke-width="3" />
          <path d="M149.096 30.5312H157.643V39.0781H149.096V30.5312Z" fill="black" stroke="white" stroke-width="3" />
          <path
            d="M170.453 22.8516V21.8516H169.453H10.5469H9.54688V22.8516V46.6699V47.6699H10.5469H169.453H170.453V46.6699V22.8516ZM9.54688 157.148V158.148H10.5469H169.453H170.453V157.148V57.2168V56.2168H169.453H10.5469H9.54688V57.2168V157.148ZM1 166.695V13.3047H179V166.695H1Z"
            fill="black"
            stroke="white"
            stroke-width="3"
          />
          <path
            d="M108.942 84.0631H71.191L56.0938 98.9232L90.0662 139L124.039 98.9232L108.942 84.0631ZM96.4867 101.1L90.079 127.259L83.6709 101.1H96.4867ZM84.9889 96.9985L90.0828 89.6979L95.1772 96.9985H84.9889ZM94.015 88.1652H104.203L99.1089 95.4652L94.015 88.1652ZM81.0572 95.4652L75.9628 88.1652H86.151L81.0572 95.4652ZM77.1249 96.9985H63.8969L71.739 89.2792L77.1249 96.9985ZM79.4476 101.1L86.0036 127.864L63.3169 101.1H79.4476ZM100.71 101.1H116.816L94.164 127.822L100.71 101.1ZM103.041 96.9985L108.414 89.299L116.236 96.9985H103.041Z"
            fill="black"
          />
          <path d="M87.7324 69H91.834V77.5H87.7324V69Z" fill="black" />
          <path d="M98.1035 77.6832L101.43 69.7151L105.215 71.2954L101.889 79.263L98.1035 77.6832Z" fill="black" />
          <path d="M74.3516 71.2943L78.137 69.7146L81.4631 77.6822L77.6777 79.2619L74.3516 71.2943Z" fill="black" />
        </svg>