<svg width="180" height="180" viewBox="0 0 180 180" fill="none" xmlns="http://www.w3.org/2000/svg">
          <path d="M115.463 30.5312H124.01V39.0781H115.463V30.5312Z" fill="black" stroke="white" stroke-width="3" />
          <path d="M132.367 30.5312H140.914V39.0781H132.367V30.5312Z" fill="black" stroke="white" stroke-width="3" />
          <path d="M149.096 30.5312H157.643V39.0781H149.096V30.5312Z" fill="black" stroke="white" stroke-width="3" />
          <path
            d="M170.453 22.8516V21.8516H169.453H10.5469H9.54688V22.8516V46.6699V47.6699H10.5469H169.453H170.453V46.6699V22.8516ZM9.54688 157.148V158.148H10.5469H169.453H170.453V157.148V57.2168V56.2168H169.453H10.5469H9.54688V57.2168V157.148ZM1 166.695V13.3047H179V166.695H1Z"
            fill="black"
            stroke="white"
            stroke-width="3"
          />
          <g clip-path="url(#clip0)">
            <path
              d="M120.028 134.766H112.902V125.995C112.902 118.067 108.915 110.803 102.469 106.52C108.915 102.236 112.902 94.9725 112.902 87.0443V78.273H120.028H120.278V78.023V74V73.75H120.028H59.0117H58.7617V74V78.023V78.273H59.0117H66.1373V87.0443C66.1373 94.9723 70.1241 102.236 76.5707 106.52C70.1241 110.803 66.1373 118.067 66.1373 125.995V134.766H59.0117H58.7617V135.016V139.039V139.289H59.0117H120.028H120.278V139.039V135.016V134.766H120.028ZM95.7306 104.906L95.5792 104.971V105.136V107.903V108.068L95.7306 108.133L96.9489 108.656C103.893 111.635 108.379 118.441 108.379 125.995V134.766H70.6603V125.995C70.6603 118.441 75.1468 111.635 82.0905 108.656L83.3088 108.133L83.4603 108.068V107.903V105.136V104.971L83.3088 104.906L82.0905 104.383C75.1468 101.404 70.6603 94.598 70.6603 87.0443V78.273H108.379V87.0443C108.379 94.598 103.893 101.404 96.9489 104.383L95.7306 104.906Z"
              fill="black"
              stroke="black"
              stroke-width="0.5"
            />
          </g>
          <defs>
            <clipPath id="clip0">
              <rect width="65.0391" height="65.0391" fill="white" transform="translate(57 74)" />
            </clipPath>
          </defs>
        </svg>