<svg width="180" height="180" viewBox="0 0 180 180" fill="none" xmlns="http://www.w3.org/2000/svg">
<g clip-path="url(#clip0)">
<path d="M152.316 180L143.836 130.85V103.556H110.12V87.4498C114.711 76.9606 121.377 61.338 121.377 41.3937C121.377 24.3938 113.192 14.1243 106.326 8.50342C98.9717 2.48291 91.5436 0.449066 91.2305 0.363922L89.8682 0L88.5072 0.363922C88.1941 0.447693 80.766 2.48291 73.412 8.50342C66.5456 14.1243 58.3594 24.3938 58.3594 41.3924C58.3594 61.3367 65.0267 76.9606 69.6162 87.4498V103.556H35.9006V130.85L27.4219 180H152.316ZM46.4365 114.092H80.1521V85.2443L79.5451 83.8573C75.3044 74.1728 68.8953 59.5363 68.8953 41.3924C68.8953 20.3069 84.9463 12.8004 89.8517 10.9987C91.8416 11.743 95.7568 13.4665 99.6515 16.6566C107.077 22.7348 110.841 31.057 110.841 41.3924C110.841 59.5377 104.432 74.1742 100.191 83.8586L99.5842 85.2443V114.092H133.3V126.032H46.4365V114.092ZM87.6448 169.464V157.523H77.1089V169.464H65.1682V150.031H54.6309V169.464H39.9312L45.6056 136.568H134.131L139.805 169.464H87.6448Z" fill="black"/>
<path d="M84.6006 30.1547H95.1378V41.3924H84.6006V30.1547Z" fill="black"/>
</g>
<defs>
<clipPath id="clip0">
<rect width="180" height="180" fill="white"/>
</clipPath>
</defs>
</svg>
