<svg width="180" height="180" viewBox="0 0 180 180" fill="none" xmlns="http://www.w3.org/2000/svg">
<path d="M89.7523 1.07559C89.7953 1.06257 89.8349 1.05072 89.8709 1.04002C91.406 1.48707 99.1452 3.91729 105.692 9.27719L106.326 8.50342L105.692 9.27722C112.389 14.7589 120.377 24.7654 120.377 41.3937C120.377 61.115 113.789 76.5732 109.204 87.0488L109.12 87.2405V87.4498V103.556V104.556H110.12H142.836V130.85V130.936L142.85 131.02L151.129 179H28.6092L36.886 131.02L36.9006 130.936V130.85V104.556H69.6162H70.6162V103.556V87.4498V87.2406L70.5324 87.0489C65.9487 76.5732 59.3594 61.1136 59.3594 41.3924C59.3594 24.7655 67.349 14.7589 74.0454 9.27722L74.0455 9.27719C77.6251 6.34665 81.648 4.26453 84.7927 2.91274C86.3617 2.23832 87.7038 1.74921 88.6509 1.4295C89.1242 1.26971 89.4984 1.15241 89.7523 1.07559ZM46.4365 113.092H45.4365V114.092V126.032V127.032H46.4365H133.3H134.3V126.032V114.092V113.092H133.3H100.584V85.4536C104.83 75.7573 111.841 59.6508 111.841 41.3924C111.841 29.1089 106.43 21.251 101.007 16.4848C98.3041 14.1096 95.6039 12.505 93.5781 11.4932C92.5643 10.9868 91.7165 10.6275 91.1178 10.3934C90.8183 10.2763 90.5809 10.1904 90.4158 10.133C90.3333 10.1043 90.2688 10.0827 90.2236 10.0679L90.1706 10.0507L90.1553 10.0459L90.1505 10.0444L90.1488 10.0438C90.1481 10.0436 90.1476 10.0435 89.8517 10.9987L90.1476 10.0435L89.8244 9.94338L89.5069 10.06C84.4866 11.904 67.8953 19.6532 67.8953 41.3924C67.8953 59.6494 74.9064 75.7573 79.1521 85.4536V113.092H46.4365ZM86.6448 169.464V170.464H87.6448H139.805H140.992L140.791 169.294L135.116 136.398L134.973 135.568H134.131H45.6056H44.7633L44.6202 136.398L38.9457 169.294L38.7439 170.464H39.9312H54.6309H55.6309V169.464V151.031H64.1682V169.464V170.464H65.1682H77.1089H78.1089V169.464V158.523H86.6448V169.464Z" fill="black" stroke="white" stroke-width="2"/>
<path d="M85.6006 31.1547H94.1378V40.3924H85.6006V31.1547Z" fill="black" stroke="white" stroke-width="2"/>
</svg>
