<svg width="180" height="180" viewBox="0 0 180 180" fill="none" xmlns="http://www.w3.org/2000/svg">
<path d="M2.06231 113.1L40.3003 106.283L41.4125 106.085L41.0807 105.005C39.6222 100.257 38.8342 95.2203 38.8342 90C38.8342 61.7887 61.7887 38.8342 90 38.8342C95.2203 38.8342 100.257 39.6222 105.005 41.0807L106.085 41.4125L106.283 40.3003L113.1 2.06231L118.888 7.85073C118.889 7.85081 118.889 7.85089 118.889 7.85097C120.011 8.97417 121.012 9.63955 122.124 10.0616C123.179 10.4624 124.294 10.6241 125.554 10.8069L125.624 10.8169C125.624 10.8169 125.624 10.8169 125.624 10.8169C128.754 11.2719 132.843 11.8669 137.174 16.1978C141.504 20.5275 142.099 24.6162 142.554 27.747L142.564 27.8158C142.746 29.0759 142.908 30.191 143.309 31.2469C143.731 32.3588 144.396 33.3599 145.52 34.4832L145.52 34.4834C146.643 35.6059 147.644 36.2708 148.755 36.6927C149.811 37.0934 150.926 37.255 152.186 37.4378L152.254 37.4477C155.385 37.9027 159.474 38.4977 163.804 42.8273C168.133 47.157 168.728 51.2456 169.183 54.3764L169.193 54.4455C169.376 55.7055 169.538 56.8204 169.938 57.8761C170.36 58.9878 171.025 59.9887 172.148 61.1113L177.936 66.9L139.698 73.7171L138.586 73.9154L138.918 74.9955C140.378 79.7424 141.164 84.7795 141.164 90C141.164 118.211 118.211 141.166 90 141.166C84.7797 141.166 79.7411 140.378 74.9953 138.919L73.9154 138.587L73.7171 139.7L66.9 177.938L61.1113 172.149C59.9882 171.026 58.9874 170.36 57.8756 169.938C56.8195 169.537 55.7042 169.376 54.4431 169.193L54.3751 169.183C54.375 169.183 54.3749 169.183 54.3748 169.183C51.2441 168.728 47.1556 168.133 42.826 163.802L42.8259 163.802C38.4963 159.473 37.9013 155.384 37.4464 152.253L37.4371 152.189C37.254 150.927 37.0921 149.81 36.6906 148.753C36.2684 147.641 35.6031 146.64 34.4807 145.517L34.4802 145.517C33.357 144.394 32.3563 143.729 31.2446 143.307C30.1885 142.907 29.0733 142.745 27.8121 142.562L27.7443 142.552C27.7442 142.552 27.744 142.552 27.7439 142.552C24.6146 142.097 20.526 141.502 16.1951 137.173C16.195 137.173 16.195 137.173 16.195 137.173M2.06231 113.1L16.195 137.173M2.06231 113.1L7.85097 118.889C8.97349 120.011 9.63882 121.012 10.061 122.124C10.4626 123.181 10.6245 124.297 10.8076 125.56L10.8169 125.624L10.8169 125.624C11.2705 128.754 11.8654 132.843 16.195 137.173M2.06231 113.1L16.195 137.173M90.0297 98.5806L90.6268 100.29C91.7909 103.622 92.7619 108.024 92.7619 113.448C92.7619 122.712 89.9327 128.993 88.1446 132.039L87.8326 132.57L87.2176 132.53C76.0366 131.806 66.0178 126.752 58.8267 119.035L57.5625 117.678L59.3906 117.367C64.7888 116.449 70.2579 114.452 75.3467 111.515L90.0297 98.5806ZM90.0297 98.5806L88.9009 99.9962M90.0297 98.5806L88.9009 99.9962M88.9009 99.9962C85.335 104.468 80.6853 108.431 75.3469 111.514L88.9009 99.9962ZM61.068 161.978L59.9824 161.636C58.3978 161.136 56.9369 160.922 55.6024 160.728C55.6023 160.728 55.6021 160.728 55.602 160.728M61.068 161.978L46.8898 150.883C47.2715 153.514 47.4819 154.964 49.5731 157.055C51.6642 159.146 53.1143 159.357 55.7447 159.738L55.746 159.738L55.602 160.728M61.068 161.978L61.2678 160.857L65.7338 135.807L65.8591 135.104L65.235 134.758C56.848 130.098 49.9006 123.152 45.2425 114.765L44.8958 114.141L44.1928 114.266L19.1412 118.732L18.0203 118.932L18.3631 120.018C18.8631 121.601 19.0778 123.064 19.2705 124.396L19.2705 124.396L19.2804 124.464C19.4632 125.725 19.6249 126.841 20.0258 127.897C20.4479 129.009 21.1133 130.01 22.2365 131.133C23.3591 132.255 24.36 132.92 25.4717 133.342C26.5273 133.743 27.6423 133.904 28.9023 134.087L28.9713 134.097L28.9716 134.097L28.9727 134.097C32.1035 134.552 36.1914 135.146 40.5204 139.477L40.5205 139.477C44.8501 143.806 45.4451 147.895 45.9 151.026M61.068 161.978L45.9 151.026M55.602 160.728L55.5333 160.718C54.2732 160.535 53.1582 160.374 52.1023 159.973C50.9904 159.551 49.9892 158.885 48.866 157.762C47.7427 156.639 47.0773 155.638 46.6553 154.526C46.2545 153.47 46.0928 152.355 45.91 151.095L45.9 151.026M55.602 160.728L45.9 151.026M120.018 18.3645L118.932 18.0216L118.732 19.1426L114.266 44.1928L114.141 44.8957L114.765 45.2424C123.152 49.902 130.098 56.8481 134.758 65.235L135.104 65.8591L135.807 65.7338L160.857 61.2678L161.978 61.0681L161.636 59.9829C161.137 58.3992 160.922 56.936 160.73 55.6042L160.729 55.6039L160.72 55.5406C160.537 54.2772 160.375 53.1604 159.974 52.1029C159.551 50.9913 158.886 49.9906 157.764 48.8676L157.764 48.8673C156.641 47.7447 155.64 47.0797 154.528 46.6578C153.473 46.2572 152.358 46.0955 151.098 45.9128L151.029 45.9028L151.028 45.9028L151.027 45.9026C147.896 45.4476 143.809 44.8536 139.48 40.5233L139.48 40.5232C135.15 36.1936 134.555 32.1049 134.1 28.9741L134.1 28.9738L134.089 28.9018C133.906 27.643 133.744 26.5291 133.344 25.4742C132.922 24.3625 132.257 23.3614 131.134 22.2381L131.134 22.2378C130.011 21.1146 129.01 20.4492 127.898 20.0272C126.842 19.6264 125.727 19.4647 124.467 19.2819L124.398 19.272C124.398 19.2719 124.398 19.2719 124.398 19.2719C123.063 19.0777 121.601 18.8644 120.018 18.3645ZM98.6164 84.3143L97.4355 85.6853L99.2247 85.9557C104.874 86.8092 110.625 88.8535 115.958 91.933L116.458 91.067L115.958 91.9331C121.055 94.8751 125.526 98.6214 129.024 102.846L130.205 104.273L130.75 102.503C131.966 98.5471 132.623 94.3474 132.623 90C132.623 83.235 131.035 76.8322 128.217 71.143L127.943 70.5914L127.328 70.5869C123.796 70.5612 116.943 71.2538 108.924 75.8845C104.252 78.5814 100.925 81.6341 98.6164 84.3143ZM64.0422 88.067L64.042 88.0668C58.9438 85.1249 54.4737 81.3787 50.9765 77.1538L50.2061 77.7914L49.2503 77.4975C48.0336 81.4543 47.3769 85.6526 47.3769 90C47.3769 96.7663 48.9648 103.169 51.7834 108.857L52.0567 109.409L52.6722 109.413C56.2043 109.439 63.0558 108.746 71.0749 104.115C75.7476 101.419 79.0751 98.3674 81.3838 95.6855L82.564 94.3145L80.7753 94.0443C75.1251 93.1908 69.3752 91.1465 64.0422 88.067ZM92.781 47.4697L92.166 47.4298L91.854 47.9612C90.0659 51.0068 87.2367 57.2882 87.2367 66.5524C87.2367 71.9763 88.2078 76.3778 89.3718 79.7101L90.3159 79.3803L91.0977 80.0038C94.6636 75.532 99.3134 71.5691 104.653 68.4855C109.741 65.5476 115.21 63.5512 120.609 62.6329L122.438 62.3219L121.173 60.9652C113.981 53.2484 103.963 48.194 92.781 47.4697ZM81.614 49.7801L82.2603 48.042L80.4529 48.457C69.7144 50.9229 60.5161 57.4555 54.5664 66.3364L54.2225 66.8498L54.5277 67.387C56.2743 70.4611 60.2995 76.0429 68.3129 80.6693L68.3129 80.6694C73.0147 83.3834 77.3178 84.7438 80.7875 85.4001L82.5679 85.7369L81.9038 84.0511C80.1971 79.7187 78.6939 73.8429 78.6939 66.5538C78.6939 60.667 79.7024 54.9217 81.614 49.7801ZM98.3859 130.22L97.7402 131.958L99.5471 131.543C110.286 129.077 119.483 122.544 125.434 113.664L125.778 113.15L125.472 112.613C123.724 109.539 119.699 103.957 111.687 99.3307L111.687 99.3307C106.984 96.6152 102.682 95.2561 99.2111 94.5998L97.43 94.2631L98.095 95.9493C99.8028 100.28 101.305 106.157 101.305 113.446C101.305 119.333 100.296 125.078 98.3859 130.22Z" fill="black" stroke="white" stroke-width="2"/>
</svg>
