<svg height="512pt" viewBox="0 0 512 512" width="512pt" xmlns="http://www.w3.org/2000/svg"><path d="m256 177.1875c-43.460938 0-78.816406 35.355469-78.816406 78.8125s35.355468 78.8125 78.816406 78.8125c43.457031 0 78.8125-35.355469 78.8125-78.8125s-35.355469-78.8125-78.8125-78.8125zm0 127.628906c-26.917969 0-48.816406-21.898437-48.816406-48.816406 0-26.914062 21.898437-48.8125 48.816406-48.8125 26.914062 0 48.8125 21.898438 48.8125 48.8125 0 26.917969-21.898438 48.816406-48.8125 48.816406zm0 0"/><path d="m511.996094 182.394531-20.324219-20.328125c-5.335937-5.335937-5.878906-9.082031-6.867187-15.878906-1.246094-8.609375-2.960938-20.402344-15.339844-32.78125s-24.171875-14.089844-32.78125-15.339844c-6.796875-.984375-10.539063-1.53125-15.875-6.867187-5.335938-5.335938-5.878906-9.078125-6.867188-15.878907-1.25-8.609374-2.960937-20.398437-15.34375-32.78125-12.382812-12.378906-24.171875-14.09375-32.785156-15.34375-6.796875-.984374-10.539062-1.527343-15.878906-6.867187l-20.328125-20.328125-17.265625 96.863281c-17.628906-6.257812-36.589844-9.679687-56.339844-9.679687-93.085938 0-168.816406 75.730468-168.816406 168.816406 0 19.746094 3.421875 38.710938 9.679687 56.335938l-96.863281 17.273437 20.328125 20.328125c5.335937 5.335938 5.878906 9.078125 6.863281 15.875 1.25 8.609375 2.960938 20.402344 15.34375 32.78125 12.378906 12.382812 24.167969 14.09375 32.777344 15.339844 6.796875.988281 10.542969 1.53125 15.878906 6.867187 5.335938 5.335938 5.878906 9.082031 6.867188 15.878907 1.25 8.609374 2.960937 20.402343 15.34375 32.78125 12.378906 12.382812 24.171875 14.09375 32.78125 15.34375 6.796875.988281 10.542968 1.53125 15.878906 6.867187l20.328125 20.328125 17.269531-96.863281c17.628906 6.257812 36.589844 9.679687 56.339844 9.679687 93.085938 0 168.8125-75.730468 168.8125-168.816406 0-19.746094-3.417969-38.710938-9.679688-56.335938zm-161.660156-127.730469c4.09375 1.191407 7.863281 1.742188 11.167968 2.21875 6.796875.988282 10.542969 1.53125 15.878906 6.867188 5.335938 5.339844 5.882813 9.082031 6.867188 15.882812 1.25 8.609376 2.964844 20.398438 15.34375 32.78125 12.382812 12.378907 24.171875 14.089844 32.78125 15.339844 6.796875.988282 10.542969 1.53125 15.875 6.863282 5.335938 5.335937 5.878906 9.082031 6.867188 15.878906.476562 3.300781 1.023437 7.074218 2.21875 11.167968l-55.230469 9.847657c-14.8125-25.511719-36.105469-46.808594-61.617188-61.617188zm-188.671876 402.671876c-4.09375-1.191407-7.867187-1.742188-11.171874-2.21875-6.796876-.988282-10.539063-1.53125-15.878907-6.867188-5.335937-5.339844-5.878906-9.082031-6.867187-15.882812-1.25-8.609376-2.960938-20.398438-15.34375-32.78125-12.378906-12.378907-24.171875-14.089844-32.78125-15.339844-6.796875-.988282-10.539063-1.53125-15.875-6.863282-5.335938-5.335937-5.878906-9.082031-6.863282-15.878906-.480468-3.300781-1.027343-7.074218-2.21875-11.167968l55.230469-9.847657c14.808594 25.511719 36.105469 46.808594 61.613281 61.617188zm94.335938-62.519532c-76.542969 0-138.816406-62.273437-138.816406-138.816406s62.273437-138.8125 138.816406-138.8125 138.8125 62.269531 138.8125 138.8125-62.269531 138.816406-138.8125 138.816406zm0 0"/></svg>