<svg width="512" height="512" viewBox="0 0 512 512" fill="none" xmlns="http://www.w3.org/2000/svg">
<g clip-path="url(#clip0)">
<path d="M256.211 303.867V347.441L214.402 380.122L172.592 347.441V303.867H256.211Z" fill="#756C9E"/>
<path d="M256.208 347.441H172.589V391.342H256.208V347.441Z" fill="#6C5D9E"/>
<path d="M411.66 8.17001H378.979V292.068L421.039 270.281V17.55C421.039 12.397 416.813 8.17001 411.66 8.17001Z" fill="#6C5D9E"/>
<path d="M378.979 8.17001H17.551C12.398 8.17001 8.172 12.397 8.172 17.549V270.281L40.853 292.068H388.359V17.55C388.359 12.397 384.132 8.17001 378.979 8.17001Z" fill="#ABA5C4"/>
<path d="M388.359 270.282L378.98 325.654H411.661C416.814 325.654 421.04 321.438 421.04 316.275V270.282H388.359Z" fill="#367596"/>
<path d="M8.17099 270.282V316.275C8.17099 321.439 12.398 325.654 17.55 325.654H378.978C384.131 325.654 388.357 321.438 388.357 316.275V270.282H8.17099Z" fill="#756C9E"/>
<path d="M494.451 194.026H461.77V248.494L503.83 226.707V203.416C503.831 198.253 499.604 194.026 494.451 194.026Z" fill="#40375A"/>
<path d="M461.771 416.681V503.83H494.452C499.605 503.83 503.831 499.603 503.831 494.451V438.469L461.771 416.681Z" fill="#40375A"/>
<path d="M461.771 194.026H350.895H318.214C313.061 194.026 308.835 198.253 308.835 203.416V226.707L341.516 248.494H471.15V203.416C471.15 198.253 466.923 194.026 461.771 194.026Z" fill="#6C5D9E"/>
<path d="M341.516 416.681L308.835 438.468V494.45C308.835 499.603 313.062 503.829 318.214 503.829H350.895H461.77C466.923 503.829 471.149 499.602 471.149 494.45V416.68H341.516V416.681Z" fill="#6C5D9E"/>
<path d="M422.673 479.319H389.992C385.479 479.319 381.822 475.661 381.822 471.149C381.822 466.637 385.479 462.979 389.992 462.979H422.673C427.186 462.979 430.843 466.637 430.843 471.149C430.844 475.661 427.187 479.319 422.673 479.319Z" fill="#111449"/>
<path d="M471.15 226.707H308.835V438.468H471.15L482.044 332.588L471.15 226.707Z" fill="#F8E9C3"/>
<path d="M503.831 226.707H471.15V438.468H503.831V226.707Z" fill="#F4D185"/>
<path d="M276.154 333.828C280.667 333.828 284.324 330.17 284.324 325.658C284.324 321.146 280.667 317.488 276.154 317.488H17.554C16.908 317.488 16.342 316.922 16.342 316.274V17.554C16.342 16.908 16.91 16.34 17.554 16.34H411.656C412.302 16.34 412.868 16.908 412.868 17.554V161.351C412.868 165.863 416.525 169.521 421.038 169.521C425.551 169.521 429.208 165.863 429.208 161.351V17.554C429.21 7.874 421.336 0 411.657 0H17.554C7.87501 0 0.00100708 7.874 0.00100708 17.554V316.274C0.00100708 325.953 7.87501 333.828 17.554 333.828H164.828V383.172H102.005C97.492 383.172 93.835 386.83 93.835 391.342C93.835 395.854 97.492 399.512 102.005 399.512H276.155C280.668 399.512 284.325 395.854 284.325 391.342C284.325 386.83 280.668 383.172 276.155 383.172H264.382V333.828H276.154ZM248.041 383.171H181.168V333.827H248.041V383.171Z" fill="#231942"/>
<path d="M276.154 262.116H40.852C36.339 262.116 32.682 265.774 32.682 270.286C32.682 274.798 36.339 278.456 40.852 278.456H276.154C280.667 278.456 284.324 274.798 284.324 270.286C284.324 265.774 280.668 262.116 276.154 262.116Z" fill="#231942"/>
<path d="M494.448 185.86H318.218C308.539 185.86 300.665 193.735 300.665 203.414V494.447C300.665 504.126 308.539 512.001 318.218 512.001H494.447C504.126 512.001 512 504.127 512 494.447V203.413C512.001 193.734 504.127 185.86 494.448 185.86ZM317.005 234.882H495.66V430.298H317.005V234.882ZM318.218 202.201H494.447C495.093 202.201 495.659 202.767 495.659 203.415V218.542H317.005V203.415C317.005 202.767 317.573 202.201 318.218 202.201ZM494.448 495.66H318.218C317.572 495.66 317.006 495.092 317.006 494.446V446.638H495.661V494.446C495.661 495.092 495.093 495.66 494.448 495.66Z" fill="#231942"/>
<path d="M422.673 462.979H389.992C385.479 462.979 381.822 466.637 381.822 471.149C381.822 475.661 385.479 479.319 389.992 479.319H422.673C427.186 479.319 430.843 475.661 430.843 471.149C430.844 466.637 427.187 462.979 422.673 462.979Z" fill="black"/>
</g>
<defs>
<clipPath id="clip0">
<rect width="512.001" height="512.001" fill="white"/>
</clipPath>
</defs>
</svg>
