<svg width="150" height="150" viewBox="0 0 150 150" fill="none" xmlns="http://www.w3.org/2000/svg">
<path d="M27.4355 7.95261H93.5493L121.985 37.0995V141.602H27.4355V7.95261Z" fill="white"/>
<path d="M97.3738 16.3639L95.6667 14.6568V17.071V33.3333V34.3333H96.6667H112.929H115.343L113.636 32.6262L97.3738 16.3639ZM87.6667 10V9H86.6667H30H29V10V93.3333V94.3333H30H120H121V93.3333V43.3333V42.3333H120H87.6667V10ZM29 140V141H30H120H121V140V103.333V102.333H120H30H29V103.333V140ZM129 36.6765V149H21V1H93.3235L129 36.6765Z" fill="black" stroke="white" stroke-width="2"/>
<path d="M50.5873 119.187H43.0403V111.853H38.667V130.786H43.0403V123.027H50.5873V130.786H54.9603V111.853H50.5873V119.187Z" fill="black"/>
<path d="M57.7598 115.693H63.5464V130.786H67.9198V115.693H73.6798V111.853H57.7598V115.693Z" fill="black"/>
<path d="M86.1332 121.746L81.2265 111.853H76.4795V130.786H80.8532V119.453L84.9598 127.693H87.3065L91.4132 119.453V130.786H95.7865V111.853H91.0665L86.1332 121.746Z" fill="black"/>
<path d="M104.452 111.853H100.079V130.786H113.626V126.947H104.452V111.853Z" fill="black"/>
</svg>
