<svg width="150" height="150" viewBox="0 0 150 150" fill="none" xmlns="http://www.w3.org/2000/svg">
<path d="M93.7377 0H20V150H130V36.2623L93.7377 0ZM96.6667 17.071L112.929 33.3333H96.6667V17.071ZM86.6667 10V43.3333H120V93.3333H30V10H86.6667ZM30 140V103.333H120V140H30Z" fill="black"/>
<path d="M50.5873 119.187H43.0403V111.853H38.667V130.786H43.0403V123.027H50.5873V130.786H54.9603V111.853H50.5873V119.187Z" fill="black"/>
<path d="M57.7598 115.693H63.5464V130.786H67.9198V115.693H73.6798V111.853H57.7598V115.693Z" fill="black"/>
<path d="M86.1332 121.746L81.2265 111.853H76.4795V130.786H80.8532V119.453L84.9598 127.693H87.3065L91.4132 119.453V130.786H95.7865V111.853H91.0665L86.1332 121.746Z" fill="black"/>
<path d="M104.452 111.853H100.079V130.786H113.626V126.947H104.452V111.853Z" fill="black"/>
</svg>
