<svg width="150" height="150" viewBox="0 0 150 150" fill="none" xmlns="http://www.w3.org/2000/svg">
<path d="M85.587 121.692C85.08 121.257 84.4623 120.893 83.7333 120.599C83.004 120.306 82.1867 120.035 81.28 119.786C80.622 119.609 80.0443 119.448 79.547 119.306C79.049 119.164 78.6357 119.009 78.3067 118.84C77.9777 118.671 77.729 118.48 77.5603 118.266C77.391 118.053 77.3067 117.786 77.3067 117.466C77.3067 116.418 78.089 115.893 79.6533 115.893C80.2223 115.893 80.791 115.973 81.36 116.133C81.9287 116.293 82.4533 116.48 82.9337 116.693C83.4133 116.907 83.8137 117.111 84.1337 117.307C84.4537 117.502 84.6403 117.636 84.6937 117.706L86.6137 114.08C86.1873 113.831 85.7203 113.582 85.214 113.333C84.707 113.084 84.1607 112.862 83.574 112.667C82.987 112.471 82.3737 112.311 81.7337 112.187C81.0937 112.063 80.4447 112 79.787 112C78.8447 112 77.951 112.133 77.107 112.4C76.2623 112.667 75.5203 113.062 74.8803 113.587C74.2403 114.111 73.7337 114.756 73.36 115.52C72.9867 116.285 72.8 117.165 72.8 118.16C72.8 118.871 72.9023 119.493 73.1067 120.027C73.3107 120.56 73.622 121.032 74.04 121.44C74.4577 121.849 74.9867 122.209 75.6267 122.52C76.267 122.831 77.0223 123.12 77.8937 123.387C78.551 123.583 79.1603 123.76 79.72 123.92C80.28 124.08 80.7643 124.254 81.1733 124.44C81.582 124.627 81.9023 124.836 82.1333 125.067C82.364 125.298 82.48 125.592 82.48 125.947C82.48 126.89 81.7067 127.36 80.16 127.36C79.4307 127.36 78.7107 127.263 78 127.067C77.2887 126.872 76.6443 126.65 76.0667 126.4C75.489 126.152 75.004 125.903 74.6133 125.654C74.2227 125.405 73.991 125.236 73.9203 125.147L72 128.96C72.5507 129.334 73.151 129.663 73.8 129.947C74.4487 130.232 75.12 130.476 75.8133 130.68C76.5067 130.885 77.2173 131.04 77.9463 131.147C78.6753 131.253 79.3863 131.307 80.0797 131.307C80.9863 131.307 81.8663 131.204 82.7197 131C83.5733 130.796 84.3283 130.466 84.9863 130.013C85.644 129.56 86.1733 128.964 86.5733 128.227C86.973 127.489 87.1733 126.587 87.1733 125.52C87.1733 124.649 87.0353 123.902 86.76 123.28C86.4843 122.657 86.0933 122.128 85.587 121.692Z" fill="black"/>
<path d="M93.7377 0H20V150H130V36.2623L93.7377 0ZM96.6667 17.071L112.929 33.3333H96.6667V17.071ZM86.6667 10V43.3333H120V93.3333H30V10H86.6667ZM30 140V103.333H120V140H30Z" fill="black"/>
<path d="M64.2808 121.48C64.2808 122.475 64.2495 123.333 64.1875 124.053C64.1248 124.773 63.9875 125.365 63.7742 125.826C63.5608 126.289 63.2585 126.631 62.8675 126.853C62.4762 127.076 61.9515 127.186 61.2942 127.186C60.5295 127.186 59.8582 127.08 59.2808 126.866C58.7028 126.653 58.3248 126.475 58.1475 126.333L57.1875 129.906C58.3252 130.689 59.6942 131.08 61.2942 131.08C62.9295 131.08 64.2362 130.849 65.2142 130.386C66.1918 129.924 66.9342 129.276 67.4408 128.44C67.9475 127.604 68.2762 126.596 68.4275 125.413C68.5785 124.231 68.6542 122.92 68.6542 121.48V111.853H64.2808V121.48Z" fill="black"/>
</svg>
