<svg width="150" height="150" viewBox="0 0 150 150" fill="none" xmlns="http://www.w3.org/2000/svg">
<path d="M28.4355 9.95261H94.5493L122.985 39.0995V143.602H28.4355V9.95261Z" fill="white"/>
<path d="M93.7377 0H20V150H130V36.2623L93.7377 0ZM96.6667 17.071L112.929 33.3333H96.6667V17.071ZM86.6667 10V43.3333H120V93.3333H30V10H86.6667ZM30 140V103.333H120V140H30Z" fill="black"/>
<path d="M62.3871 125.653C62.0671 125.982 61.7158 126.249 61.3338 126.453C60.9515 126.658 60.5511 126.809 60.1338 126.906C59.7158 127.004 59.3111 127.053 58.9201 127.053C58.1555 127.053 57.4671 126.897 56.8535 126.586C56.2401 126.275 55.7158 125.853 55.2801 125.32C54.8441 124.786 54.5108 124.173 54.2801 123.479C54.0491 122.786 53.9335 122.066 53.9335 121.32C53.9335 120.626 54.0311 119.942 54.2268 119.266C54.4225 118.591 54.7245 117.986 55.1338 117.453C55.5425 116.92 56.0578 116.484 56.6805 116.146C57.3025 115.809 58.0315 115.64 58.8671 115.64C59.2581 115.64 59.6581 115.68 60.0675 115.759C60.4765 115.839 60.8761 115.982 61.2675 116.186C61.6585 116.391 62.0185 116.657 62.3475 116.986C62.6761 117.315 62.9475 117.729 63.1608 118.226L66.5205 115.879C65.8805 114.653 64.9071 113.657 63.6005 112.893C62.2938 112.128 60.7515 111.746 58.9738 111.746C57.4808 111.746 56.1475 112.022 54.9738 112.573C53.8005 113.124 52.8045 113.844 51.9871 114.732C51.1691 115.622 50.5471 116.63 50.1205 117.759C49.6938 118.888 49.4805 120.022 49.4805 121.159C49.4805 122.368 49.7071 123.559 50.1605 124.732C50.6135 125.906 51.2535 126.955 52.0805 127.879C52.9068 128.803 53.8935 129.546 55.0405 130.106C56.1868 130.666 57.4448 130.946 58.8138 130.946C59.5958 130.946 60.3958 130.848 61.2135 130.653C62.0311 130.457 62.8041 130.173 63.5335 129.799C64.2625 129.426 64.9068 128.964 65.4671 128.412C66.0271 127.862 66.4491 127.239 66.7338 126.546L63.1605 124.439C62.9648 124.92 62.7071 125.325 62.3871 125.653Z" fill="black"/>
<path d="M81.8399 121.386C81.3329 120.951 80.7153 120.587 79.9863 120.293C79.2569 120 78.4396 119.729 77.5329 119.48C76.8749 119.303 76.2973 119.142 75.7999 119C75.3019 118.858 74.8886 118.703 74.5596 118.534C74.2306 118.365 73.9819 118.174 73.8133 117.96C73.6439 117.747 73.5596 117.48 73.5596 117.16C73.5596 116.112 74.3419 115.587 75.9063 115.587C76.4753 115.587 77.0439 115.667 77.6129 115.827C78.1816 115.987 78.7063 116.174 79.1866 116.387C79.6663 116.601 80.0666 116.805 80.3866 117.001C80.7066 117.196 80.8933 117.33 80.9466 117.4L82.8666 113.774C82.4403 113.525 81.9733 113.276 81.4669 113.027C80.9599 112.778 80.4136 112.556 79.8269 112.361C79.2399 112.165 78.6266 112.005 77.9866 111.881C77.3466 111.757 76.6976 111.694 76.0399 111.694C75.0976 111.694 74.2039 111.827 73.3599 112.094C72.5153 112.361 71.7733 112.756 71.1333 113.281C70.4933 113.805 69.9866 114.45 69.6129 115.214C69.2396 115.979 69.0529 116.859 69.0529 117.854C69.0529 118.565 69.1553 119.187 69.3596 119.721C69.5636 120.254 69.8749 120.726 70.2929 121.134C70.7106 121.543 71.2396 121.903 71.8796 122.214C72.5199 122.525 73.2753 122.814 74.1466 123.081C74.8039 123.277 75.4133 123.454 75.9729 123.614C76.5329 123.774 77.0173 123.948 77.4263 124.134C77.8349 124.321 78.1553 124.53 78.3863 124.761C78.6169 124.992 78.7329 125.286 78.7329 125.641C78.7329 126.584 77.9596 127.054 76.4129 127.054C75.6836 127.054 74.9636 126.957 74.2529 126.761C73.5416 126.566 72.8973 126.344 72.3196 126.094C71.7419 125.846 71.2569 125.597 70.8663 125.348C70.4756 125.099 70.2439 124.93 70.1733 124.841L68.2529 128.654C68.8036 129.028 69.4039 129.357 70.0529 129.641C70.7016 129.926 71.3729 130.17 72.0663 130.374C72.7596 130.579 73.4703 130.734 74.1993 130.841C74.9283 130.947 75.6393 131.001 76.3326 131.001C77.2393 131.001 78.1193 130.898 78.9726 130.694C79.8263 130.49 80.5813 130.16 81.2393 129.707C81.8969 129.254 82.4263 128.658 82.8263 127.921C83.2259 127.183 83.4263 126.281 83.4263 125.214C83.4263 124.343 83.2883 123.596 83.0129 122.974C82.7373 122.351 82.3463 121.822 81.8399 121.386Z" fill="black"/>
<path d="M98.9064 121.386C98.3994 120.951 97.7817 120.587 97.0527 120.293C96.3234 120 95.506 119.729 94.5997 119.48C93.9417 119.303 93.3637 119.142 92.8663 119C92.3683 118.858 91.9553 118.703 91.6263 118.534C91.297 118.365 91.0483 118.174 90.8797 117.96C90.7103 117.747 90.6263 117.48 90.6263 117.16C90.6263 116.112 91.4083 115.587 92.973 115.587C93.5417 115.587 94.1103 115.667 94.6793 115.827C95.2484 115.987 95.7727 116.174 96.253 116.387C96.7327 116.601 97.133 116.805 97.453 117.001C97.773 117.196 97.96 117.33 98.013 117.4L99.9334 113.774C99.5067 113.525 99.0397 113.276 98.5334 113.027C98.0264 112.778 97.48 112.556 96.8934 112.361C96.3067 112.165 95.693 112.005 95.053 111.881C94.413 111.757 93.764 111.694 93.1063 111.694C92.164 111.694 91.2707 111.827 90.4263 112.094C89.582 112.361 88.8397 112.756 88.1997 113.281C87.5597 113.805 87.053 114.45 86.6793 115.214C86.3063 115.979 86.1193 116.859 86.1193 117.854C86.1193 118.565 86.2217 119.187 86.426 119.721C86.63 120.254 86.9417 120.726 87.3593 121.134C87.777 121.543 88.3063 121.903 88.9463 122.214C89.5863 122.525 90.3417 122.814 91.213 123.081C91.8707 123.277 92.4797 123.454 93.0393 123.614C93.5997 123.774 94.0837 123.948 94.4927 124.134C94.9017 124.321 95.2217 124.53 95.4527 124.761C95.6834 124.992 95.7993 125.286 95.7993 125.641C95.7993 126.584 95.026 127.054 93.4793 127.054C92.75 127.054 92.03 126.957 91.3197 126.761C90.6083 126.566 89.9637 126.344 89.386 126.094C88.8083 125.846 88.3233 125.597 87.933 125.348C87.5417 125.099 87.3103 124.93 87.2397 124.841L85.3193 128.654C85.8703 129.028 86.4703 129.357 87.1193 129.641C87.768 129.926 88.4393 130.17 89.1327 130.374C89.826 130.579 90.537 130.734 91.266 130.841C91.9947 130.947 92.7057 131.001 93.399 131.001C94.306 131.001 95.1857 130.898 96.039 130.694C96.8927 130.49 97.6477 130.16 98.306 129.707C98.9634 129.254 99.4927 128.658 99.8927 127.921C100.293 127.183 100.493 126.281 100.493 125.214C100.493 124.343 100.355 123.596 100.079 122.974C99.8037 122.351 99.4127 121.822 98.9064 121.386Z" fill="black"/>
</svg>
