<svg width="290" height="290" viewBox="0 0 290 290" fill="none" xmlns="http://www.w3.org/2000/svg">
<g clip-path="url(#clip0)">
<path d="M34.8827 210.143L52.4921 227.753L98.3179 181.927L108.073 191.682L62.2494 237.508L79.8589 255.117L177.836 157.14H246.199L263.237 140.099L245.628 122.49L235.884 132.236H205.227L192.813 119.821L201.021 111.615C198.054 111.615 195.01 111.615 191.22 111.615L178.387 98.7826V88.9789L170.179 97.1873L157.766 84.7751V54.1183L167.512 44.3722L149.903 26.7627L132.862 43.8036V112.166L34.8827 210.143Z" fill="#756C9E"/>
<path d="M185.624 129.229C185.624 136.699 179.568 142.754 172.099 142.754C164.627 142.754 158.572 136.699 158.572 129.229C158.572 121.757 164.627 115.702 172.099 115.702C179.568 115.702 185.624 121.757 185.624 129.229Z" fill="#6C5D9E"/>
<path d="M227.326 97.1696L212.88 111.613C204.42 111.613 199.678 111.613 191.22 111.613L178.387 98.7804C178.387 90.3219 178.387 85.5782 178.387 77.1198L192.83 62.6764C202.355 53.1515 217.801 53.1515 227.326 62.6764C236.851 72.2013 236.851 87.6447 227.326 97.1696Z" fill="#FFDAAA"/>
<path d="M104.205 140.821L149.177 185.795L135.694 199.278L90.7202 154.306L104.205 140.821Z" fill="#FFE477"/>
<path d="M263.237 140.099L283.991 119.344L272.74 108.093H260.025L245.628 122.49L263.237 140.099Z" fill="#FFDAAA"/>
<path d="M149.903 26.7627L170.656 6.00922L181.907 17.2599V29.9753L167.51 44.3722L149.903 26.7627Z" fill="#FFDAAA"/>
<path d="M201.225 157.138L130.645 272.691L85.2309 249.745L177.836 157.138H201.225Z" fill="#FFE477"/>
<path d="M132.862 112.164V91.9348L19.2268 161.271L40.5113 204.508L132.862 112.164Z" fill="#FFE477"/>
<path d="M6.00922 239.017L19.426 252.436H27.8092L52.4921 227.751L34.8827 210.143L6.00922 239.017Z" fill="#FFE477"/>
<path d="M62.2494 237.508L37.5642 262.191V270.574L50.9832 283.991L79.8566 255.117L62.2494 237.508Z" fill="#FFE477"/>
<path d="M51.8793 210.143L149.856 112.164V43.8036L158.399 35.261L149.903 26.7627L132.862 43.8036V112.164L34.8827 210.143L52.4921 227.751L60.9904 219.255L51.8793 210.143Z" fill="#6C5D9E"/>
<path d="M195.381 77.1197L209.827 62.6742C212.391 60.1099 215.385 58.2381 218.575 57.0522C209.913 53.8396 199.791 55.7136 192.83 62.6742L178.387 77.1197V98.7804L191.22 111.613H208.214L195.381 98.7804V77.1197Z" fill="#FBB984"/>
<path d="M107.715 154.308L112.702 149.321L104.203 140.823L90.7202 154.308L135.694 199.28L144.19 190.784L107.715 154.308Z" fill="#FFB655"/>
<path d="M262.622 122.49L274.88 110.232L272.74 108.093H260.025L245.628 122.49L263.237 140.099L271.736 131.601L262.622 122.49Z" fill="#FBB984"/>
<path d="M166.897 26.7627L179.153 14.5053L170.656 6.00922L149.903 26.7627L167.51 44.3722L176.009 35.8739L166.897 26.7627Z" fill="#FBB984"/>
<path d="M102.225 249.745L194.83 157.138H201.225H177.836L85.2309 249.745L130.645 272.691L134.652 266.129L102.225 249.745Z" fill="#FFB655"/>
<path d="M36.2212 161.271L132.862 102.305V91.9348L19.2268 161.271L40.5113 204.508L51.8992 193.12L36.2212 161.271Z" fill="#FFB655"/>
<path d="M23.0036 239.017L43.381 218.639L34.8849 210.143L6.00922 239.017L19.426 252.436H27.8092L32.1148 248.13L23.0036 239.017Z" fill="#FFB655"/>
<path d="M54.5586 270.574V262.191L70.7455 246.004L62.2494 237.508L37.5642 262.191V270.574L50.9832 283.991L59.4793 275.495L54.5586 270.574Z" fill="#FFB655"/>
<path d="M174.294 129.229C174.294 136.699 168.238 142.754 160.769 142.754C153.297 142.754 147.241 136.699 147.241 129.229C147.241 121.757 153.297 115.702 160.769 115.702C168.238 115.702 174.294 121.757 174.294 129.229Z" fill="#FFE477"/>
<path d="M208.774 101.701H197.085V93.2026H205.254L205.643 92.8132L206.032 93.2026H207.015V94.185L211.652 98.8224L208.774 101.701ZM215.657 94.8155L209.65 88.8085L214.307 84.1512C214.575 83.8834 214.816 83.5936 215.024 83.2883L222.036 88.0894C221.529 88.8284 220.949 89.5276 220.312 90.1626L215.657 94.8155ZM224.54 80.5757L216.053 80.1907C216.055 80.1022 216.057 80.0115 216.057 79.9208C216.057 78.3234 215.436 76.8233 214.307 75.6927L220.314 69.6857C223.049 72.4181 224.556 76.0533 224.556 79.9208C224.556 80.1421 224.551 80.3589 224.54 80.5757Z" fill="white"/>
<path d="M83.8259 239.546L77.8189 233.539L93.2712 218.084L99.2804 224.093L83.8259 239.546ZM103.285 220.089L97.2781 214.079L103.285 208.07L109.294 214.079L103.285 220.089ZM113.301 210.073L107.292 204.063L113.301 198.056L119.308 204.066L113.301 210.073Z" fill="white"/>
<path d="M128.804 255.699L121.552 251.27L142.774 216.524L150.027 220.952L128.804 255.699ZM152.981 216.117L145.728 211.69L150.157 204.437L157.41 208.867L152.981 216.117ZM160.362 204.032L153.109 199.603L157.538 192.352L164.791 196.78L160.362 204.032Z" fill="white"/>
<path d="M289.999 119.343L274.499 103.845H258.265C257.108 105.002 251.853 110.257 234.122 127.985H206.986L198.821 119.821L202.782 115.863H214.641L230.33 100.174C241.497 89.0075 241.497 70.8382 230.33 59.6717C219.163 48.5051 200.994 48.5051 189.828 59.6717L174.139 75.3606V87.2197L170.178 91.1779L162.014 83.0137V55.8772C169.435 48.4586 165.342 52.5518 186.157 31.7364V15.5009L170.656 0C133.776 36.8805 142.652 28.0039 85.0271 85.629L91.0363 91.6359L128.614 54.0585V65.4486L113.301 80.7614L119.308 86.7706L128.614 77.4648V110.403C125.322 113.695 3.46259 235.556 0 239.019L17.667 256.683H29.5703C31.3912 254.862 96.2822 189.971 98.3177 187.936L102.066 191.682C100.426 193.321 36.3827 257.365 33.3161 260.431V272.332L50.9831 289.999L179.595 161.388H212.535L203.229 170.691L209.238 176.701L224.551 161.388H235.939L198.363 198.963L204.37 204.972C208.172 201.173 287.077 122.268 289.999 119.343ZM261.785 112.341H270.978L277.983 119.343L263.237 134.09C258.942 129.795 255.929 126.782 251.637 122.49L261.785 112.341ZM182.635 78.8808L195.835 65.6787C203.689 57.8264 216.466 57.8264 224.321 65.6787C232.173 73.5331 232.173 86.3104 224.321 94.1648L211.121 107.365H192.978L182.635 97.0212V78.8808ZM177.659 19.0188V28.2163L167.512 38.3629L155.91 26.7626L170.656 12.0162L177.659 19.0188ZM26.0502 248.187H21.1871L12.0162 239.016L34.8826 216.15L40.6838 221.951L46.485 227.75L26.0502 248.187ZM50.9831 277.983L41.8144 268.812V263.949L62.2492 243.514L73.8495 255.117L50.9831 277.983ZM79.8587 249.108L68.2562 237.507L114.082 191.682L98.3177 175.917L52.492 221.743L46.693 215.942L40.8918 210.143L150.25 100.785L144.243 94.7755L137.112 101.906V45.5624L149.903 32.7718L161.503 44.3721L153.518 52.3593V86.5339L170.178 103.196L174.139 99.2359V100.541L189.46 115.863H190.766L186.805 119.821L203.468 136.484H237.642L245.63 128.497C249.924 132.793 252.935 135.804 257.23 140.099L244.439 152.89H188.095L195.226 145.759L189.217 139.749L79.8587 249.108Z" fill="black"/>
<path d="M129.063 267.131L97.7914 251.329L93.9593 258.914L132.227 278.251L197.93 170.683L190.678 166.254L129.063 267.131Z" fill="black"/>
<path d="M119.319 95.2226L13.7 159.667L31.4156 195.654L39.04 191.899L24.7515 162.877L123.744 102.475L119.319 95.2226Z" fill="black"/>
<path d="M109.208 151.839L115.217 145.83L144.168 174.781L138.159 180.79L109.208 151.839Z" fill="black"/>
<path d="M95.7249 165.322L101.734 159.313L130.685 188.266L124.676 194.273L95.7249 165.322Z" fill="black"/>
<path d="M160.769 111.454C150.967 111.454 142.993 119.425 142.993 129.227C142.993 139.028 150.967 147.002 160.769 147.002C170.57 147.002 178.544 139.028 178.544 129.227C178.544 119.425 170.57 111.454 160.769 111.454ZM160.769 138.506C155.653 138.506 151.492 134.344 151.492 129.227C151.492 124.112 155.653 119.95 160.769 119.95C165.884 119.95 170.046 124.112 170.046 129.227C170.046 134.344 165.884 138.506 160.769 138.506Z" fill="black"/>
</g>
<defs>
<clipPath id="clip0">
<rect width="290" height="290" fill="white"/>
</clipPath>
</defs>
</svg>
