<svg width="60" height="60" viewBox="0 0 60 60" fill="none" xmlns="http://www.w3.org/2000/svg">
<g clip-path="url(#clip0)">
<path d="M50.5495 46.9053L46.9052 50.5495L40.2951 45.6881L39.3018 46.258C37.9262 47.0467 36.4513 47.6578 34.9182 48.0739L33.8132 48.3738L32.5768 56.4844H27.4233L26.1868 48.3738L25.0818 48.0739C23.5492 47.6578 22.0743 47.0467 20.6982 46.258L19.7049 45.6881L13.0948 50.5491L9.45053 46.9053L14.312 40.2952L13.7421 39.3014C12.9533 37.9258 12.3422 36.4513 11.9261 34.9183L11.6263 33.8132L3.51563 32.5768L3.51563 27.4233L11.6263 26.1869L11.9261 25.0818C12.3422 23.5488 12.9533 22.0739 13.7421 20.6983L14.312 19.705L9.45053 13.0948L13.0948 9.45059L19.7049 14.312L20.6982 13.7421C22.0738 12.9534 23.5487 12.3423 25.0818 11.9262L26.1868 11.6263L27.4233 3.51569L32.5768 3.51569L33.8132 11.6263L34.9182 11.9262C36.4513 12.3423 37.9262 12.9534 39.3018 13.7421L40.2951 14.312L46.9057 9.45059L50.5495 13.0948L45.688 19.705L46.2579 20.6983C47.0467 22.0739 47.6578 23.5488 48.0739 25.0818L48.3737 26.1869L56.4844 27.4233V32.5768L48.3737 33.8132L48.0739 34.9183C47.6578 36.4513 47.0467 37.9262 46.2579 39.3018L45.688 40.2952L50.5495 46.9053Z" fill="white"/>
<path d="M50.5495 46.9053L46.9052 50.5495L40.2951 45.6881L39.3018 46.258C37.9262 47.0467 36.4513 47.6578 34.9182 48.0739L33.8132 48.3738L32.5768 56.4844H27.4233L26.1868 48.3738L25.0818 48.0739C23.5492 47.6578 22.0743 47.0467 20.6982 46.258L19.7049 45.6881L13.0948 50.5491L9.45053 46.9053L14.312 40.2952L13.7421 39.3014C12.9533 37.9258 12.3422 36.4513 11.9261 34.9183L11.6263 33.8132L3.51563 32.5768L3.51563 27.4233L11.6263 26.1869L11.9261 25.0818C12.3422 23.5488 12.9533 22.0739 13.7421 20.6983L14.312 19.705L9.45053 13.0948L13.0948 9.45059L19.7049 14.312L20.6982 13.7421C22.0738 12.9534 23.5487 12.3423 25.0818 11.9262L26.1868 11.6263L27.4233 3.51569L32.5768 3.51569L33.8132 11.6263L34.9182 11.9262C36.4513 12.3423 37.9262 12.9534 39.3018 13.7421L40.2951 14.312L46.9057 9.45059L50.5495 13.0948L45.688 19.705L46.2579 20.6983C47.0467 22.0739 47.6578 23.5488 48.0739 25.0818L48.3737 26.1869L56.4844 27.4233V32.5768L48.3737 33.8132L48.0739 34.9183C47.6578 36.4513 47.0467 37.9262 46.2579 39.3018L45.688 40.2952L50.5495 46.9053Z" fill="white"/>
<path d="M50.5495 46.9053L46.9052 50.5495L40.2951 45.6881L39.3018 46.258C37.9262 47.0467 36.4513 47.6578 34.9182 48.0739L33.8132 48.3738L32.5768 56.4844H27.4233L26.1868 48.3738L25.0818 48.0739C23.5492 47.6578 22.0743 47.0467 20.6982 46.258L19.7049 45.6881L13.0948 50.5491L9.45053 46.9053L14.312 40.2952L13.7421 39.3014C12.9533 37.9258 12.3422 36.4513 11.9261 34.9183L11.6263 33.8132L3.51563 32.5768L3.51563 27.4233L11.6263 26.1869L11.9261 25.0818C12.3422 23.5488 12.9533 22.0739 13.7421 20.6983L14.312 19.705L9.45053 13.0948L13.0948 9.45059L19.7049 14.312L20.6982 13.7421C22.0738 12.9534 23.5487 12.3423 25.0818 11.9262L26.1868 11.6263L27.4233 3.51569L32.5768 3.51569L33.8132 11.6263L34.9182 11.9262C36.4513 12.3423 37.9262 12.9534 39.3018 13.7421L40.2951 14.312L46.9057 9.45059L50.5495 13.0948L45.688 19.705L46.2579 20.6983C47.0467 22.0739 47.6578 23.5488 48.0739 25.0818L48.3737 26.1869L56.4844 27.4233V32.5768L48.3737 33.8132L48.0739 34.9183C47.6578 36.4513 47.0467 37.9262 46.2579 39.3018L45.688 40.2952L50.5495 46.9053Z" stroke="black"/>
<path d="M60 35.5971L60 24.4029L51.134 23.0511C50.7866 21.9933 50.3595 20.9624 49.8573 19.9695L55.1706 12.7446L47.2554 4.82941L40.0305 10.1427C39.0372 9.6405 38.0067 9.21341 36.9489 8.86597L35.5971 0L24.4029 0L23.0511 8.86597C21.9933 9.21341 20.9624 9.6405 19.9695 10.1427L12.7446 4.82941L4.82941 12.7446L10.1427 19.9695C9.6405 20.9628 9.21341 21.9933 8.86597 23.0511L0 24.4029L0 35.5971L8.86597 36.9489C9.21341 38.0067 9.6405 39.0376 10.1427 40.0305L4.82941 47.2554L12.7446 55.1706L19.9695 49.8573C20.9628 50.3595 21.9933 50.7866 23.0511 51.134L24.4029 60L35.5971 60L36.9489 51.134C38.0067 50.7866 39.0372 50.3595 40.0305 49.8573L47.2554 55.1706L55.1706 47.2554L49.8573 40.0305C50.3595 39.0372 50.7866 38.0067 51.134 36.9489L60 35.5971ZM50.5495 46.9052L46.9052 50.5495L40.2951 45.688L39.3018 46.2579C37.9262 47.0467 36.4513 47.6578 34.9182 48.0739L33.8132 48.3737L32.5768 56.4844L27.4232 56.4844L26.1868 48.3737L25.0818 48.0739C23.5492 47.6578 22.0743 47.0467 20.6982 46.2579L19.7049 45.688L13.0948 50.549L9.45053 46.9052L14.312 40.2951L13.7421 39.3013C12.9533 37.9257 12.3422 36.4513 11.9261 34.9182L11.6263 33.8132L3.51563 32.5768L3.51563 27.4232L11.6263 26.1868L11.9261 25.0818C12.3422 23.5487 12.9533 22.0738 13.7421 20.6982L14.312 19.7049L9.45053 13.0948L13.0948 9.45053L19.7049 14.312L20.6982 13.7421C22.0738 12.9533 23.5487 12.3422 25.0818 11.9261L26.1868 11.6263L27.4232 3.51562L32.5768 3.51562L33.8132 11.6263L34.9182 11.9261C36.4513 12.3422 37.9262 12.9533 39.3018 13.7421L40.2951 14.312L46.9057 9.45053L50.5495 13.0948L45.688 19.7049L46.2579 20.6982C47.0467 22.0738 47.6578 23.5487 48.0739 25.0818L48.3737 26.1868L56.4844 27.4232L56.4844 32.5768L48.3737 33.8132L48.0739 34.9182C47.6578 36.4513 47.0467 37.9262 46.2579 39.3018L45.688 40.2951L50.5495 46.9052Z" fill="black"/>
<path d="M60 35.5971L60 24.4029L51.134 23.0511C50.7866 21.9933 50.3595 20.9624 49.8573 19.9695L55.1706 12.7446L47.2554 4.82941L40.0305 10.1427C39.0372 9.6405 38.0067 9.21341 36.9489 8.86597L35.5971 0L24.4029 0L23.0511 8.86597C21.9933 9.21341 20.9624 9.6405 19.9695 10.1427L12.7446 4.82941L4.82941 12.7446L10.1427 19.9695C9.6405 20.9628 9.21341 21.9933 8.86597 23.0511L0 24.4029L0 35.5971L8.86597 36.9489C9.21341 38.0067 9.6405 39.0376 10.1427 40.0305L4.82941 47.2554L12.7446 55.1706L19.9695 49.8573C20.9628 50.3595 21.9933 50.7866 23.0511 51.134L24.4029 60L35.5971 60L36.9489 51.134C38.0067 50.7866 39.0372 50.3595 40.0305 49.8573L47.2554 55.1706L55.1706 47.2554L49.8573 40.0305C50.3595 39.0372 50.7866 38.0067 51.134 36.9489L60 35.5971ZM50.5495 46.9052L46.9052 50.5495L40.2951 45.688L39.3018 46.2579C37.9262 47.0467 36.4513 47.6578 34.9182 48.0739L33.8132 48.3737L32.5768 56.4844L27.4232 56.4844L26.1868 48.3737L25.0818 48.0739C23.5492 47.6578 22.0743 47.0467 20.6982 46.2579L19.7049 45.688L13.0948 50.549L9.45053 46.9052L14.312 40.2951L13.7421 39.3013C12.9533 37.9257 12.3422 36.4513 11.9261 34.9182L11.6263 33.8132L3.51563 32.5768L3.51563 27.4232L11.6263 26.1868L11.9261 25.0818C12.3422 23.5487 12.9533 22.0738 13.7421 20.6982L14.312 19.7049L9.45053 13.0948L13.0948 9.45053L19.7049 14.312L20.6982 13.7421C22.0738 12.9533 23.5487 12.3422 25.0818 11.9261L26.1868 11.6263L27.4232 3.51562L32.5768 3.51562L33.8132 11.6263L34.9182 11.9261C36.4513 12.3422 37.9262 12.9533 39.3018 13.7421L40.2951 14.312L46.9057 9.45053L50.5495 13.0948L45.688 19.7049L46.2579 20.6982C47.0467 22.0738 47.6578 23.5487 48.0739 25.0818L48.3737 26.1868L56.4844 27.4232L56.4844 32.5768L48.3737 33.8132L48.0739 34.9182C47.6578 36.4513 47.0467 37.9262 46.2579 39.3018L45.688 40.2951L50.5495 46.9052Z" fill="black"/>
<path d="M60 35.5971L60 24.4029L51.134 23.0511C50.7866 21.9933 50.3595 20.9624 49.8573 19.9695L55.1706 12.7446L47.2554 4.82941L40.0305 10.1427C39.0372 9.6405 38.0067 9.21341 36.9489 8.86597L35.5971 0L24.4029 0L23.0511 8.86597C21.9933 9.21341 20.9624 9.6405 19.9695 10.1427L12.7446 4.82941L4.82941 12.7446L10.1427 19.9695C9.6405 20.9628 9.21341 21.9933 8.86597 23.0511L0 24.4029L0 35.5971L8.86597 36.9489C9.21341 38.0067 9.6405 39.0376 10.1427 40.0305L4.82941 47.2554L12.7446 55.1706L19.9695 49.8573C20.9628 50.3595 21.9933 50.7866 23.0511 51.134L24.4029 60L35.5971 60L36.9489 51.134C38.0067 50.7866 39.0372 50.3595 40.0305 49.8573L47.2554 55.1706L55.1706 47.2554L49.8573 40.0305C50.3595 39.0372 50.7866 38.0067 51.134 36.9489L60 35.5971ZM50.5495 46.9052L46.9052 50.5495L40.2951 45.688L39.3018 46.2579C37.9262 47.0467 36.4513 47.6578 34.9182 48.0739L33.8132 48.3737L32.5768 56.4844L27.4232 56.4844L26.1868 48.3737L25.0818 48.0739C23.5492 47.6578 22.0743 47.0467 20.6982 46.2579L19.7049 45.688L13.0948 50.549L9.45053 46.9052L14.312 40.2951L13.7421 39.3013C12.9533 37.9257 12.3422 36.4513 11.9261 34.9182L11.6263 33.8132L3.51563 32.5768L3.51563 27.4232L11.6263 26.1868L11.9261 25.0818C12.3422 23.5487 12.9533 22.0738 13.7421 20.6982L14.312 19.7049L9.45053 13.0948L13.0948 9.45053L19.7049 14.312L20.6982 13.7421C22.0738 12.9533 23.5487 12.3422 25.0818 11.9261L26.1868 11.6263L27.4232 3.51562L32.5768 3.51562L33.8132 11.6263L34.9182 11.9261C36.4513 12.3422 37.9262 12.9533 39.3018 13.7421L40.2951 14.312L46.9057 9.45053L50.5495 13.0948L45.688 19.7049L46.2579 20.6982C47.0467 22.0738 47.6578 23.5487 48.0739 25.0818L48.3737 26.1868L56.4844 27.4232L56.4844 32.5768L48.3737 33.8132L48.0739 34.9182C47.6578 36.4513 47.0467 37.9262 46.2579 39.3018L45.688 40.2951L50.5495 46.9052Z" stroke="black"/>
<path d="M30 15.2344C21.8582 15.2344 15.2344 21.8582 15.2344 30C15.2344 38.1418 21.8582 44.7657 30 44.7657C38.1418 44.7657 44.7656 38.1418 44.7656 30C44.7656 21.8582 38.1418 15.2344 30 15.2344ZM30 41.25C23.7968 41.25 18.75 36.2032 18.75 30C18.75 23.7969 23.7968 18.75 30 18.75C36.2032 18.75 41.25 23.7969 41.25 30C41.25 36.2032 36.2032 41.25 30 41.25Z" fill="black" stroke="black"/>
<path d="M30 22.7344C25.9937 22.7344 22.7344 25.9937 22.7344 30.0001C22.7344 34.0064 25.9937 37.2657 30 37.2657C34.0064 37.2657 37.2656 34.0064 37.2656 30.0001C37.2656 25.9937 34.0064 22.7344 30 22.7344ZM30 33.7501C27.9323 33.7501 26.25 32.0678 26.25 30.0001C26.25 27.9323 27.9323 26.2501 30 26.2501C32.0677 26.2501 33.75 27.9323 33.75 30.0001C33.75 32.0678 32.0677 33.7501 30 33.7501Z" fill="black" stroke="black"/>
</g>
<defs>
<clipPath id="clip0">
<rect width="60" height="60" fill="white"/>
</clipPath>
</defs>
</svg>
