<svg width="140" height="140" viewBox="0 0 140 140" fill="none" xmlns="http://www.w3.org/2000/svg">
<g clip-path="url(#clip0)">
<path d="M24.5575 49.4438L29.4106 41.038L43.8051 46.6597L45.3344 45.1387C47.4523 43.0334 49.8376 41.2027 52.4236 39.6985L54.2877 38.6144L52.5835 23.2571L61.9585 20.7451L68.1612 34.897L70.3176 34.9038C73.3085 34.9137 76.2895 35.3065 79.1772 36.0706L81.262 36.6231L90.9174 24.5582L99.3231 29.4104L93.7013 43.805L95.2225 45.3351C97.3279 47.453 99.1583 49.8374 100.663 52.4234L101.747 54.2875L117.104 52.5833L119.616 61.9583L105.464 68.1611L105.457 70.3175C105.448 73.3092 105.055 76.2901 104.29 79.177L103.738 81.2619L115.804 90.917L110.951 99.3229L96.5561 93.7012L95.0268 95.2221C92.9089 97.3275 90.5236 99.1581 87.9376 100.662L86.0735 101.746L87.7777 117.104L78.4027 119.616L72.2 105.464L70.0436 105.457C67.0519 105.447 64.0709 105.055 61.184 104.29L59.0992 103.738L49.4432 115.804L41.0381 110.95L46.6598 96.5559L45.1389 95.0266C43.0335 92.9087 41.2029 90.5235 39.6987 87.9374L38.6146 86.0733L23.2573 87.7776L20.7453 78.4025L34.8972 72.1998L34.904 70.0434C34.9137 67.0517 35.3064 64.0707 36.0707 61.1838L36.6233 59.099L24.5575 49.4438Z" fill="white"/>
<path d="M24.5575 49.4438L29.4106 41.038L43.8051 46.6597L45.3344 45.1387C47.4523 43.0334 49.8376 41.2027 52.4236 39.6985L54.2877 38.6144L52.5835 23.2571L61.9585 20.7451L68.1612 34.897L70.3176 34.9038C73.3085 34.9137 76.2895 35.3065 79.1772 36.0706L81.262 36.6231L90.9174 24.5582L99.3231 29.4104L93.7013 43.805L95.2225 45.3351C97.3279 47.453 99.1583 49.8374 100.663 52.4234L101.747 54.2875L117.104 52.5833L119.616 61.9583L105.464 68.1611L105.457 70.3175C105.448 73.3092 105.055 76.2901 104.29 79.177L103.738 81.2619L115.804 90.917L110.951 99.3229L96.5561 93.7012L95.0268 95.2221C92.9089 97.3275 90.5236 99.1581 87.9376 100.662L86.0735 101.746L87.7777 117.104L78.4027 119.616L72.2 105.464L70.0436 105.457C67.0519 105.447 64.0709 105.055 61.184 104.29L59.0992 103.738L49.4432 115.804L41.0381 110.95L46.6598 96.5559L45.1389 95.0266C43.0335 92.9087 41.2029 90.5235 39.6987 87.9374L38.6146 86.0733L23.2573 87.7776L20.7453 78.4025L34.8972 72.1998L34.904 70.0434C34.9137 67.0517 35.3064 64.0707 36.0707 61.1838L36.6233 59.099L24.5575 49.4438Z" fill="white"/>
<path d="M12.8778 74.6217L18.3343 94.9857L35.1218 93.1231C36.2695 94.8782 37.549 96.5454 38.9465 98.1069L32.8025 113.84L51.0597 124.381L61.613 111.193C63.6648 111.623 65.7475 111.897 67.8414 112.014L74.6221 127.483L94.9861 122.027L93.1235 105.239C94.8786 104.092 96.5458 102.812 98.1072 101.415L113.84 107.559L124.381 89.3015L111.194 78.7482C111.623 76.6964 111.898 74.6137 112.014 72.5199L127.484 65.7391L122.027 45.3752L105.24 47.2377C104.092 45.4826 102.813 43.8154 101.415 42.254L107.559 26.5209L89.3019 15.9801L78.7486 29.1675C76.6968 28.7381 74.6141 28.4635 72.5203 28.3471L65.7395 12.8774L45.3756 18.3339L47.2381 35.1214C45.483 36.2691 43.8167 37.5483 42.2544 38.9461L26.5213 32.8021L15.9805 51.0593L29.1679 61.6126C28.7385 63.6645 28.4639 65.7471 28.3475 67.841L12.8778 74.6217ZM24.5577 49.4438L29.4108 41.038L43.8054 46.6597L45.3346 45.1387C47.4526 43.0334 49.8378 41.2027 52.4238 39.6985L54.2879 38.6144L52.5837 23.2571L61.9587 20.7451L68.1615 34.897L70.3179 34.9038C73.3087 34.9137 76.2897 35.3065 79.1774 36.0706L81.2623 36.6231L90.9176 24.5582L99.3233 29.4104L93.7016 43.805L95.2228 45.3351C97.3281 47.453 99.1585 49.8374 100.663 52.4234L101.747 54.2875L117.104 52.5833L119.616 61.9583L105.464 68.1611L105.457 70.3175C105.448 73.3092 105.055 76.2901 104.291 79.177L103.738 81.2619L115.804 90.917L110.951 99.3229L96.5563 93.7012L95.027 95.2221C92.9091 97.3275 90.5239 99.1581 87.9378 100.662L86.0737 101.746L87.778 117.104L78.4029 119.616L72.2002 105.464L70.0438 105.457C67.0521 105.447 64.0711 105.055 61.1842 104.29L59.0994 103.738L49.4434 115.804L41.0384 110.95L46.6601 96.5559L45.1391 95.0266C43.0338 92.9087 41.2031 90.5235 39.6989 87.9374L38.6148 86.0733L23.2575 87.7776L20.7455 78.4025L34.8974 72.1998L34.9042 70.0434C34.9139 67.0517 35.3067 64.0707 36.071 61.1838L36.6235 59.099L24.5577 49.4438Z" fill="black"/>
<path d="M12.8778 74.6217L18.3343 94.9857L35.1218 93.1231C36.2695 94.8782 37.549 96.5454 38.9465 98.1069L32.8025 113.84L51.0597 124.381L61.613 111.193C63.6648 111.623 65.7475 111.897 67.8414 112.014L74.6221 127.483L94.9861 122.027L93.1235 105.239C94.8786 104.092 96.5458 102.812 98.1072 101.415L113.84 107.559L124.381 89.3015L111.194 78.7482C111.623 76.6964 111.898 74.6137 112.014 72.5199L127.484 65.7391L122.027 45.3752L105.24 47.2377C104.092 45.4826 102.813 43.8154 101.415 42.254L107.559 26.5209L89.3019 15.9801L78.7486 29.1675C76.6968 28.7381 74.6141 28.4635 72.5203 28.3471L65.7395 12.8774L45.3756 18.3339L47.2381 35.1214C45.483 36.2691 43.8167 37.5483 42.2544 38.9461L26.5213 32.8021L15.9805 51.0593L29.1679 61.6126C28.7385 63.6645 28.4639 65.7471 28.3475 67.841L12.8778 74.6217ZM24.5577 49.4438L29.4108 41.038L43.8054 46.6597L45.3346 45.1387C47.4526 43.0334 49.8378 41.2027 52.4238 39.6985L54.2879 38.6144L52.5837 23.2571L61.9587 20.7451L68.1615 34.897L70.3179 34.9038C73.3087 34.9137 76.2897 35.3065 79.1774 36.0706L81.2623 36.6231L90.9176 24.5582L99.3233 29.4104L93.7016 43.805L95.2228 45.3351C97.3281 47.453 99.1585 49.8374 100.663 52.4234L101.747 54.2875L117.104 52.5833L119.616 61.9583L105.464 68.1611L105.457 70.3175C105.448 73.3092 105.055 76.2901 104.291 79.177L103.738 81.2619L115.804 90.917L110.951 99.3229L96.5563 93.7012L95.027 95.2221C92.9091 97.3275 90.5239 99.1581 87.9378 100.662L86.0737 101.746L87.778 117.104L78.4029 119.616L72.2002 105.464L70.0438 105.457C67.0521 105.447 64.0711 105.055 61.1842 104.29L59.0994 103.738L49.4434 115.804L41.0384 110.95L46.6601 96.5559L45.1391 95.0266C43.0338 92.9087 41.2031 90.5235 39.6989 87.9374L38.6148 86.0733L23.2575 87.7776L20.7455 78.4025L34.8974 72.1998L34.9042 70.0434C34.9139 67.0517 35.3067 64.0707 36.071 61.1838L36.6235 59.099L24.5577 49.4438Z" fill="black"/>
<path d="M77.3782 97.0415C92.1894 93.0728 101.011 77.7943 97.0419 62.983C93.0732 48.1718 77.7946 39.3508 62.9834 43.3194C48.1722 47.2881 39.3511 62.5666 43.3198 77.3778C47.2884 92.189 62.567 101.01 77.3782 97.0415ZM64.6971 49.7149C75.9816 46.6912 87.6227 53.4122 90.6464 64.6967C93.6701 75.9812 86.9491 87.6223 75.6646 90.646C64.38 93.6697 52.739 86.9487 49.7153 75.6642C46.6916 64.3796 53.4126 52.7386 64.6971 49.7149Z" fill="black"/>
<path d="M73.7221 83.3978C81.0103 81.4449 85.3507 73.9271 83.3979 66.6389C81.445 59.3507 73.9272 55.0102 66.639 56.9631C59.3508 58.916 55.0103 66.4338 56.9632 73.722C58.9161 81.0102 66.4339 85.3506 73.7221 83.3978ZM68.3526 63.3586C72.1141 62.3507 75.9945 64.591 77.0024 68.3525C78.0103 72.114 75.77 75.9944 72.0085 77.0023C68.2469 78.0102 64.3666 75.7699 63.3587 72.0083C62.3508 68.2468 64.5911 64.3665 68.3526 63.3586Z" fill="black"/>
</g>
<defs>
<clipPath id="clip0">
<rect width="113" height="113" fill="white" transform="translate(139.379 110.132) rotate(165)"/>
</clipPath>
</defs>
</svg>
