<svg width="180" height="180" viewBox="0 0 180 180" fill="none" xmlns="http://www.w3.org/2000/svg">
<path d="M149.008 74.1797V73.1797H148.008H31.9922H30.9922V74.1797V118.152V120.814L32.7448 118.811L63.6328 83.5109L95.1292 119.506L95.8331 120.31L96.5889 119.554L121.641 94.5027L147.301 120.163L149.008 121.87V119.456V74.1797ZM30.9922 148.008V149.008H31.9922H148.008H149.008V148.008V134.372V133.958L148.715 133.665L122.348 107.298L121.641 106.591L120.934 107.298L102.136 126.096L101.474 126.758L102.091 127.462L102.189 127.573L102.487 127.914H102.941H120.641V136.461H98.607L64.3854 97.3492L63.6328 96.489L62.8802 97.3492L31.2396 133.511L30.9922 133.793V134.169V148.008ZM22.4453 157.555V64.6328H157.555V157.555H22.4453Z" fill="black" stroke="white" stroke-width="2"/>
<path d="M104.212 20.0121L103.987 20.7716L104.675 21.1643L143.638 43.4075L143.868 43.5391H144.134H179V179H1V43.5391H35.8662H36.1316L36.362 43.4075L75.325 21.1643L76.0129 20.7716L75.7881 20.0121C75.3944 18.6814 75.1797 17.2759 75.1797 15.8203C75.1797 7.64945 81.8291 1 90 1C98.1709 1 104.82 7.64945 104.82 15.8203C104.82 17.2759 104.606 18.6814 104.212 20.0121ZM81.6402 28.0499L81.1233 27.6957L80.5792 28.0064L56.6441 41.6706L53.3712 43.5391H57.1399H122.86H126.629L123.356 41.6706L99.4208 28.0064L98.8767 27.6957L98.3598 28.0499C95.9765 29.6829 93.0989 30.6406 90 30.6406C86.9011 30.6406 84.0235 29.6829 81.6402 28.0499ZM169.453 170.453H170.453V169.453V53.0859V52.0859H169.453H10.5469H9.54688V53.0859V169.453V170.453H10.5469H169.453ZM96.2734 15.8203C96.2734 12.3608 93.4595 9.54688 90 9.54688C86.5405 9.54688 83.7266 12.3608 83.7266 15.8203C83.7266 19.2799 86.5405 22.0938 90 22.0938C93.4595 22.0938 96.2734 19.2799 96.2734 15.8203Z" fill="black" stroke="white" stroke-width="2"/>
</svg>
