<svg width="1000" height="300" viewBox="0 0 1000 300" fill="none" xmlns="http://www.w3.org/2000/svg">
<path d="M226.809 62.766V88.2981L205.532 96.8086L214.043 62.766H226.809Z" fill="#564A7E"/>
<path d="M214.043 62.766V96.8086H149.149L157.66 62.766H214.043Z" fill="#6C5D9E"/>
<path d="M33.1914 62.766V88.2981L45.9575 96.8086H157.66V62.766H33.1914Z" fill="#40375A"/>
<path d="M226.809 88.298V237.234H214.043L197.021 162.766L214.043 88.298H226.809Z" fill="#ABA5C4"/>
<path d="M214.043 88.298H33.1914V237.234H214.043V88.298Z" fill="#DFDBEE"/>
<path d="M226.809 59.5746H33.1914C31.4285 59.5746 30 61.0035 30 62.766V237.234C30 238.996 31.4285 240.425 33.1914 240.425H226.809C228.571 240.425 230 238.996 230 237.234V203.191C230 201.429 228.571 200 226.809 200C225.046 200 223.617 201.429 223.617 203.191V234.043H36.3828V91.4895H223.617V190.426C223.617 192.188 225.046 193.617 226.809 193.617C228.571 193.617 230 192.188 230 190.426V62.766C230 61.0035 228.571 59.5746 226.809 59.5746ZM36.3828 65.9574H154.468V85.1063H36.3828V65.9574ZM160.851 85.1063V65.9574H223.617V85.1063H160.851Z" fill="#231942"/>
<path d="M192.34 72.1277C190.463 72.1277 188.936 73.6551 188.936 75.532C188.936 77.409 190.463 78.9363 192.34 78.9363C194.217 78.9363 195.745 77.409 195.745 75.532C195.745 73.6551 194.218 72.1277 192.34 72.1277Z" fill="#231942"/>
<path d="M174.894 72.1277C173.017 72.1277 171.489 73.6551 171.489 75.532C171.489 77.409 173.017 78.9363 174.894 78.9363C176.771 78.9363 178.298 77.409 178.298 75.532C178.298 73.6551 176.771 72.1277 174.894 72.1277Z" fill="#231942"/>
<path d="M209.787 72.1277C207.91 72.1277 206.383 73.6551 206.383 75.532C206.383 77.409 207.91 78.9363 209.787 78.9363C211.664 78.9363 213.191 77.409 213.191 75.532C213.191 73.6551 211.664 72.1277 209.787 72.1277Z" fill="#231942"/>
<rect x="70" y="117" width="119.828" height="91.7031" rx="5" fill="white" stroke="#231942" stroke-width="4" stroke-linejoin="round" stroke-dasharray="8 5"/>
<line x1="694" y1="165.5" x2="798" y2="165.5" stroke="#231942" stroke-width="5" stroke-dasharray="8 5"/>
<path d="M359.916 181.648C359.916 183.641 360.482 185.086 361.615 185.984C362.768 186.883 364.447 187.352 366.654 187.391V191.492C362.943 191.453 360.072 190.604 358.041 188.943C356.01 187.283 354.994 184.949 354.994 181.941V173.064C354.994 171.033 354.379 169.588 353.148 168.729C351.918 167.85 350.131 167.41 347.787 167.41V163.279C350.326 163.24 352.162 162.771 353.295 161.873C354.428 160.975 354.994 159.588 354.994 157.713V148.748C354.994 145.721 356.049 143.367 358.158 141.688C360.268 140.008 363.1 139.168 366.654 139.168V143.24C362.162 143.357 359.916 145.301 359.916 149.07V157.713C359.916 161.912 357.738 164.393 353.383 165.154V165.506C357.738 166.268 359.916 168.748 359.916 172.947V181.648ZM386.996 182H379.428V152.605H369.735V146.307H396.688V152.605H386.996V182ZM423.251 172.088C423.251 175.311 422.087 177.85 419.76 179.705C417.449 181.561 414.226 182.488 410.092 182.488C406.283 182.488 402.914 181.772 399.984 180.34V173.309C402.393 174.383 404.428 175.14 406.088 175.579C407.764 176.019 409.294 176.238 410.678 176.238C412.338 176.238 413.607 175.921 414.486 175.286C415.382 174.651 415.829 173.707 415.829 172.454C415.829 171.754 415.634 171.136 415.243 170.599C414.853 170.045 414.275 169.516 413.51 169.012C412.761 168.507 411.223 167.701 408.896 166.595C406.715 165.569 405.079 164.585 403.988 163.641C402.898 162.697 402.027 161.598 401.376 160.345C400.725 159.091 400.399 157.627 400.399 155.95C400.399 152.793 401.465 150.311 403.598 148.504C405.746 146.697 408.708 145.794 412.484 145.794C414.34 145.794 416.106 146.014 417.782 146.453C419.475 146.893 421.241 147.511 423.08 148.309L420.639 154.192C418.734 153.411 417.156 152.866 415.902 152.557C414.665 152.247 413.445 152.093 412.24 152.093C410.808 152.093 409.709 152.426 408.944 153.094C408.179 153.761 407.797 154.632 407.797 155.706C407.797 156.373 407.951 156.959 408.261 157.464C408.57 157.952 409.058 158.432 409.726 158.904C410.409 159.36 412.012 160.19 414.535 161.395C417.872 162.99 420.159 164.593 421.396 166.204C422.632 167.799 423.251 169.76 423.251 172.088ZM440.521 165.154C436.166 164.393 433.988 161.912 433.988 157.713V149.07C433.988 145.301 431.771 143.357 427.338 143.24V139.168C430.932 139.168 433.754 140.018 435.805 141.717C437.875 143.416 438.91 145.76 438.91 148.748V157.713C438.91 159.607 439.486 161.004 440.639 161.902C441.791 162.781 443.637 163.24 446.176 163.279V167.41C443.793 167.41 441.986 167.85 440.756 168.729C439.525 169.588 438.91 171.033 438.91 173.064V181.941C438.91 184.93 437.904 187.254 435.893 188.914C433.9 190.594 431.049 191.453 427.338 191.492V187.391C429.506 187.352 431.156 186.883 432.289 185.984C433.422 185.086 433.988 183.641 433.988 181.648V172.947C433.988 170.721 434.525 169.021 435.6 167.85C436.674 166.678 438.314 165.896 440.521 165.506V165.154Z" fill="#231942"/>
<line x1="441" y1="165.5" x2="519" y2="165.5" stroke="#231942" stroke-width="5" stroke-dasharray="8 5"/>
<path d="M559.638 151.192C560.647 151.192 561.485 151.266 562.152 151.412L561.591 158.395C560.989 158.232 560.256 158.15 559.394 158.15C557.017 158.15 555.162 158.761 553.827 159.981C552.509 161.202 551.85 162.911 551.85 165.108V179H544.403V151.705H550.043L551.142 156.295H551.508C552.354 154.765 553.493 153.536 554.926 152.608C556.374 151.664 557.945 151.192 559.638 151.192ZM584.442 179L583.002 175.289H582.807C581.553 176.868 580.259 177.966 578.925 178.585C577.606 179.187 575.881 179.488 573.749 179.488C571.129 179.488 569.062 178.74 567.548 177.242C566.05 175.745 565.302 173.613 565.302 170.846C565.302 167.949 566.311 165.816 568.329 164.449C570.364 163.066 573.424 162.301 577.509 162.154L582.245 162.008V160.812C582.245 158.045 580.829 156.661 577.997 156.661C575.816 156.661 573.253 157.32 570.307 158.639L567.841 153.609C570.982 151.965 574.465 151.144 578.29 151.144C581.952 151.144 584.76 151.941 586.713 153.536C588.666 155.131 589.643 157.556 589.643 160.812V179H584.442ZM582.245 166.354L579.364 166.451C577.2 166.516 575.588 166.907 574.53 167.623C573.472 168.339 572.943 169.43 572.943 170.895C572.943 172.994 574.148 174.044 576.557 174.044C578.282 174.044 579.657 173.548 580.683 172.555C581.724 171.562 582.245 170.243 582.245 168.6V166.354ZM616.327 179H594.77V174.605L607.416 157.394H595.526V151.705H615.888V156.539L603.583 173.312H616.327V179ZM627.68 165.304C627.68 168.006 628.119 170.048 628.998 171.432C629.893 172.815 631.342 173.507 633.344 173.507C635.329 173.507 636.754 172.823 637.616 171.456C638.495 170.073 638.935 168.022 638.935 165.304C638.935 162.602 638.495 160.576 637.616 159.225C636.737 157.874 635.297 157.198 633.295 157.198C631.309 157.198 629.877 157.874 628.998 159.225C628.119 160.559 627.68 162.586 627.68 165.304ZM646.552 165.304C646.552 169.747 645.38 173.222 643.036 175.729C640.692 178.235 637.429 179.488 633.246 179.488C630.626 179.488 628.314 178.919 626.312 177.779C624.311 176.624 622.772 174.972 621.698 172.823C620.624 170.675 620.087 168.168 620.087 165.304C620.087 160.844 621.251 157.377 623.578 154.903C625.906 152.429 629.177 151.192 633.393 151.192C636.013 151.192 638.324 151.762 640.326 152.901C642.328 154.041 643.866 155.676 644.94 157.809C646.015 159.941 646.552 162.439 646.552 165.304ZM667.938 151.192C668.948 151.192 669.786 151.266 670.453 151.412L669.892 158.395C669.289 158.232 668.557 158.15 667.694 158.15C665.318 158.15 663.463 158.761 662.128 159.981C660.81 161.202 660.15 162.911 660.15 165.108V179H652.704V151.705H658.344L659.442 156.295H659.809C660.655 154.765 661.794 153.536 663.227 152.608C664.675 151.664 666.246 151.192 667.938 151.192Z" fill="#231942"/>
<path d="M538.414 177.604L514.562 167.106V164.152L538.414 152.238V156.999L520.519 165.397L538.414 172.795V177.604Z" fill="#231942"/>
<path d="M675.562 172.795L693.457 165.397L675.562 156.999V152.238L699.414 164.152V167.106L675.562 177.604V172.795Z" fill="#231942"/>
<g clip-path="url(#clip0)">
<path d="M942.606 214.84H882.878V224.415H942.606V214.84Z" fill="#6C5D9E"/>
<path d="M857.122 214.84H797.394V224.415H857.122V214.84Z" fill="#6C5D9E"/>
<path d="M877.395 187.282V200.048L870 206.431L862.605 200.048V187.282H877.395Z" fill="#756C9E"/>
<path d="M877.395 200.048H862.605V216.005H877.395V200.048Z" fill="#6C5D9E"/>
<path d="M886.069 212.814H853.931V227.606H886.069V212.814Z" fill="#ABA5C4"/>
<path d="M938.295 103.528H801.705V188.035H938.295V103.528Z" fill="#6C5D9E"/>
<path d="M937.931 162.958H928.357H928.356H802.069C799.487 162.958 797.394 165.051 797.394 167.633V188.991C797.394 191.572 799.487 193.666 802.069 193.666H811.644H928.356H928.357H937.931C940.513 193.666 942.606 191.572 942.606 188.991V167.633C942.606 165.051 940.513 162.958 937.931 162.958Z" fill="#ABA5C4"/>
<path d="M927.402 183.098C930.046 183.098 932.189 180.954 932.189 178.311C932.189 175.667 930.046 173.524 927.402 173.524C924.758 173.524 922.615 175.667 922.615 178.311C922.615 180.954 924.758 183.098 927.402 183.098Z" fill="white"/>
<path d="M906.137 183.098C908.781 183.098 910.924 180.954 910.924 178.311C910.924 175.667 908.781 173.524 906.137 173.524C903.493 173.524 901.35 175.667 901.35 178.311C901.35 180.954 903.493 183.098 906.137 183.098Z" fill="#FFCD60"/>
<path d="M937.931 122.675H928.356H802.069C799.487 122.675 797.394 124.769 797.394 127.351V148.708C797.394 151.29 799.487 153.384 802.069 153.384H928.356H937.931C940.513 153.384 942.606 151.29 942.606 148.708V127.351C942.606 124.769 940.513 122.675 937.931 122.675Z" fill="#ABA5C4"/>
<path d="M927.402 142.815C930.046 142.815 932.189 140.672 932.189 138.028C932.189 135.384 930.046 133.241 927.402 133.241C924.758 133.241 922.615 135.384 922.615 138.028C922.615 140.672 924.758 142.815 927.402 142.815Z" fill="white"/>
<path d="M906.137 142.815C908.781 142.815 910.924 140.672 910.924 138.028C910.924 135.384 908.781 133.241 906.137 133.241C903.493 133.241 901.35 135.384 901.35 138.028C901.35 140.672 903.493 142.815 906.137 142.815Z" fill="#FFCD60"/>
<path d="M937.931 82.3935H928.356H802.069C799.487 82.3935 797.394 84.4871 797.394 87.069V108.426C797.394 111.008 799.487 113.102 802.069 113.102H928.356H937.931C940.513 113.102 942.606 111.008 942.606 108.426V87.069C942.606 84.4871 940.513 82.3935 937.931 82.3935Z" fill="#ABA5C4"/>
<path d="M927.402 102.535C930.046 102.535 932.189 100.391 932.189 97.7475C932.189 95.1036 930.046 92.9603 927.402 92.9603C924.758 92.9603 922.615 95.1036 922.615 97.7475C922.615 100.391 924.758 102.535 927.402 102.535Z" fill="white"/>
<path d="M906.137 102.535C908.781 102.535 910.924 100.391 910.924 97.7475C910.924 95.1036 908.781 92.9603 906.137 92.9603C903.493 92.9603 901.35 95.1036 901.35 97.7475C901.35 100.391 903.493 102.535 906.137 102.535Z" fill="#FFCD60"/>
<path d="M937.931 115.495H802.069C798.171 115.495 795 112.324 795 108.426V87.0685C795 83.1711 798.171 80 802.069 80H937.931C941.829 80 945 83.1711 945 87.0685V108.426C945 112.324 941.829 115.495 937.931 115.495ZM802.069 84.7871C800.811 84.7871 799.787 85.8107 799.787 87.0685V108.426C799.787 109.684 800.811 110.708 802.069 110.708H937.931C939.189 110.708 940.213 109.684 940.213 108.426V87.0685C940.213 85.8107 939.189 84.7871 937.931 84.7871C937.931 84.7871 802.069 84.7871 802.069 84.7871Z" fill="#231942"/>
<path d="M885.978 140.424H812.747C811.426 140.424 810.354 139.352 810.354 138.03C810.354 136.708 811.426 135.637 812.747 135.637H885.978C887.3 135.637 888.371 136.708 888.371 138.03C888.371 139.352 887.3 140.424 885.978 140.424Z" fill="#231942"/>
<path d="M927.253 145.211C923.293 145.211 920.072 141.989 920.072 138.03C920.072 134.07 923.293 130.849 927.253 130.849C931.212 130.849 934.434 134.07 934.434 138.03C934.433 141.989 931.212 145.211 927.253 145.211ZM927.253 135.636C925.932 135.636 924.859 136.71 924.859 138.03C924.859 139.35 925.933 140.423 927.253 140.423C928.572 140.423 929.646 139.35 929.646 138.03C929.646 136.71 928.572 135.636 927.253 135.636Z" fill="#231942"/>
<path d="M906.119 145.211C902.159 145.211 898.938 141.989 898.938 138.03C898.938 134.07 902.159 130.849 906.119 130.849C910.079 130.849 913.3 134.07 913.3 138.03C913.3 141.989 910.079 145.211 906.119 145.211ZM906.119 135.636C904.799 135.636 903.725 136.71 903.725 138.03C903.725 139.35 904.799 140.423 906.119 140.423C907.439 140.423 908.512 139.35 908.512 138.03C908.512 136.71 907.439 135.636 906.119 135.636Z" fill="#231942"/>
<path d="M937.931 155.778H802.069C798.171 155.778 795 152.606 795 148.708V127.351C795 123.453 798.171 120.282 802.069 120.282H937.931C941.829 120.282 945 123.454 945 127.351V148.708C945 152.606 941.829 155.778 937.931 155.778ZM802.069 125.069C800.811 125.069 799.787 126.093 799.787 127.351V148.708C799.787 149.966 800.811 150.99 802.069 150.99H937.931C939.189 150.99 940.213 149.966 940.213 148.708V127.351C940.213 126.093 939.189 125.069 937.931 125.069H802.069Z" fill="#231942"/>
<path d="M885.978 180.706H812.747C811.426 180.706 810.354 179.635 810.354 178.312C810.354 176.99 811.426 175.919 812.747 175.919H885.978C887.3 175.919 888.371 176.99 888.371 178.312C888.371 179.635 887.3 180.706 885.978 180.706Z" fill="#231942"/>
<path d="M927.253 185.493C923.293 185.493 920.072 182.272 920.072 178.312C920.072 174.353 923.293 171.131 927.253 171.131C931.212 171.131 934.434 174.353 934.434 178.312C934.434 182.272 931.212 185.493 927.253 185.493ZM927.253 175.919C925.932 175.919 924.859 176.992 924.859 178.312C924.859 179.632 925.933 180.706 927.253 180.706C928.572 180.706 929.646 179.632 929.646 178.312C929.646 176.992 928.572 175.919 927.253 175.919Z" fill="#231942"/>
<path d="M906.119 185.493C902.159 185.493 898.938 182.272 898.938 178.312C898.938 174.353 902.159 171.131 906.119 171.131C910.079 171.131 913.3 174.353 913.3 178.312C913.3 182.272 910.079 185.493 906.119 185.493ZM906.119 175.919C904.799 175.919 903.725 176.992 903.725 178.312C903.725 179.632 904.799 180.706 906.119 180.706C907.439 180.706 908.512 179.632 908.512 178.312C908.513 176.992 907.439 175.919 906.119 175.919Z" fill="#231942"/>
<path d="M937.931 196.06H802.069C798.171 196.06 795 192.889 795 188.991V167.633C795 163.736 798.171 160.565 802.069 160.565H937.931C941.829 160.565 945 163.736 945 167.633V188.991C945 192.889 941.829 196.06 937.931 196.06ZM802.069 165.351C800.811 165.351 799.787 166.375 799.787 167.633V188.991C799.787 190.249 800.811 191.272 802.069 191.272H937.931C939.189 191.272 940.213 190.249 940.213 188.991V167.633C940.213 166.375 939.189 165.351 937.931 165.351H802.069Z" fill="#231942"/>
<path d="M886.07 230H853.93C852.608 230 851.537 228.929 851.537 227.606V212.815C851.537 211.493 852.608 210.421 853.93 210.421H867.821C869.143 210.421 870.214 211.493 870.214 212.815C870.214 214.137 869.143 215.209 867.821 215.209H856.324V225.213H883.676V215.209H877.395C876.074 215.209 875.002 214.137 875.002 212.815V203.241C875.002 201.918 876.074 200.847 877.395 200.847C878.717 200.847 879.789 201.918 879.789 203.241V210.421H886.07C887.392 210.421 888.463 211.493 888.463 212.815V227.606C888.464 228.929 887.392 230 886.07 230Z" fill="#231942"/>
<path d="M862.604 215.209C861.282 215.209 860.211 214.137 860.211 212.815V203.241C860.211 201.918 861.282 200.847 862.604 200.847C863.926 200.847 864.998 201.918 864.998 203.241V212.815C864.998 214.137 863.926 215.209 862.604 215.209Z" fill="#231942"/>
<path d="M942.606 226.808H886.07C884.748 226.808 883.677 225.737 883.677 224.415C883.677 223.093 884.748 222.021 886.07 222.021H942.606C943.928 222.021 945 223.093 945 224.415C945 225.737 943.928 226.808 942.606 226.808Z" fill="#231942"/>
<path d="M942.606 217.234H886.07C884.748 217.234 883.677 216.163 883.677 214.841C883.677 213.518 884.748 212.447 886.07 212.447H942.606C943.928 212.447 945 213.518 945 214.841C945 216.163 943.928 217.234 942.606 217.234Z" fill="#231942"/>
<path d="M853.93 226.808H797.394C796.072 226.808 795 225.737 795 224.415C795 223.093 796.072 222.021 797.394 222.021H853.93C855.252 222.021 856.324 223.093 856.324 224.415C856.324 225.737 855.252 226.808 853.93 226.808Z" fill="#231942"/>
<path d="M853.93 217.234H797.394C796.072 217.234 795 216.163 795 214.841C795 213.518 796.072 212.447 797.394 212.447H853.93C855.252 212.447 856.324 213.518 856.324 214.841C856.324 216.163 855.252 217.234 853.93 217.234Z" fill="#231942"/>
<path d="M885.978 100.141H812.747C811.426 100.141 810.354 99.0699 810.354 97.7478C810.354 96.4256 811.426 95.3542 812.747 95.3542H885.978C887.3 95.3542 888.371 96.4256 888.371 97.7478C888.371 99.0699 887.3 100.141 885.978 100.141Z" fill="#231942"/>
<path d="M927.253 104.928C923.293 104.928 920.072 101.707 920.072 97.7475C920.072 93.788 923.293 90.5665 927.253 90.5665C931.212 90.5665 934.434 93.788 934.434 97.7475C934.433 101.707 931.212 104.928 927.253 104.928ZM927.253 95.3539C925.932 95.3539 924.859 96.4276 924.859 97.7475C924.859 99.0673 925.933 100.141 927.253 100.141C928.572 100.141 929.646 99.0673 929.646 97.7475C929.646 96.4279 928.572 95.3539 927.253 95.3539Z" fill="#231942"/>
<path d="M906.119 104.928C902.159 104.928 898.938 101.707 898.938 97.7475C898.938 93.788 902.159 90.5665 906.119 90.5665C910.079 90.5665 913.3 93.788 913.3 97.7475C913.3 101.707 910.079 104.928 906.119 104.928ZM906.119 95.3539C904.799 95.3539 903.725 96.4276 903.725 97.7475C903.725 99.0673 904.799 100.141 906.119 100.141C907.439 100.141 908.512 99.0673 908.512 97.7475C908.513 96.4279 907.439 95.3539 906.119 95.3539Z" fill="#231942"/>
</g>
<line x1="192" y1="165.5" x2="349" y2="165.5" stroke="#231942" stroke-width="5" stroke-dasharray="8 5"/>
<path d="M81.3452 283.342C78.9526 283.342 77.0955 282.482 75.7739 280.761H75.5347C75.6942 282.356 75.7739 283.325 75.7739 283.667V291.408H71.7578V264.099H75.0049C75.096 264.452 75.284 265.295 75.5688 266.628H75.7739C77.0272 264.714 78.9071 263.757 81.4136 263.757C83.772 263.757 85.6063 264.611 86.9165 266.32C88.2381 268.029 88.8989 270.428 88.8989 273.515C88.8989 276.603 88.2267 279.012 86.8823 280.744C85.5493 282.476 83.7036 283.342 81.3452 283.342ZM80.3711 267.038C78.776 267.038 77.6082 267.505 76.8677 268.439C76.1385 269.374 75.7739 270.866 75.7739 272.917V273.515C75.7739 275.817 76.1385 277.486 76.8677 278.522C77.5968 279.548 78.7874 280.061 80.4395 280.061C81.8294 280.061 82.9004 279.491 83.6523 278.352C84.4043 277.212 84.7803 275.589 84.7803 273.481C84.7803 271.362 84.4043 269.761 83.6523 268.679C82.9118 267.585 81.818 267.038 80.3711 267.038ZM105.391 283L104.587 280.368H104.451C103.539 281.519 102.622 282.305 101.699 282.727C100.776 283.137 99.5915 283.342 98.1445 283.342C96.2874 283.342 94.8348 282.84 93.7866 281.838C92.7498 280.835 92.2314 279.417 92.2314 277.583C92.2314 275.634 92.9549 274.165 94.4019 273.173C95.8488 272.182 98.0534 271.641 101.016 271.55L104.28 271.447V270.439C104.28 269.231 103.995 268.331 103.425 267.739C102.867 267.135 101.995 266.833 100.811 266.833C99.8421 266.833 98.9136 266.975 98.0249 267.26C97.1362 267.545 96.2817 267.881 95.4614 268.269L94.1626 265.397C95.188 264.862 96.3102 264.458 97.5293 264.184C98.7484 263.899 99.8991 263.757 100.981 263.757C103.385 263.757 105.197 264.281 106.416 265.329C107.646 266.377 108.262 268.024 108.262 270.268V283H105.391ZM99.4092 280.266C100.868 280.266 102.035 279.861 102.913 279.052C103.801 278.232 104.246 277.087 104.246 275.617V273.977L101.819 274.079C99.9276 274.147 98.549 274.466 97.6831 275.036C96.8286 275.594 96.4014 276.455 96.4014 277.617C96.4014 278.46 96.652 279.115 97.1533 279.582C97.6546 280.038 98.4066 280.266 99.4092 280.266ZM129.829 264.099V266.303L126.599 266.901C126.895 267.3 127.14 267.79 127.334 268.371C127.528 268.952 127.625 269.567 127.625 270.217C127.625 272.165 126.952 273.697 125.608 274.814C124.264 275.931 122.412 276.489 120.054 276.489C119.45 276.489 118.903 276.443 118.413 276.352C117.547 276.888 117.114 277.514 117.114 278.232C117.114 278.665 117.314 278.99 117.712 279.206C118.123 279.423 118.869 279.531 119.951 279.531H123.25C125.334 279.531 126.918 279.975 128 280.864C129.083 281.752 129.624 283.034 129.624 284.709C129.624 286.851 128.741 288.503 126.975 289.665C125.209 290.827 122.657 291.408 119.319 291.408C116.744 291.408 114.779 290.952 113.423 290.041C112.067 289.13 111.389 287.831 111.389 286.145C111.389 284.982 111.754 284.003 112.483 283.205C113.223 282.419 114.255 281.872 115.576 281.564C115.041 281.337 114.596 280.972 114.243 280.471C113.901 279.958 113.73 279.423 113.73 278.864C113.73 278.158 113.93 277.56 114.329 277.07C114.727 276.58 115.32 276.096 116.106 275.617C115.126 275.196 114.329 274.512 113.713 273.566C113.11 272.609 112.808 271.493 112.808 270.217C112.808 268.166 113.451 266.577 114.739 265.449C116.038 264.321 117.883 263.757 120.276 263.757C120.811 263.757 121.37 263.797 121.951 263.876C122.543 263.945 122.987 264.019 123.284 264.099H129.829ZM114.978 285.939C114.978 286.805 115.365 287.472 116.14 287.939C116.926 288.406 118.026 288.64 119.438 288.64C121.626 288.64 123.255 288.326 124.326 287.7C125.397 287.073 125.933 286.241 125.933 285.205C125.933 284.384 125.636 283.798 125.044 283.444C124.463 283.103 123.375 282.932 121.78 282.932H118.738C117.587 282.932 116.67 283.199 115.986 283.735C115.314 284.282 114.978 285.017 114.978 285.939ZM116.704 270.217C116.704 271.402 117.006 272.313 117.61 272.951C118.225 273.589 119.102 273.908 120.242 273.908C122.566 273.908 123.728 272.666 123.728 270.183C123.728 268.952 123.438 268.007 122.856 267.346C122.287 266.674 121.415 266.337 120.242 266.337C119.08 266.337 118.197 266.668 117.593 267.329C117 267.989 116.704 268.952 116.704 270.217ZM141.604 283.342C138.665 283.342 136.363 282.487 134.7 280.778C133.048 279.058 132.222 276.694 132.222 273.686C132.222 270.598 132.991 268.172 134.529 266.406C136.067 264.64 138.18 263.757 140.869 263.757C143.364 263.757 145.335 264.514 146.782 266.03C148.229 267.545 148.953 269.63 148.953 272.285V274.455H136.357C136.414 276.289 136.91 277.702 137.844 278.693C138.778 279.673 140.094 280.163 141.792 280.163C142.909 280.163 143.945 280.061 144.902 279.855C145.871 279.639 146.908 279.286 148.013 278.796V282.06C147.033 282.527 146.042 282.858 145.039 283.051C144.036 283.245 142.891 283.342 141.604 283.342ZM140.869 266.799C139.593 266.799 138.568 267.203 137.793 268.012C137.03 268.821 136.574 270 136.426 271.55H145.005C144.982 269.989 144.606 268.81 143.877 268.012C143.148 267.203 142.145 266.799 140.869 266.799ZM152.917 280.864C152.917 280.032 153.134 279.394 153.567 278.95C154 278.505 154.626 278.283 155.447 278.283C156.278 278.283 156.911 278.517 157.344 278.984C157.777 279.44 157.993 280.066 157.993 280.864C157.993 281.673 157.771 282.316 157.327 282.795C156.894 283.262 156.267 283.496 155.447 283.496C154.626 283.496 154 283.262 153.567 282.795C153.134 282.328 152.917 281.684 152.917 280.864ZM170.195 280.095C171.175 280.095 172.155 279.941 173.135 279.633V282.658C172.69 282.852 172.115 283.011 171.409 283.137C170.714 283.273 169.99 283.342 169.238 283.342C165.433 283.342 163.53 281.337 163.53 277.326V267.141H160.95V265.363L163.718 263.894L165.085 259.895H167.563V264.099H172.947V267.141H167.563V277.258C167.563 278.226 167.803 278.944 168.281 279.411C168.771 279.867 169.409 280.095 170.195 280.095ZM189.626 277.617C189.626 279.462 188.954 280.881 187.61 281.872C186.265 282.852 184.34 283.342 181.833 283.342C179.316 283.342 177.293 282.96 175.767 282.197V278.728C177.988 279.753 180.056 280.266 181.97 280.266C184.443 280.266 185.679 279.519 185.679 278.027C185.679 277.548 185.542 277.15 185.269 276.831C184.995 276.512 184.545 276.181 183.918 275.839C183.292 275.498 182.42 275.11 181.304 274.677C179.128 273.834 177.652 272.991 176.877 272.148C176.114 271.305 175.732 270.211 175.732 268.867C175.732 267.249 176.382 265.996 177.681 265.107C178.991 264.207 180.768 263.757 183.013 263.757C185.234 263.757 187.336 264.207 189.319 265.107L188.02 268.132C185.981 267.289 184.266 266.867 182.876 266.867C180.757 266.867 179.697 267.471 179.697 268.679C179.697 269.271 179.971 269.772 180.518 270.183C181.076 270.593 182.284 271.157 184.141 271.875C185.701 272.478 186.835 273.031 187.542 273.532C188.248 274.034 188.772 274.615 189.114 275.275C189.456 275.925 189.626 276.705 189.626 277.617Z" fill="#231942"/>
<path d="M757.942 283.342C755.549 283.342 753.692 282.482 752.371 280.761H752.131C752.291 282.356 752.371 283.325 752.371 283.667V291.408H748.354V264.099H751.602C751.693 264.452 751.881 265.295 752.166 266.628H752.371C753.624 264.714 755.504 263.757 758.01 263.757C760.369 263.757 762.203 264.611 763.513 266.32C764.835 268.029 765.496 270.428 765.496 273.515C765.496 276.603 764.823 279.012 763.479 280.744C762.146 282.476 760.3 283.342 757.942 283.342ZM756.968 267.038C755.373 267.038 754.205 267.505 753.464 268.439C752.735 269.374 752.371 270.866 752.371 272.917V273.515C752.371 275.817 752.735 277.486 753.464 278.522C754.194 279.548 755.384 280.061 757.036 280.061C758.426 280.061 759.497 279.491 760.249 278.352C761.001 277.212 761.377 275.589 761.377 273.481C761.377 271.362 761.001 269.761 760.249 268.679C759.508 267.585 758.415 267.038 756.968 267.038ZM781.987 283L781.184 280.368H781.047C780.136 281.519 779.219 282.305 778.296 282.727C777.373 283.137 776.188 283.342 774.741 283.342C772.884 283.342 771.431 282.84 770.383 281.838C769.347 280.835 768.828 279.417 768.828 277.583C768.828 275.634 769.552 274.165 770.999 273.173C772.445 272.182 774.65 271.641 777.612 271.55L780.876 271.447V270.439C780.876 269.231 780.592 268.331 780.022 267.739C779.464 267.135 778.592 266.833 777.407 266.833C776.439 266.833 775.51 266.975 774.622 267.26C773.733 267.545 772.878 267.881 772.058 268.269L770.759 265.397C771.785 264.862 772.907 264.458 774.126 264.184C775.345 263.899 776.496 263.757 777.578 263.757C779.982 263.757 781.794 264.281 783.013 265.329C784.243 266.377 784.858 268.024 784.858 270.268V283H781.987ZM776.006 280.266C777.464 280.266 778.632 279.861 779.509 279.052C780.398 278.232 780.842 277.087 780.842 275.617V273.977L778.416 274.079C776.524 274.147 775.146 274.466 774.28 275.036C773.425 275.594 772.998 276.455 772.998 277.617C772.998 278.46 773.249 279.115 773.75 279.582C774.251 280.038 775.003 280.266 776.006 280.266ZM806.426 264.099V266.303L803.196 266.901C803.492 267.3 803.737 267.79 803.931 268.371C804.124 268.952 804.221 269.567 804.221 270.217C804.221 272.165 803.549 273.697 802.205 274.814C800.86 275.931 799.009 276.489 796.65 276.489C796.047 276.489 795.5 276.443 795.01 276.352C794.144 276.888 793.711 277.514 793.711 278.232C793.711 278.665 793.91 278.99 794.309 279.206C794.719 279.423 795.465 279.531 796.548 279.531H799.846C801.931 279.531 803.515 279.975 804.597 280.864C805.68 281.752 806.221 283.034 806.221 284.709C806.221 286.851 805.338 288.503 803.572 289.665C801.806 290.827 799.254 291.408 795.916 291.408C793.341 291.408 791.375 290.952 790.02 290.041C788.664 289.13 787.986 287.831 787.986 286.145C787.986 284.982 788.35 284.003 789.08 283.205C789.82 282.419 790.851 281.872 792.173 281.564C791.637 281.337 791.193 280.972 790.84 280.471C790.498 279.958 790.327 279.423 790.327 278.864C790.327 278.158 790.527 277.56 790.925 277.07C791.324 276.58 791.917 276.096 792.703 275.617C791.723 275.196 790.925 274.512 790.31 273.566C789.706 272.609 789.404 271.493 789.404 270.217C789.404 268.166 790.048 266.577 791.335 265.449C792.634 264.321 794.48 263.757 796.873 263.757C797.408 263.757 797.966 263.797 798.547 263.876C799.14 263.945 799.584 264.019 799.88 264.099H806.426ZM791.575 285.939C791.575 286.805 791.962 287.472 792.737 287.939C793.523 288.406 794.622 288.64 796.035 288.64C798.223 288.64 799.852 288.326 800.923 287.7C801.994 287.073 802.529 286.241 802.529 285.205C802.529 284.384 802.233 283.798 801.641 283.444C801.06 283.103 799.972 282.932 798.376 282.932H795.334C794.184 282.932 793.267 283.199 792.583 283.735C791.911 284.282 791.575 285.017 791.575 285.939ZM793.301 270.217C793.301 271.402 793.603 272.313 794.207 272.951C794.822 273.589 795.699 273.908 796.838 273.908C799.163 273.908 800.325 272.666 800.325 270.183C800.325 268.952 800.034 268.007 799.453 267.346C798.883 266.674 798.012 266.337 796.838 266.337C795.676 266.337 794.793 266.668 794.189 267.329C793.597 267.989 793.301 268.952 793.301 270.217ZM818.201 283.342C815.261 283.342 812.96 282.487 811.296 280.778C809.644 279.058 808.818 276.694 808.818 273.686C808.818 270.598 809.587 268.172 811.125 266.406C812.664 264.64 814.777 263.757 817.466 263.757C819.961 263.757 821.932 264.514 823.379 266.03C824.826 267.545 825.549 269.63 825.549 272.285V274.455H812.954C813.011 276.289 813.507 277.702 814.441 278.693C815.375 279.673 816.691 280.163 818.389 280.163C819.505 280.163 820.542 280.061 821.499 279.855C822.467 279.639 823.504 279.286 824.609 278.796V282.06C823.63 282.527 822.638 282.858 821.636 283.051C820.633 283.245 819.488 283.342 818.201 283.342ZM817.466 266.799C816.19 266.799 815.164 267.203 814.39 268.012C813.626 268.821 813.171 270 813.022 271.55H821.602C821.579 269.989 821.203 268.81 820.474 268.012C819.744 267.203 818.742 266.799 817.466 266.799ZM829.514 280.864C829.514 280.032 829.731 279.394 830.164 278.95C830.597 278.505 831.223 278.283 832.043 278.283C832.875 278.283 833.507 278.517 833.94 278.984C834.373 279.44 834.59 280.066 834.59 280.864C834.59 281.673 834.368 282.316 833.923 282.795C833.49 283.262 832.864 283.496 832.043 283.496C831.223 283.496 830.597 283.262 830.164 282.795C829.731 282.328 829.514 281.684 829.514 280.864ZM847.373 283.342C844.513 283.342 842.337 282.51 840.845 280.847C839.364 279.172 838.623 276.774 838.623 273.652C838.623 270.473 839.398 268.029 840.947 266.32C842.508 264.611 844.758 263.757 847.698 263.757C849.692 263.757 851.486 264.127 853.081 264.868L851.868 268.098C850.17 267.437 848.769 267.106 847.664 267.106C844.394 267.106 842.759 269.277 842.759 273.618C842.759 275.737 843.163 277.332 843.972 278.403C844.792 279.462 845.989 279.992 847.561 279.992C849.35 279.992 851.042 279.548 852.637 278.659V282.163C851.919 282.584 851.15 282.886 850.33 283.068C849.521 283.251 848.535 283.342 847.373 283.342ZM869.778 277.617C869.778 279.462 869.106 280.881 867.761 281.872C866.417 282.852 864.491 283.342 861.985 283.342C859.467 283.342 857.445 282.96 855.918 282.197V278.728C858.14 279.753 860.208 280.266 862.122 280.266C864.594 280.266 865.83 279.519 865.83 278.027C865.83 277.548 865.693 277.15 865.42 276.831C865.146 276.512 864.696 276.181 864.07 275.839C863.443 275.498 862.572 275.11 861.455 274.677C859.279 273.834 857.804 272.991 857.029 272.148C856.265 271.305 855.884 270.211 855.884 268.867C855.884 267.249 856.533 265.996 857.832 265.107C859.142 264.207 860.92 263.757 863.164 263.757C865.386 263.757 867.488 264.207 869.47 265.107L868.171 268.132C866.132 267.289 864.417 266.867 863.027 266.867C860.908 266.867 859.849 267.471 859.849 268.679C859.849 269.271 860.122 269.772 860.669 270.183C861.227 270.593 862.435 271.157 864.292 271.875C865.853 272.478 866.986 273.031 867.693 273.532C868.399 274.034 868.923 274.615 869.265 275.275C869.607 275.925 869.778 276.705 869.778 277.617ZM890.764 283H886.731V271.379C886.731 269.921 886.435 268.833 885.842 268.115C885.261 267.397 884.333 267.038 883.057 267.038C881.37 267.038 880.129 267.545 879.331 268.559C878.545 269.562 878.152 271.248 878.152 273.618V283H874.136V256.408H878.152V263.159C878.152 264.241 878.083 265.397 877.947 266.628H878.203C878.75 265.716 879.508 265.01 880.476 264.509C881.456 264.007 882.595 263.757 883.894 263.757C888.474 263.757 890.764 266.064 890.764 270.678V283ZM903.394 280.095C904.373 280.095 905.353 279.941 906.333 279.633V282.658C905.889 282.852 905.313 283.011 904.607 283.137C903.912 283.273 903.188 283.342 902.437 283.342C898.631 283.342 896.729 281.337 896.729 277.326V267.141H894.148V265.363L896.917 263.894L898.284 259.895H900.762V264.099H906.145V267.141H900.762V277.258C900.762 278.226 901.001 278.944 901.479 279.411C901.969 279.867 902.607 280.095 903.394 280.095ZM926.055 283H922.021V271.345C922.021 269.898 921.748 268.821 921.201 268.115C920.654 267.397 919.8 267.038 918.638 267.038C917.088 267.038 915.949 267.545 915.22 268.559C914.502 269.562 914.143 271.236 914.143 273.583V283H910.127V264.099H913.271L913.835 266.577H914.041C914.565 265.677 915.322 264.982 916.313 264.492C917.316 264.002 918.416 263.757 919.612 263.757C922.517 263.757 924.443 264.748 925.388 266.73H925.662C926.22 265.796 927.006 265.067 928.02 264.543C929.034 264.019 930.196 263.757 931.506 263.757C933.762 263.757 935.403 264.326 936.428 265.466C937.465 266.605 937.983 268.343 937.983 270.678V283H933.967V271.345C933.967 269.898 933.688 268.821 933.13 268.115C932.583 267.397 931.729 267.038 930.566 267.038C929.006 267.038 927.861 267.528 927.131 268.508C926.414 269.476 926.055 270.969 926.055 272.985V283ZM947.605 283H943.589V256.408H947.605V283ZM952.766 280.864C952.766 280.032 952.983 279.394 953.416 278.95C953.848 278.505 954.475 278.283 955.295 278.283C956.127 278.283 956.759 278.517 957.192 278.984C957.625 279.44 957.842 280.066 957.842 280.864C957.842 281.673 957.62 282.316 957.175 282.795C956.742 283.262 956.116 283.496 955.295 283.496C954.475 283.496 953.848 283.262 953.416 282.795C952.983 282.328 952.766 281.684 952.766 280.864ZM970.625 283.342C967.765 283.342 965.589 282.51 964.097 280.847C962.616 279.172 961.875 276.774 961.875 273.652C961.875 270.473 962.65 268.029 964.199 266.32C965.76 264.611 968.01 263.757 970.95 263.757C972.944 263.757 974.738 264.127 976.333 264.868L975.12 268.098C973.422 267.437 972.021 267.106 970.916 267.106C967.646 267.106 966.011 269.277 966.011 273.618C966.011 275.737 966.415 277.332 967.224 278.403C968.044 279.462 969.241 279.992 970.813 279.992C972.602 279.992 974.294 279.548 975.889 278.659V282.163C975.171 282.584 974.402 282.886 973.582 283.068C972.773 283.251 971.787 283.342 970.625 283.342ZM993.03 277.617C993.03 279.462 992.358 280.881 991.013 281.872C989.669 282.852 987.743 283.342 985.237 283.342C982.719 283.342 980.697 282.96 979.17 282.197V278.728C981.392 279.753 983.459 280.266 985.374 280.266C987.846 280.266 989.082 279.519 989.082 278.027C989.082 277.548 988.945 277.15 988.672 276.831C988.398 276.512 987.948 276.181 987.322 275.839C986.695 275.498 985.824 275.11 984.707 274.677C982.531 273.834 981.056 272.991 980.281 272.148C979.517 271.305 979.136 270.211 979.136 268.867C979.136 267.249 979.785 265.996 981.084 265.107C982.394 264.207 984.172 263.757 986.416 263.757C988.638 263.757 990.74 264.207 992.722 265.107L991.423 268.132C989.384 267.289 987.669 266.867 986.279 266.867C984.16 266.867 983.101 267.471 983.101 268.679C983.101 269.271 983.374 269.772 983.921 270.183C984.479 270.593 985.687 271.157 987.544 271.875C989.105 272.478 990.238 273.031 990.945 273.532C991.651 274.034 992.175 274.615 992.517 275.275C992.859 275.925 993.03 276.705 993.03 277.617Z" fill="#231942"/>
<defs>
<clipPath id="clip0">
<rect width="150" height="150" fill="white" transform="translate(795 80)"/>
</clipPath>
</defs>
</svg>
