<svg width="512" height="512" viewBox="0 0 512 512" fill="none" xmlns="http://www.w3.org/2000/svg">
<path d="M503.83 460.255H299.956V492.936H503.83V460.255Z" fill="#6C5D9E"/>
<path d="M212.044 460.255H8.16998V492.936H212.044V460.255Z" fill="#6C5D9E"/>
<path d="M281.241 366.189V409.763L256 431.551L230.759 409.763V366.189H281.241Z" fill="#756C9E"/>
<path d="M281.24 409.763H230.759V464.231H281.24V409.763Z" fill="#6C5D9E"/>
<path d="M310.85 453.338H201.151V503.83H310.85V453.338Z" fill="#ABA5C4"/>
<path d="M489.112 80.308H22.887V368.76H489.112V80.308Z" fill="#6C5D9E"/>
<path d="M487.871 283.162H455.192H455.19H24.129C15.316 283.162 8.16998 290.308 8.16998 299.121V372.021C8.16998 380.834 15.316 387.98 24.129 387.98H56.81H455.19H455.191H487.871C496.684 387.98 503.83 380.834 503.83 372.021V299.121C503.83 290.308 496.684 283.162 487.871 283.162Z" fill="#ABA5C4"/>
<path d="M451.933 351.907C460.957 351.907 468.273 344.591 468.273 335.567C468.273 326.543 460.957 319.227 451.933 319.227C442.909 319.227 435.593 326.543 435.593 335.567C435.593 344.591 442.909 351.907 451.933 351.907Z" fill="white"/>
<path d="M379.348 351.907C388.372 351.907 395.688 344.591 395.688 335.567C395.688 326.543 388.372 319.227 379.348 319.227C370.324 319.227 363.008 326.543 363.008 335.567C363.008 344.591 370.324 351.907 379.348 351.907Z" fill="#FFCD60"/>
<path d="M487.871 145.665H455.19H24.129C15.316 145.665 8.16998 152.811 8.16998 161.624V234.524C8.16998 243.337 15.316 250.483 24.129 250.483H455.189H487.87C496.683 250.483 503.829 243.337 503.829 234.524V161.624C503.83 152.811 496.684 145.665 487.871 145.665Z" fill="#ABA5C4"/>
<path d="M451.933 214.408C460.957 214.408 468.273 207.092 468.273 198.068C468.273 189.044 460.957 181.728 451.933 181.728C442.909 181.728 435.593 189.044 435.593 198.068C435.593 207.092 442.909 214.408 451.933 214.408Z" fill="white"/>
<path d="M379.348 214.408C388.372 214.408 395.688 207.092 395.688 198.068C395.688 189.044 388.372 181.728 379.348 181.728C370.324 181.728 363.008 189.044 363.008 198.068C363.008 207.092 370.324 214.408 379.348 214.408Z" fill="#FFCD60"/>
<path d="M487.871 8.17001H455.19H24.129C15.316 8.17001 8.16998 15.316 8.16998 24.129V97.029C8.16998 105.842 15.316 112.988 24.129 112.988H455.189H487.87C496.683 112.988 503.829 105.842 503.829 97.029V24.129C503.83 15.316 496.684 8.17001 487.871 8.17001Z" fill="#ABA5C4"/>
<path d="M451.933 76.918C460.957 76.918 468.273 69.6023 468.273 60.578C468.273 51.5537 460.957 44.238 451.933 44.238C442.909 44.238 435.593 51.5537 435.593 60.578C435.593 69.6023 442.909 76.918 451.933 76.918Z" fill="white"/>
<path d="M379.348 76.918C388.372 76.918 395.688 69.6023 395.688 60.578C395.688 51.5537 388.372 44.238 379.348 44.238C370.324 44.238 363.008 51.5537 363.008 60.578C363.008 69.6023 370.324 76.918 379.348 76.918Z" fill="#FFCD60"/>
<path d="M487.872 121.157H24.128C10.824 121.157 0 110.333 0 97.028V24.127C0 10.824 10.824 0 24.128 0H487.871C501.176 0 512 10.824 512 24.127V97.028C512 110.333 501.176 121.157 487.872 121.157ZM24.128 16.34C19.834 16.34 16.34 19.834 16.34 24.127V97.028C16.34 101.321 19.834 104.815 24.128 104.815H487.871C492.165 104.815 495.659 101.321 495.659 97.028V24.127C495.659 19.834 492.165 16.34 487.871 16.34C487.872 16.34 24.128 16.34 24.128 16.34Z" fill="#231942"/>
<path d="M310.538 206.246H60.578C56.066 206.246 52.408 202.589 52.408 198.076C52.408 193.563 56.066 189.906 60.578 189.906H310.537C315.049 189.906 318.707 193.563 318.707 198.076C318.707 202.589 315.05 206.246 310.538 206.246Z" fill="#231942"/>
<path d="M451.422 222.586C437.906 222.586 426.911 211.59 426.911 198.075C426.911 184.56 437.906 173.564 451.422 173.564C464.938 173.564 475.933 184.56 475.933 198.075C475.932 211.59 464.937 222.586 451.422 222.586ZM451.422 189.905C446.916 189.905 443.252 193.57 443.252 198.075C443.252 202.58 446.917 206.245 451.422 206.245C455.927 206.245 459.592 202.58 459.592 198.075C459.592 193.57 455.927 189.905 451.422 189.905Z" fill="#231942"/>
<path d="M379.286 222.586C365.77 222.586 354.775 211.59 354.775 198.075C354.775 184.56 365.77 173.564 379.286 173.564C392.802 173.564 403.797 184.56 403.797 198.075C403.797 211.59 392.802 222.586 379.286 222.586ZM379.286 189.905C374.78 189.905 371.116 193.57 371.116 198.075C371.116 202.58 374.781 206.245 379.286 206.245C383.791 206.245 387.456 202.58 387.456 198.075C387.456 193.57 383.792 189.905 379.286 189.905Z" fill="#231942"/>
<path d="M487.872 258.654H24.128C10.824 258.654 0 247.83 0 234.525V161.625C0 148.321 10.824 137.497 24.128 137.497H487.871C501.175 137.497 511.999 148.322 511.999 161.625V234.525C512 247.83 501.176 258.654 487.872 258.654ZM24.128 153.837C19.834 153.837 16.34 157.331 16.34 161.625V234.525C16.34 238.818 19.834 242.312 24.128 242.312H487.871C492.165 242.312 495.659 238.818 495.659 234.525V161.625C495.659 157.331 492.165 153.837 487.871 153.837H24.128Z" fill="#231942"/>
<path d="M310.538 343.743H60.578C56.066 343.743 52.408 340.086 52.408 335.573C52.408 331.06 56.066 327.403 60.578 327.403H310.537C315.049 327.403 318.707 331.06 318.707 335.573C318.707 340.086 315.05 343.743 310.538 343.743Z" fill="#231942"/>
<path d="M451.422 360.083C437.906 360.083 426.911 349.087 426.911 335.572C426.911 322.057 437.906 311.061 451.422 311.061C464.938 311.061 475.933 322.057 475.933 335.572C475.933 349.087 464.937 360.083 451.422 360.083ZM451.422 327.402C446.916 327.402 443.252 331.067 443.252 335.572C443.252 340.077 446.917 343.742 451.422 343.742C455.927 343.742 459.592 340.077 459.592 335.572C459.592 331.067 455.927 327.402 451.422 327.402Z" fill="#231942"/>
<path d="M379.286 360.083C365.77 360.083 354.775 349.087 354.775 335.572C354.775 322.057 365.77 311.061 379.286 311.061C392.802 311.061 403.797 322.057 403.797 335.572C403.797 349.087 392.802 360.083 379.286 360.083ZM379.286 327.402C374.78 327.402 371.116 331.067 371.116 335.572C371.116 340.077 374.781 343.742 379.286 343.742C383.791 343.742 387.456 340.077 387.456 335.572C387.457 331.067 383.792 327.402 379.286 327.402Z" fill="#231942"/>
<path d="M487.872 396.151H24.128C10.824 396.151 0 385.327 0 372.022V299.122C0 285.818 10.824 274.994 24.128 274.994H487.871C501.175 274.994 511.999 285.819 511.999 299.122V372.022C512 385.327 501.176 396.151 487.872 396.151ZM24.128 291.333C19.834 291.333 16.34 294.827 16.34 299.122V372.022C16.34 376.316 19.834 379.81 24.128 379.81H487.871C492.165 379.81 495.659 376.316 495.659 372.022V299.122C495.659 294.828 492.165 291.333 487.871 291.333H24.128Z" fill="#231942"/>
<path d="M310.853 512H201.148C196.636 512 192.978 508.343 192.978 503.83V453.342C192.978 448.829 196.636 445.172 201.148 445.172H248.562C253.074 445.172 256.732 448.829 256.732 453.342C256.732 457.855 253.074 461.512 248.562 461.512H209.318V495.659H302.682V461.512H281.243C276.731 461.512 273.073 457.855 273.073 453.342V420.661C273.073 416.148 276.731 412.491 281.243 412.491C285.755 412.491 289.413 416.148 289.413 420.661V445.172H310.852C315.364 445.172 319.022 448.829 319.022 453.342V503.83C319.023 508.343 315.365 512 310.853 512Z" fill="#231942"/>
<path d="M230.756 461.512C226.244 461.512 222.586 457.855 222.586 453.342V420.661C222.586 416.148 226.244 412.491 230.756 412.491C235.268 412.491 238.926 416.148 238.926 420.661V453.342C238.926 457.855 235.268 461.512 230.756 461.512Z" fill="#231942"/>
<path d="M503.83 501.106H310.853C306.341 501.106 302.683 497.449 302.683 492.936C302.683 488.423 306.341 484.766 310.853 484.766H503.83C508.342 484.766 512 488.423 512 492.936C512 497.449 508.342 501.106 503.83 501.106Z" fill="#231942"/>
<path d="M503.83 468.426H310.853C306.341 468.426 302.683 464.769 302.683 460.256C302.683 455.743 306.341 452.086 310.853 452.086H503.83C508.342 452.086 512 455.743 512 460.256C512 464.769 508.342 468.426 503.83 468.426Z" fill="#231942"/>
<path d="M201.148 501.106H8.17C3.658 501.106 0 497.449 0 492.936C0 488.423 3.658 484.766 8.17 484.766H201.148C205.66 484.766 209.318 488.423 209.318 492.936C209.319 497.449 205.661 501.106 201.148 501.106Z" fill="#231942"/>
<path d="M201.148 468.426H8.17C3.658 468.426 0 464.769 0 460.256C0 455.743 3.658 452.086 8.17 452.086H201.148C205.66 452.086 209.318 455.743 209.318 460.256C209.319 464.769 205.661 468.426 201.148 468.426Z" fill="#231942"/>
<path d="M310.538 68.749H60.578C56.066 68.749 52.408 65.092 52.408 60.579C52.408 56.066 56.066 52.409 60.578 52.409H310.537C315.049 52.409 318.707 56.066 318.707 60.579C318.707 65.092 315.05 68.749 310.538 68.749Z" fill="#231942"/>
<path d="M451.422 85.089C437.906 85.089 426.911 74.093 426.911 60.578C426.911 47.063 437.906 36.067 451.422 36.067C464.938 36.067 475.933 47.063 475.933 60.578C475.932 74.094 464.937 85.089 451.422 85.089ZM451.422 52.408C446.916 52.408 443.252 56.073 443.252 60.578C443.252 65.083 446.917 68.748 451.422 68.748C455.927 68.748 459.592 65.083 459.592 60.578C459.592 56.074 455.927 52.408 451.422 52.408Z" fill="#231942"/>
<path d="M379.286 85.089C365.77 85.089 354.775 74.093 354.775 60.578C354.775 47.063 365.77 36.067 379.286 36.067C392.802 36.067 403.797 47.063 403.797 60.578C403.797 74.094 392.802 85.089 379.286 85.089ZM379.286 52.408C374.78 52.408 371.116 56.073 371.116 60.578C371.116 65.083 374.781 68.748 379.286 68.748C383.791 68.748 387.456 65.083 387.456 60.578C387.457 56.074 383.792 52.408 379.286 52.408Z" fill="#231942"/>
</svg>
