<svg width="180" height="180" viewBox="0 0 180 180" fill="none" xmlns="http://www.w3.org/2000/svg">
<path d="M120.491 85.7269H121.33L121.476 84.9015C123.885 71.3173 135.74 61.0012 150.008 61.0012C166.021 61.0012 179 73.9829 179 90C179 106.017 166.021 118.999 150.008 118.999C135.739 118.999 123.885 108.683 121.476 95.0991L121.329 94.2738H120.491H89.7188H88.8287L88.7255 95.1579C87.9549 101.761 85.725 107.916 82.365 113.295L81.8937 114.049L82.5881 114.605L99.6178 128.24L100.273 128.764L100.903 128.21C106.008 123.725 112.694 121.002 120.02 121.002C136.029 121.002 149.008 133.984 149.008 150.001C149.008 166.018 136.029 179 120.02 179C104.01 179 91.0281 166.018 91.0281 150.001C91.0281 144.991 92.2975 140.281 94.5313 136.171L94.931 135.436L94.2777 134.913L77.2445 121.276L76.5503 120.72L75.9172 121.344C67.9692 129.185 57.0586 134.025 45.0141 134.025C20.7076 134.025 1 114.314 1 89.9965C1 65.6824 20.7077 45.9683 45.0141 45.968C57.0596 45.968 67.9709 50.8086 75.9189 58.6511L76.552 59.2757L77.2462 58.7199L94.2383 45.1173L94.8923 44.5937L94.4914 43.8581C92.248 39.7416 90.9719 35.021 90.9719 29.9988C90.9719 13.9817 103.951 1 119.96 1C135.973 1 148.952 13.9818 148.952 29.9988C148.952 46.0159 135.974 58.9977 119.961 58.9977C112.647 58.9977 105.972 56.2838 100.871 51.8125L100.241 51.2603L99.5869 51.7839L82.5892 65.3911L81.8947 65.9471L82.366 66.7016C85.7267 72.0817 87.9566 78.2387 88.7265 84.8427L88.8296 85.7269H89.7198H120.491ZM72.0997 110.641L72.8703 111.987L73.7782 110.73C77.9927 104.894 80.4813 97.7301 80.4813 89.9965C80.4813 70.4321 64.5722 54.5152 45.0141 54.5152C25.4559 54.5152 9.54688 70.4321 9.54688 89.9965C9.54688 97.7304 12.0358 104.895 16.2503 110.73L17.1582 111.988L17.9288 110.642C20.1248 106.807 24.4807 103.496 30.2413 101.355L31.4468 100.907L30.7157 99.8493C28.7786 97.0461 27.6414 93.6529 27.6414 89.9961C27.6414 80.4164 35.4343 72.6235 45.0141 72.6235C54.5941 72.6235 62.3902 80.4166 62.3902 89.9961C62.3902 93.6532 61.2525 97.0462 59.3146 99.8496L58.5833 100.908L59.7889 101.356C65.5484 103.496 69.9037 106.806 72.0997 110.641ZM29.0872 121.486L29.0873 121.486C30.0168 122.068 31.034 122.587 32.1116 123.046L32.1253 123.052L32.1392 123.057C36.1335 124.619 40.4763 125.478 45.0144 125.478C49.5565 125.478 53.9033 124.617 57.9001 123.053L57.9141 123.048L57.9278 123.042C59.0013 122.584 60.0156 122.067 60.9426 121.486C62.3025 120.634 63.3255 119.739 64.0208 118.903C64.6791 118.112 65.1605 117.232 65.1605 116.424C65.1605 115.617 64.6791 114.737 64.0208 113.946C63.3255 113.11 62.3025 112.215 60.9427 111.363C56.8582 108.804 51.065 107.378 45.0531 107.372H45.052C45.0371 107.372 45.0242 107.372 45.0145 107.373C45.005 107.372 44.9921 107.372 44.9771 107.372H44.9761C38.9646 107.378 33.1713 108.804 29.0872 111.363C27.7274 112.215 26.7043 113.11 26.0091 113.946C25.3508 114.737 24.8694 115.617 24.8694 116.424C24.8694 117.232 25.3508 118.112 26.0091 118.903C26.7043 119.739 27.7274 120.634 29.0872 121.486ZM45.0506 98.8247L45.0552 98.8247C49.9126 98.8025 53.8434 94.8593 53.8434 89.9965C53.8434 85.1194 49.89 81.1707 45.0141 81.1707C40.1414 81.1707 36.1883 85.1197 36.1883 89.9965C36.1883 94.859 40.1187 98.8025 44.9729 98.8247H44.9775C44.9898 98.8247 45.0003 98.8245 45.0079 98.8244L45.0141 98.8242L45.0199 98.8244C45.0229 98.8244 45.0263 98.8245 45.0301 98.8246C45.0361 98.8247 45.043 98.8247 45.0506 98.8247ZM45.0022 98.8239C45.0009 98.8239 45.0003 98.8239 45.0038 98.824L45.0022 98.8239ZM140.405 29.9988C140.405 18.7207 131.235 9.54688 119.96 9.54688C108.688 9.54688 99.5188 18.7208 99.5188 29.9988C99.5188 41.2768 108.688 50.4508 119.96 50.4508C131.235 50.4508 140.405 41.2769 140.405 29.9988ZM140.461 150.001C140.461 138.723 131.292 129.549 120.02 129.549C108.745 129.549 99.575 138.723 99.575 150.001C99.575 161.279 108.745 170.453 120.02 170.453C131.292 170.453 140.461 161.279 140.461 150.001ZM129.567 90C129.567 101.278 138.736 110.452 150.008 110.452C161.284 110.452 170.453 101.278 170.453 90C170.453 78.7219 161.284 69.548 150.008 69.548C138.736 69.548 129.567 78.722 129.567 90Z" fill="black" stroke="white" stroke-width="2"/>
<circle cx="45" cy="90" r="36" fill="white" stroke="white" stroke-width="2"/>
<path d="M32.4537 81.595L34.3787 85.83L23.4237 90.345L34.3787 94.65L32.4537 99.095L18.1037 93.04V87.685L32.4537 81.595ZM45.9082 73.335L51.3682 74.595L43.1432 106.025L37.6482 104.765L45.9082 73.335ZM56.5668 81.595L70.9168 87.685V93.04L56.5668 99.095L54.6418 94.65L65.5618 90.345L54.6418 85.83L56.5668 81.595Z" fill="black"/>
<path d="M32.4537 81.595L33.3641 81.1812L32.9606 80.2936L32.063 80.6745L32.4537 81.595ZM34.3787 85.83L34.7598 86.7546L35.7179 86.3597L35.2891 85.4162L34.3787 85.83ZM23.4237 90.345L23.0427 89.4204L20.7458 90.3671L23.058 91.2757L23.4237 90.345ZM34.3787 94.65L35.2964 95.0474L35.7076 94.0978L34.7445 93.7193L34.3787 94.65ZM32.4537 99.095L32.065 100.016L32.9777 100.401L33.3714 99.4924L32.4537 99.095ZM18.1037 93.04H17.1037V93.7034L17.715 93.9613L18.1037 93.04ZM18.1037 87.685L17.713 86.7645L17.1037 87.0231V87.685H18.1037ZM31.5433 82.0088L33.4683 86.2438L35.2891 85.4162L33.3641 81.1812L31.5433 82.0088ZM33.9977 84.9054L23.0427 89.4204L23.8048 91.2696L34.7598 86.7546L33.9977 84.9054ZM23.058 91.2757L34.013 95.5807L34.7445 93.7193L23.7895 89.4143L23.058 91.2757ZM33.4611 94.2526L31.5361 98.6976L33.3714 99.4924L35.2964 95.0474L33.4611 94.2526ZM32.8425 98.1737L18.4925 92.1187L17.715 93.9613L32.065 100.016L32.8425 98.1737ZM19.1037 93.04V87.685H17.1037V93.04H19.1037ZM18.4944 88.6055L32.8444 82.5155L32.063 80.6745L17.713 86.7645L18.4944 88.6055ZM45.9082 73.335L46.1331 72.3606L45.1877 72.1424L44.941 73.0808L45.9082 73.335ZM51.3682 74.595L52.3356 74.8482L52.5963 73.8521L51.5931 73.6206L51.3682 74.595ZM43.1432 106.025L42.9197 107L43.8651 107.216L44.1106 106.278L43.1432 106.025ZM37.6482 104.765L36.681 104.511L36.4187 105.509L37.4247 105.74L37.6482 104.765ZM45.6833 74.3094L51.1433 75.5694L51.5931 73.6206L46.1331 72.3606L45.6833 74.3094ZM50.4008 74.3418L42.1758 105.772L44.1106 106.278L52.3356 74.8482L50.4008 74.3418ZM43.3667 105.05L37.8717 103.79L37.4247 105.74L42.9197 107L43.3667 105.05ZM38.6154 105.019L46.8754 73.5892L44.941 73.0808L36.681 104.511L38.6154 105.019ZM56.5668 81.595L56.9575 80.6745L56.0599 80.2936L55.6564 81.1812L56.5668 81.595ZM70.9168 87.685H71.9168V87.0231L71.3075 86.7645L70.9168 87.685ZM70.9168 93.04L71.3056 93.9613L71.9168 93.7034V93.04H70.9168ZM56.5668 99.095L55.6492 99.4924L56.0428 100.401L56.9556 100.016L56.5668 99.095ZM54.6418 94.65L54.275 93.7197L53.3133 94.0988L53.7242 95.0474L54.6418 94.65ZM65.5618 90.345L65.9286 91.2753L68.2324 90.3671L65.9439 89.4209L65.5618 90.345ZM54.6418 85.83L53.7314 85.4162L53.3031 86.3586L54.2597 86.7541L54.6418 85.83ZM56.1761 82.5155L70.5261 88.6055L71.3075 86.7645L56.9575 80.6745L56.1761 82.5155ZM69.9168 87.685V93.04H71.9168V87.685H69.9168ZM70.528 92.1187L56.178 98.1737L56.9556 100.016L71.3056 93.9613L70.528 92.1187ZM57.4844 98.6976L55.5594 94.2526L53.7242 95.0474L55.6492 99.4924L57.4844 98.6976ZM55.0086 95.5803L65.9286 91.2753L65.195 89.4147L54.275 93.7197L55.0086 95.5803ZM65.9439 89.4209L55.0239 84.9059L54.2597 86.7541L65.1797 91.2691L65.9439 89.4209ZM55.5522 86.2438L57.4772 82.0088L55.6564 81.1812L53.7314 85.4162L55.5522 86.2438Z" fill="black"/>
</svg>
