<svg width="180" height="180" viewBox="0 0 180 180" fill="none" xmlns="http://www.w3.org/2000/svg">
<path d="M150.008 60.0012C135.246 60.0012 122.984 70.6743 120.491 84.7269H89.7198C88.9323 77.9723 86.6514 71.6745 83.2141 66.1718L100.212 52.5646C105.488 57.189 112.394 59.9977 119.961 59.9977C136.526 59.9977 149.952 46.568 149.952 29.9988C149.952 13.4297 136.526 0 119.96 0C103.398 0 89.9719 13.4297 89.9719 29.9988C89.9719 35.1925 91.292 40.0771 93.6134 44.3366L76.6213 57.9393C68.4939 49.9198 57.3332 44.968 45.0141 44.968C20.1551 44.9684 0 65.1305 0 89.9965C0 114.866 20.1551 135.025 45.0141 135.025C57.3321 135.025 68.4921 130.074 76.6195 122.056L93.6527 135.694C91.3412 139.946 90.0281 144.82 90.0281 150.001C90.0281 166.57 103.458 180 120.02 180C136.582 180 150.008 166.57 150.008 150.001C150.008 133.432 136.582 120.002 120.02 120.002C112.441 120.002 105.523 122.82 100.243 127.459L83.2131 113.824C86.6496 108.323 88.9306 102.027 89.7188 95.2738H120.491C122.984 109.326 135.245 119.999 150.008 119.999C166.573 119.999 180 106.569 180 90C180 73.4309 166.574 60.0012 150.008 60.0012ZM119.96 10.5469C130.683 10.5469 139.405 19.2727 139.405 29.9988C139.405 40.725 130.683 49.4508 119.96 49.4508C109.241 49.4508 100.519 40.725 100.519 29.9988C100.519 19.2727 109.241 10.5469 119.96 10.5469ZM10.5469 89.9965C10.5469 70.984 26.0086 55.5152 45.0141 55.5152C64.0195 55.5152 79.4813 70.984 79.4813 89.9965C79.4813 97.5122 77.0636 104.473 72.9675 110.144C70.6187 106.043 66.0357 102.61 60.1372 100.418C62.1861 97.4542 63.3902 93.864 63.3902 89.9961C63.3902 79.8641 55.1461 71.6235 45.0141 71.6235C34.882 71.6235 26.6414 79.8641 26.6414 89.9961C26.6414 93.8637 27.8448 97.4538 29.893 100.418C23.9934 102.61 19.4098 106.043 17.061 110.145C12.9649 104.473 10.5469 97.5125 10.5469 89.9965ZM29.6181 120.639C27.0425 119.025 25.8694 117.323 25.8694 116.424C25.8694 115.526 27.0425 113.824 29.6181 112.21C33.5043 109.776 39.1008 108.378 44.9771 108.372C44.9895 108.372 45.0018 108.373 45.0144 108.373C45.0271 108.373 45.0394 108.372 45.052 108.372C50.9288 108.378 56.5253 109.776 60.4118 112.21C62.9873 113.824 64.1605 115.526 64.1605 116.424C64.1605 117.323 62.9873 119.025 60.4118 120.639C59.5357 121.187 58.5689 121.681 57.5357 122.122C53.6527 123.642 49.4293 124.478 45.0144 124.478C40.6034 124.478 36.3839 123.643 32.5034 122.126C31.4663 121.684 30.4966 121.189 29.6181 120.639ZM37.1883 89.9965C37.1883 85.6723 40.6934 82.1707 45.0141 82.1707C49.3383 82.1707 52.8434 85.6723 52.8434 89.9965C52.8434 94.3084 49.358 97.805 45.0506 97.8247C45.0387 97.8247 45.0267 97.824 45.0144 97.824C45.0021 97.824 44.9898 97.8247 44.9775 97.8247C40.6737 97.805 37.1883 94.3084 37.1883 89.9965ZM120.02 130.549C130.739 130.549 139.461 139.275 139.461 150.001C139.461 160.727 130.739 169.453 120.02 169.453C109.297 169.453 100.575 160.727 100.575 150.001C100.575 139.275 109.297 130.549 120.02 130.549ZM150.008 109.452C139.289 109.452 130.567 100.726 130.567 90C130.567 79.2738 139.289 70.548 150.008 70.548C160.731 70.548 169.453 79.2738 169.453 90C169.453 100.726 160.731 109.452 150.008 109.452Z" fill="black"/>
<circle cx="45" cy="90" r="35" fill="white"/>
<path d="M32.4537 81.595L34.3787 85.83L23.4237 90.345L34.3787 94.65L32.4537 99.095L18.1037 93.04V87.685L32.4537 81.595ZM45.9082 73.335L51.3682 74.595L43.1432 106.025L37.6482 104.765L45.9082 73.335ZM56.5668 81.595L70.9168 87.685V93.04L56.5668 99.095L54.6418 94.65L65.5618 90.345L54.6418 85.83L56.5668 81.595Z" fill="black"/>
<path d="M32.4537 81.595L33.3641 81.1812L32.9606 80.2936L32.063 80.6745L32.4537 81.595ZM34.3787 85.83L34.7598 86.7546L35.7179 86.3597L35.2891 85.4162L34.3787 85.83ZM23.4237 90.345L23.0427 89.4204L20.7458 90.3671L23.058 91.2757L23.4237 90.345ZM34.3787 94.65L35.2964 95.0474L35.7076 94.0978L34.7445 93.7193L34.3787 94.65ZM32.4537 99.095L32.065 100.016L32.9777 100.401L33.3714 99.4924L32.4537 99.095ZM18.1037 93.04H17.1037V93.7034L17.715 93.9613L18.1037 93.04ZM18.1037 87.685L17.713 86.7645L17.1037 87.0231V87.685H18.1037ZM31.5433 82.0088L33.4683 86.2438L35.2891 85.4162L33.3641 81.1812L31.5433 82.0088ZM33.9977 84.9054L23.0427 89.4204L23.8048 91.2696L34.7598 86.7546L33.9977 84.9054ZM23.058 91.2757L34.013 95.5807L34.7445 93.7193L23.7895 89.4143L23.058 91.2757ZM33.4611 94.2526L31.5361 98.6976L33.3714 99.4924L35.2964 95.0474L33.4611 94.2526ZM32.8425 98.1737L18.4925 92.1187L17.715 93.9613L32.065 100.016L32.8425 98.1737ZM19.1037 93.04V87.685H17.1037V93.04H19.1037ZM18.4944 88.6055L32.8444 82.5155L32.063 80.6745L17.713 86.7645L18.4944 88.6055ZM45.9082 73.335L46.1331 72.3606L45.1877 72.1424L44.941 73.0808L45.9082 73.335ZM51.3682 74.595L52.3356 74.8482L52.5963 73.8521L51.5931 73.6206L51.3682 74.595ZM43.1432 106.025L42.9197 107L43.8651 107.216L44.1106 106.278L43.1432 106.025ZM37.6482 104.765L36.681 104.511L36.4187 105.509L37.4247 105.74L37.6482 104.765ZM45.6833 74.3094L51.1433 75.5694L51.5931 73.6206L46.1331 72.3606L45.6833 74.3094ZM50.4008 74.3418L42.1758 105.772L44.1106 106.278L52.3356 74.8482L50.4008 74.3418ZM43.3667 105.05L37.8717 103.79L37.4247 105.74L42.9197 107L43.3667 105.05ZM38.6154 105.019L46.8754 73.5892L44.941 73.0808L36.681 104.511L38.6154 105.019ZM56.5668 81.595L56.9575 80.6745L56.0599 80.2936L55.6564 81.1812L56.5668 81.595ZM70.9168 87.685H71.9168V87.0231L71.3075 86.7645L70.9168 87.685ZM70.9168 93.04L71.3056 93.9613L71.9168 93.7034V93.04H70.9168ZM56.5668 99.095L55.6492 99.4924L56.0428 100.401L56.9556 100.016L56.5668 99.095ZM54.6418 94.65L54.275 93.7197L53.3133 94.0988L53.7242 95.0474L54.6418 94.65ZM65.5618 90.345L65.9286 91.2753L68.2324 90.3671L65.9439 89.4209L65.5618 90.345ZM54.6418 85.83L53.7314 85.4162L53.3031 86.3586L54.2597 86.7541L54.6418 85.83ZM56.1761 82.5155L70.5261 88.6055L71.3075 86.7645L56.9575 80.6745L56.1761 82.5155ZM69.9168 87.685V93.04H71.9168V87.685H69.9168ZM70.528 92.1187L56.178 98.1737L56.9556 100.016L71.3056 93.9613L70.528 92.1187ZM57.4844 98.6976L55.5594 94.2526L53.7242 95.0474L55.6492 99.4924L57.4844 98.6976ZM55.0086 95.5803L65.9286 91.2753L65.195 89.4147L54.275 93.7197L55.0086 95.5803ZM65.9439 89.4209L55.0239 84.9059L54.2597 86.7541L65.1797 91.2691L65.9439 89.4209ZM55.5522 86.2438L57.4772 82.0088L55.6564 81.1812L53.7314 85.4162L55.5522 86.2438Z" fill="black"/>
</svg>
