<svg width="217" height="217" viewBox="0 0 217 217" fill="none" xmlns="http://www.w3.org/2000/svg">
<path d="M155.969 213.821H61.0312C54.0083 213.821 48.3164 208.129 48.3164 201.106V15.8936C48.3164 8.87059 54.0083 3.17871 61.0312 3.17871H155.969C162.992 3.17871 168.684 8.87059 168.684 15.8936V201.106C168.684 208.129 162.992 213.821 155.969 213.821Z" fill="#B4ABE1"/>
<path d="M155.969 3.17871H143.254C150.277 3.17871 155.969 8.87059 155.969 15.8936V201.106C155.969 208.129 150.277 213.821 143.254 213.821H155.969C162.992 213.821 168.684 208.129 168.684 201.106V15.8936C168.684 8.87059 162.992 3.17871 155.969 3.17871Z" fill="#988EC3"/>
<path d="M48.3164 181.61H168.684V194.325H48.3164V181.61Z" fill="#988EC3"/>
<path d="M155.969 181.61H168.684V194.325H155.969V181.61Z" fill="#988EC3"/>
<path d="M155.969 213.821H61.0312C54.0083 213.821 48.3164 208.129 48.3164 201.106V194.325H168.684V201.106C168.684 208.129 162.992 213.821 155.969 213.821Z" fill="#50536E"/>
<path d="M155.969 194.325V201.106C155.969 208.129 150.277 213.821 143.254 213.821H155.969C162.992 213.821 168.684 208.129 168.684 201.106V194.325H155.969Z" fill="#484B63"/>
<path d="M61.0312 3.17871H155.969C162.992 3.17871 168.684 8.87059 168.684 15.8936V22.6748H48.3164V15.8936C48.3164 8.87059 54.0083 3.17871 61.0312 3.17871Z" fill="#50536E"/>
<path d="M155.969 3.17871H143.254C150.277 3.17871 155.969 8.87059 155.969 15.8936V22.6748H168.684V15.8936C168.684 8.87059 162.992 3.17871 155.969 3.17871Z" fill="#484B63"/>
<path d="M69.9052 34.1099H19.5226C10.4964 34.1099 3.17871 41.4275 3.17871 50.4538V89.8168C3.17871 98.843 10.4964 106.161 19.5226 106.161H35.4608C36.7025 127.109 50.9438 126.14 56.6092 124.908C57.0628 124.809 57.0496 124.162 56.5926 124.079C45.7238 122.13 50.4355 106.161 50.4355 106.161H69.9052C78.9314 106.161 86.249 98.843 86.249 89.8151V50.4538C86.249 41.4275 78.9314 34.1099 69.9052 34.1099V34.1099Z" fill="#FFE477"/>
<path d="M69.9052 34.1099H57.1903C66.2165 34.1099 73.5342 41.4275 73.5342 50.4538V89.8168C73.5342 98.843 66.2165 106.161 57.1903 106.161H69.9052C78.9314 106.161 86.249 98.843 86.249 89.8168V50.4538C86.249 41.4275 78.9314 34.1099 69.9052 34.1099Z" fill="#FFB655"/>
<path d="M62.5146 64.6669C62.5146 70.7197 57.6903 77.8486 45.7801 84.1233C45.2486 84.4031 44.6029 84.4031 44.0715 84.1233C32.1613 77.8486 27.3369 70.7197 27.3369 64.6669C27.3369 59.2863 30.9246 54.6656 36.1313 54.6656C40.0037 54.6656 42.6063 56.644 43.9225 57.9784C44.4672 58.5313 45.3844 58.5313 45.9291 57.9784C47.2452 56.644 49.8478 54.6656 53.7202 54.6656C58.927 54.6656 62.5146 59.2863 62.5146 64.6669Z" fill="#FF2C5C"/>
<path d="M147.095 85.8169H197.477C206.504 85.8169 213.821 93.1346 213.821 102.161V141.522C213.821 150.55 206.504 157.868 197.477 157.868H181.541C180.297 178.814 166.058 177.847 160.391 176.615C159.937 176.516 159.95 175.867 160.407 175.786C171.276 173.837 166.564 157.868 166.564 157.868H147.095C138.069 157.868 130.751 150.55 130.751 141.522V102.161C130.751 93.1346 138.069 85.8169 147.095 85.8169V85.8169Z" fill="#FFE477"/>
<path d="M197.477 85.8169H184.763C193.789 85.8169 201.106 93.1346 201.106 102.161V141.524C201.106 150.55 193.789 157.868 184.763 157.868H197.477C206.504 157.868 213.821 150.55 213.821 141.524V102.161C213.821 93.1346 206.504 85.8169 197.477 85.8169V85.8169Z" fill="#FFB655"/>
<path d="M181.187 108.947C181.187 113.862 177.202 117.847 172.286 117.847C167.371 117.847 163.386 113.862 163.386 108.947C163.386 104.032 167.371 100.047 172.286 100.047C177.202 100.047 181.187 104.032 181.187 108.947Z" fill="#BDDBFF"/>
<path d="M182.523 135.648H162.048C159.51 135.648 157.452 133.59 157.452 131.052V130.771C157.452 123.634 163.238 117.847 170.376 117.847H174.197C181.334 117.847 187.12 123.634 187.12 130.771V131.052C187.12 133.59 185.062 135.648 182.523 135.648V135.648Z" fill="#BDDBFF"/>
<path d="M68.0625 132.162H112.988V144.876H68.0625V132.162Z" fill="#FF2C5C"/>
<path d="M45.1377 162.609C45.1377 164.364 46.5615 165.788 48.3164 165.788C50.0713 165.788 51.4951 164.364 51.4951 162.609V128.627C51.5597 128.627 51.6243 128.63 51.6888 128.63C53.8792 128.63 55.8344 128.329 57.2847 128.014C58.9601 127.65 60.1521 126.144 60.1207 124.43C60.0892 122.715 58.8409 121.253 57.1539 120.95C55.5712 120.667 54.495 119.988 53.7682 118.816C52.2186 116.318 52.4818 112.164 52.9735 109.339H69.9052C80.6697 109.339 89.4277 100.581 89.4277 89.8168V50.4538C89.4277 39.6892 80.6697 30.9312 69.9052 30.9312H51.4951V25.8535H67.6718C69.4267 25.8535 70.8505 24.4297 70.8505 22.6748C70.8505 20.9199 69.4267 19.4961 67.6718 19.4961H51.4951V15.8936C51.4951 10.6354 55.7731 6.35742 61.0312 6.35742H155.969C161.227 6.35742 165.505 10.6354 165.505 15.8936V19.4961H81.2343C79.4777 19.4961 78.0556 20.9199 78.0556 22.6748C78.0556 24.4297 79.4777 25.8535 81.2343 25.8535H165.505V40.6875C165.505 42.4424 166.929 43.8662 168.684 43.8662C170.439 43.8662 171.862 42.4424 171.862 40.6875V15.8936C171.862 7.12892 164.733 0 155.969 0H61.0312C52.2666 0 45.1377 7.12892 45.1377 15.8936V30.9312H19.5226C8.75801 30.9312 0 39.6892 0 50.4538V89.8168C0 100.581 8.75801 109.339 19.5226 109.339H32.5619C33.4791 116.556 36.1098 121.852 40.4027 125.107C41.9176 126.256 43.5235 127.056 45.1377 127.604V162.609ZM38.6329 105.972C38.5336 104.293 37.1429 102.982 35.4592 102.982H19.5226C12.2629 102.982 6.35742 97.0765 6.35742 89.8168V50.4538C6.35742 43.194 12.2629 37.2886 19.5226 37.2886H69.9052C77.1649 37.2886 83.0703 43.194 83.0703 50.4538V89.8168C83.0703 97.0765 77.1649 102.982 69.9052 102.982H50.4355C49.0266 102.982 47.785 103.911 47.3876 105.262C47.078 106.308 44.5152 115.548 48.1922 121.879C46.8247 121.544 45.4688 120.97 44.2453 120.041C40.9259 117.525 39.0369 112.791 38.6329 105.972Z" fill="black"/>
<path d="M100.023 207.252H116.977C118.731 207.252 120.155 205.828 120.155 204.073C120.155 202.318 118.731 200.895 116.977 200.895H100.023C98.2685 200.895 96.8447 202.318 96.8447 204.073C96.8447 205.828 98.2685 207.252 100.023 207.252Z" fill="black"/>
<path d="M65.6934 64.6669C65.6934 57.2764 60.4336 51.4868 53.7202 51.4868C49.7187 51.4868 46.7684 53.1341 44.9258 54.6109C43.0831 53.1341 40.1329 51.4868 36.1313 51.4868C29.418 51.4868 24.1582 57.2764 24.1582 64.6669C24.1582 69.3572 26.5522 78.486 42.5914 86.9361C43.3215 87.3218 44.1245 87.5139 44.9258 87.5139C45.7287 87.5139 46.53 87.3202 47.2618 86.9361C63.2994 78.486 65.6934 69.3572 65.6934 64.6669ZM30.5156 64.6669C30.5156 61.3591 32.4841 57.8443 36.1313 57.8443C38.772 57.8443 40.5948 59.1306 41.6577 60.2101C42.5119 61.076 43.7023 61.571 44.9258 61.571C46.1493 61.571 47.3396 61.0743 48.1939 60.2101C49.2568 59.1306 51.0796 57.8443 53.7202 57.8443C57.3675 57.8443 59.3359 61.3591 59.3359 64.6669C59.3359 70.0873 54.0944 76.0093 44.9258 80.976C35.7572 76.0076 30.5156 70.0873 30.5156 64.6669Z" fill="black"/>
<path d="M197.477 82.6382H171.862V54.1076C171.862 52.3527 170.439 50.9289 168.684 50.9289C166.929 50.9289 165.505 52.3527 165.505 54.1076V82.6382H147.095C136.33 82.6382 127.572 91.3962 127.572 102.161V141.522C127.572 152.288 136.33 161.046 147.095 161.046H164.023C164.503 163.844 164.775 168.026 163.237 170.515C162.51 171.692 161.432 172.372 159.846 172.657C158.159 172.958 156.911 174.422 156.879 176.135C156.848 177.849 158.04 179.357 159.715 179.721C161.166 180.036 163.119 180.336 165.311 180.336C165.374 180.336 165.44 180.334 165.505 180.334V191.146H51.4951V176.241C51.4951 174.486 50.0713 173.063 48.3164 173.063C46.5598 173.063 45.1377 174.486 45.1377 176.241V201.106C45.1377 209.871 52.2666 217 61.0312 217H155.969C164.732 217 171.862 209.871 171.862 201.106V179.311C173.476 178.763 175.081 177.963 176.596 176.814C180.89 173.559 183.521 168.263 184.436 161.046H197.476C208.242 161.046 217 152.288 217 141.524V102.161C217 91.3962 208.242 82.6382 197.477 82.6382V82.6382ZM165.505 201.106C165.505 206.365 161.227 210.643 155.969 210.643H61.0312C55.7731 210.643 51.4951 206.365 51.4951 201.106V197.504H165.505V201.106ZM210.643 141.524C210.643 148.784 204.737 154.689 197.477 154.689H181.539C179.857 154.689 178.466 156 178.367 157.679C177.961 164.498 176.074 169.233 172.755 171.748C171.531 172.677 170.175 173.251 168.808 173.586C172.485 167.253 169.922 158.013 169.612 156.969C169.215 155.618 167.973 154.689 166.564 154.689H147.095C139.835 154.689 133.93 148.784 133.93 141.524V102.161C133.93 94.9011 139.835 88.9956 147.095 88.9956H197.477C204.737 88.9956 210.643 94.9011 210.643 102.161V141.524Z" fill="black"/>
<path d="M181.685 116.523C183.36 114.45 184.365 111.814 184.365 108.947C184.365 102.287 178.947 96.8679 172.286 96.8679C165.626 96.8679 160.207 102.287 160.207 108.947C160.207 111.814 161.212 114.448 162.887 116.523C157.772 119.223 154.273 124.596 154.273 130.771V131.052C154.273 135.339 157.762 138.827 162.05 138.827H182.524C186.811 138.827 190.299 135.339 190.299 131.052V130.771C190.299 124.596 186.801 119.223 181.685 116.523V116.523ZM172.286 103.225C175.442 103.225 178.008 105.793 178.008 108.947C178.008 112.103 175.442 114.669 172.286 114.669C169.131 114.669 166.564 112.103 166.564 108.947C166.564 105.793 169.131 103.225 172.286 103.225ZM183.941 131.052C183.941 131.834 183.306 132.469 182.523 132.469H162.048C161.267 132.469 160.631 131.834 160.631 131.052V130.771C160.631 125.398 165.002 121.026 170.376 121.026H174.197C179.571 121.026 183.941 125.398 183.941 130.771V131.052Z" fill="black"/>
<path d="M147.539 39.267H102.613C100.856 39.267 99.4341 40.6908 99.4341 42.4457C99.4341 44.2006 100.856 45.6244 102.613 45.6244H147.539C149.293 45.6244 150.717 44.2006 150.717 42.4457C150.717 40.6908 149.293 39.267 147.539 39.267Z" fill="black"/>
<path d="M147.539 51.9819H102.613C100.856 51.9819 99.4341 53.4057 99.4341 55.1606C99.4341 56.9155 100.856 58.3393 102.613 58.3393H147.539C149.293 58.3393 150.717 56.9155 150.717 55.1606C150.717 53.4057 149.293 51.9819 147.539 51.9819Z" fill="black"/>
<path d="M150.717 67.8754C150.717 66.1205 149.293 64.6967 147.539 64.6967H102.613C100.856 64.6967 99.4341 66.1205 99.4341 67.8754C99.4341 69.6303 100.856 71.0541 102.613 71.0541H147.539C149.293 71.0541 150.717 69.6303 150.717 67.8754Z" fill="black"/>
<path d="M116.167 132.162C116.167 130.407 114.743 128.983 112.988 128.983H68.0625C66.3059 128.983 64.8838 130.407 64.8838 132.162V144.876C64.8838 146.631 66.3059 148.055 68.0625 148.055H112.988C114.743 148.055 116.167 146.631 116.167 144.876V132.162ZM109.81 141.698H71.2412V135.34H109.81V141.698Z" fill="black"/>
<path d="M112.988 154.413H68.0625C66.3059 154.413 64.8838 155.836 64.8838 157.591C64.8838 159.346 66.3059 160.77 68.0625 160.77H112.988C114.743 160.77 116.167 159.346 116.167 157.591C116.167 155.836 114.743 154.413 112.988 154.413Z" fill="black"/>
</svg>
