<svg width="160" height="160" viewBox="0 0 160 160" fill="none" xmlns="http://www.w3.org/2000/svg">
<path d="M117.034 150.625V151.375H117.784H149.387H151.198L149.918 150.095L9.90533 10.0812L8.625 8.8009V10.6116V42.2156V42.9656H9.375H16.4375V50.8406H9.375H8.625V51.5906V80.7959V81.5459H9.375H16.4375V89.4209H9.375H8.625V90.1709V119.375V120.125H9.375H16.4375V128H9.375H8.625V128.75V150.625V151.375H9.375H31.25H32V150.625V143.562H39.875V150.625V151.375H40.625H50.5396H51.2896V150.625V137.416H59.1646V150.625V151.375H59.9146H69.8291H70.5791V150.625V143.562H78.4541V150.625V151.375H79.2041H89.1199H89.8699V150.625V137.416H97.7449V150.625V151.375H98.4949H108.409H109.159V150.625V143.562H117.034V150.625ZM159.25 148.289V159.25H0.75V0.75H11.7108L159.25 148.289Z" fill="black" stroke="white" stroke-width="1.5"/>
<path d="M44.4571 92.894L42.75 91.1869V93.6011V116.25V117.25H43.75H66.3989H68.8131L67.106 115.543L44.4571 92.894ZM86.6178 124.625H35.375V73.381L86.6178 124.625Z" fill="black" stroke="white" stroke-width="2"/>
</svg>
