<svg width="160" height="160" viewBox="0 0 160 160" fill="none" xmlns="http://www.w3.org/2000/svg">
<path d="M12.0215 0H0V160H160V147.979L12.0215 0ZM117.784 150.625V142.812H108.409V150.625H98.4949V136.666H89.1199V150.625H79.2041V142.812H69.8291V150.625H59.9146V136.666H50.5396V150.625H40.625V142.812H31.25V150.625H9.375V128.75H17.1875V119.375H9.375V90.1709H17.1875V80.7959H9.375V51.5906H17.1875V42.2156H9.375V10.6116L149.387 150.625H117.784Z" fill="black"/>
<path d="M34.375 70.9668V125.625H89.032L34.375 70.9668ZM43.75 93.6011L66.3989 116.25H43.75V93.6011Z" fill="black"/>
</svg>
